SplineFontDB: 3.2
FontName: Monocraft
FullName: Monocraft
FamilyName: Monocraft
Weight: Medium
Copyright: Idrees Hassan\nhttps://github.com/IdreesInc/Monocraft
Version: 001.100
ItalicAngle: 0
UnderlinePosition: -2
UnderlineWidth: 0
Ascent: 16
Descent: 2
InvalidEm: 0
sfntRevision: 0x00010000
LayerCount: 3
Layer: 0 1 "Back" 1
Layer: 1 1 "Fore" 0
Layer: 2 0 "Back 2" 1
XUID: [1021 384 -154929595 16029303]
StyleMap: 0x0040
FSType: 8
OS2Version: 4
OS2_WeightWidthSlopeOnly: 0
OS2_UseTypoMetrics: 0
CreationTime: 1280473793
ModificationTime: 1662563939
PfmFamily: 17
TTFWeight: 500
TTFWidth: 5
LineGap: 2
VLineGap: 0
Panose: 2 0 6 9 0 0 0 0 0 0
OS2TypoAscent: 16
OS2TypoAOffset: 0
OS2TypoDescent: -2
OS2TypoDOffset: 0
OS2TypoLinegap: 2
OS2WinAscent: 16
OS2WinAOffset: 0
OS2WinDescent: 4
OS2WinDOffset: 0
HheadAscent: 16
HheadAOffset: 0
HheadDescent: -2
HheadDOffset: 0
OS2SubXSize: 10
OS2SubYSize: 12
OS2SubXOff: 0
OS2SubYOff: 2
OS2SupXSize: 10
OS2SupYSize: 12
OS2SupXOff: 0
OS2SupYOff: 8
OS2StrikeYSize: 0
OS2StrikeYPos: 4
OS2Vendor: '2ttf'
OS2CodePages: 40000001.00000000
OS2UnicodeRanges: 80000003.00014002.00000000.00000000
Lookup: 4 0 0 "liga" { "liga-subtable"  } ['liga' ('DFLT' <'dflt' > 'latn' <'dflt' > ) ]
MarkAttachClasses: 1
DEI: 91125
ShortTable: cvt  2
  34
  648
EndShort
ShortTable: maxp 16
  1
  0
  207
  60
  10
  0
  0
  2
  0
  1
  1
  0
  64
  46
  0
  0
EndShort
LangName: 1033
GaspTable: 1 65535 0 0
Encoding: Custom
UnicodeInterp: none
NameList: AGL For New Fonts
DisplaySize: -48
AntiAlias: 1
FitToEm: 0
WinInfo: 0 38 14
BeginPrivate: 0
EndPrivate
Grid
10 14 m 17
 10 12 l 1
 10 10 l 1
 10 8 l 1
 10 6 l 1
 10 4 l 1
 10 2 l 5
 10 0 l 1033
8 14 m 17
 8 12 l 1
 8 10 l 1
 8 8 l 1
 8 6 l 1
 8 4 l 1
 8 2 l 1
 8 0 l 1033
6 14 m 17
 6 12 l 1
 6 10 l 1
 6 8 l 1
 6 6 l 1
 6 4 l 1
 6 2 l 1
 6 0 l 1033
4 14 m 17
 4 12 l 1
 4 10 l 1
 4 8 l 1
 4 6 l 1
 4 4 l 1
 4 2 l 1
 4 0 l 1033
2 14 m 17
 2 12 l 1
 2 10 l 1
 2 8 l 1
 2 6 l 1
 2 4 l 1
 2 2 l 1
 2 0 l 1033
0 2 m 25
 12 2 l 1049

StartChar: .notdef
Encoding: 0 -1 0
Width: 12
VWidth: 16
GlyphClass: 1
Flags: W
LayerCount: 3
Fore
SplineSet
1.056640625 0 m 1,0,-1
 1.056640625 21.3125 l 1,1,-1
 9.568359375 21.3125 l 1,2,-1
 9.568359375 0 l 1,3,-1
 1.056640625 0 l 1,0,-1
2.12890625 1.056640625 m 1,4,-1
 8.49609375 1.056640625 l 1,5,-1
 8.49609375 20.255859375 l 1,6,-1
 2.12890625 20.255859375 l 1,7,-1
 2.12890625 1.056640625 l 1,4,-1
EndSplineSet
Validated: 524289
EndChar

StartChar: exclam
Encoding: 2 33 2
Width: 12
VWidth: 16
GlyphClass: 2
Flags: W
LayerCount: 3
Fore
SplineSet
4 0 m 1,0,-1
 4 2 l 1,1,-1
 6 2 l 1,2,-1
 6 0 l 1,3,-1
 4 0 l 1,0,-1
4 4 m 1,4,-1
 4 6 l 1,5,-1
 4 8 l 1,6,-1
 4 10 l 1,7,-1
 4 12 l 1,8,-1
 4 14 l 1,9,-1
 6 14 l 1,10,-1
 6 12 l 1,11,-1
 6 10 l 1,12,-1
 6 8 l 1,13,-1
 6 6 l 1,14,-1
 6 4 l 1,15,-1
 4 4 l 1,4,-1
EndSplineSet
Validated: 1
EndChar

StartChar: quotedbl
Encoding: 3 34 3
Width: 12
VWidth: 16
GlyphClass: 2
Flags: W
LayerCount: 3
Fore
SplineSet
6 10 m 1,0,-1
 6 12 l 1,1,-1
 6 14 l 1,2,-1
 8 14 l 1,3,-1
 8 12 l 1,4,-1
 8 10 l 1,5,-1
 6 10 l 1,0,-1
2 10 m 1,6,-1
 2 12 l 1,7,-1
 2 14 l 1,8,-1
 4 14 l 1,9,-1
 4 12 l 1,10,-1
 4 10 l 1,11,-1
 2 10 l 1,6,-1
EndSplineSet
Validated: 1
EndChar

StartChar: numbersign
Encoding: 4 35 4
Width: 12
VWidth: 16
GlyphClass: 2
Flags: W
LayerCount: 3
Fore
SplineSet
6 0 m 1,0,-1
 6 2 l 1,1,-1
 6 4 l 1,2,-1
 4 4 l 1,3,-1
 4 2 l 1,4,-1
 4 0 l 1,5,-1
 2 0 l 1,6,-1
 2 2 l 1,7,-1
 2 4 l 1,8,-1
 0 4 l 1,9,-1
 0 6 l 1,10,-1
 2 6 l 1,11,-1
 2 8 l 1,12,-1
 0 8 l 1,13,-1
 0 10 l 1,14,-1
 2 10 l 1,15,-1
 2 12 l 1,16,-1
 2 14 l 1,17,-1
 4 14 l 1,18,-1
 4 12 l 1,19,-1
 4 10 l 1,20,-1
 6 10 l 1,21,-1
 6 12 l 1,22,-1
 6 14 l 1,23,-1
 8 14 l 1,24,-1
 8 12 l 1,25,-1
 8 10 l 1,26,-1
 10 10 l 1,27,-1
 10 8 l 1,28,-1
 8 8 l 1,29,-1
 8 6 l 1,30,-1
 10 6 l 1,31,-1
 10 4 l 1,32,-1
 8 4 l 1,33,-1
 8 2 l 1,34,-1
 8 0 l 1,35,-1
 6 0 l 1,0,-1
6 6 m 1,36,-1
 6 8 l 1,37,-1
 4 8 l 1,38,-1
 4 6 l 1,39,-1
 6 6 l 1,36,-1
EndSplineSet
Validated: 1
EndChar

StartChar: dollar
Encoding: 5 36 5
Width: 12
VWidth: 16
GlyphClass: 2
Flags: W
LayerCount: 3
Fore
SplineSet
4 0 m 1,0,-1
 4 2 l 1,1,-1
 2 2 l 1,2,-1
 0 2 l 1,3,-1
 0 4 l 1,4,-1
 2 4 l 1,5,-1
 4 4 l 1,6,-1
 6 4 l 1,7,-1
 8 4 l 1,8,-1
 8 2 l 1,9,-1
 6 2 l 1,10,-1
 6 0 l 1,11,-1
 4 0 l 1,0,-1
8 4 m 1,12,-1
 8 6 l 1,13,-1
 10 6 l 1,14,-1
 10 4 l 1,15,-1
 8 4 l 1,12,-1
8 6 m 1,16,-1
 6 6 l 1,17,-1
 4 6 l 1,18,-1
 2 6 l 1,19,-1
 2 8 l 1,20,-1
 4 8 l 1,21,-1
 6 8 l 1,22,-1
 8 8 l 1,23,-1
 8 6 l 1,16,-1
2 8 m 1,24,-1
 0 8 l 1,25,-1
 0 10 l 1,26,-1
 2 10 l 1,27,-1
 2 8 l 1,24,-1
8 12 m 1,28,-1
 10 12 l 1,29,-1
 10 10 l 1,30,-1
 8 10 l 1,31,-1
 6 10 l 1,32,-1
 4 10 l 1,33,-1
 2 10 l 1,34,-1
 2 12 l 1,35,-1
 4 12 l 1,36,-1
 4 14 l 1,37,-1
 6 14 l 1,38,-1
 6 12 l 1,39,-1
 8 12 l 1,28,-1
EndSplineSet
Validated: 5
EndChar

StartChar: percent
Encoding: 6 37 6
Width: 12
VWidth: 16
GlyphClass: 2
Flags: W
LayerCount: 3
Fore
SplineSet
8 0 m 1,0,-1
 8 2 l 1,1,-1
 8 4 l 1,2,-1
 10 4 l 1,3,-1
 10 2 l 1,4,-1
 10 0 l 1,5,-1
 8 0 l 1,0,-1
0 0 m 1,6,-1
 0 2 l 1,7,-1
 2 2 l 1,8,-1
 2 0 l 1,9,-1
 0 0 l 1,6,-1
0 10 m 1,10,-1
 0 12 l 1,11,-1
 0 14 l 1,12,-1
 2 14 l 1,13,-1
 2 12 l 1,14,-1
 2 10 l 1,15,-1
 0 10 l 1,10,-1
2 2 m 1,16,-1
 2 4 l 1,17,-1
 2 6 l 1,18,-1
 4 6 l 1,19,-1
 4 4 l 1,20,-1
 4 2 l 1,21,-1
 2 2 l 1,16,-1
4 6 m 1,22,-1
 4 8 l 1,23,-1
 6 8 l 1,24,-1
 6 6 l 1,25,-1
 4 6 l 1,22,-1
6 8 m 1,26,-1
 6 10 l 1,27,-1
 6 12 l 1,28,-1
 8 12 l 1,29,-1
 8 10 l 1,30,-1
 8 8 l 1,31,-1
 6 8 l 1,26,-1
8 12 m 1,32,-1
 8 14 l 1,33,-1
 10 14 l 1,34,-1
 10 12 l 1,35,-1
 8 12 l 1,32,-1
EndSplineSet
Validated: 5
EndChar

StartChar: ampersand
Encoding: 7 38 7
Width: 12
VWidth: 16
GlyphClass: 2
Flags: W
LayerCount: 3
Fore
SplineSet
8 0 m 1,0,-1
 8 2 l 1,1,-1
 10 2 l 1,2,-1
 10 0 l 1,3,-1
 8 0 l 1,0,-1
4 2 m 1,4,-1
 6 2 l 1,5,-1
 6 0 l 1,6,-1
 4 0 l 1,7,-1
 2 0 l 1,8,-1
 2 2 l 1,9,-1
 4 2 l 1,4,-1
8 2 m 1,10,-1
 6 2 l 1,11,-1
 6 4 l 1,12,-1
 4 4 l 1,13,-1
 4 6 l 1,14,-1
 2 6 l 1,15,-1
 2 4 l 1,16,-1
 2 2 l 1,17,-1
 0 2 l 1,18,-1
 0 4 l 1,19,-1
 0 6 l 1,20,-1
 2 6 l 1,21,-1
 2 8 l 1,22,-1
 4 8 l 1,23,-1
 4 10 l 1,24,-1
 6 10 l 1,25,-1
 6 8 l 1,26,-1
 6 6 l 1,27,-1
 8 6 l 1,28,-1
 8 4 l 1,29,-1
 8 2 l 1,10,-1
8 6 m 1,30,-1
 8 8 l 1,31,-1
 10 8 l 1,32,-1
 10 6 l 1,33,-1
 8 6 l 1,30,-1
6 10 m 1,34,-1
 6 12 l 1,35,-1
 8 12 l 1,36,-1
 8 10 l 1,37,-1
 6 10 l 1,34,-1
4 10 m 1,38,-1
 2 10 l 1,39,-1
 2 12 l 1,40,-1
 4 12 l 1,41,-1
 4 10 l 1,38,-1
6 12 m 1,42,-1
 4 12 l 1,43,-1
 4 14 l 1,44,-1
 6 14 l 1,45,-1
 6 12 l 1,42,-1
EndSplineSet
Validated: 5
EndChar

StartChar: quotesingle
Encoding: 8 39 8
Width: 12
VWidth: 16
GlyphClass: 2
Flags: W
LayerCount: 3
Fore
SplineSet
2 10 m 1,0,-1
 2 12 l 1,1,-1
 2 14 l 1,2,-1
 4 14 l 1,3,-1
 4 12 l 1,4,-1
 4 10 l 1,5,-1
 2 10 l 1,0,-1
EndSplineSet
Validated: 1
EndChar

StartChar: parenleft
Encoding: 9 40 9
Width: 12
VWidth: 16
GlyphClass: 2
Flags: W
LayerCount: 3
Fore
SplineSet
6 0 m 1,0,-1
 6 2 l 1,1,-1
 8 2 l 1,2,-1
 8 0 l 1,3,-1
 6 0 l 1,0,-1
6 2 m 1,4,-1
 4 2 l 1,5,-1
 4 4 l 1,6,-1
 6 4 l 1,7,-1
 6 2 l 1,4,-1
4 4 m 1,8,-1
 2 4 l 1,9,-1
 2 6 l 1,10,-1
 2 8 l 1,11,-1
 2 10 l 1,12,-1
 4 10 l 1,13,-1
 4 8 l 1,14,-1
 4 6 l 1,15,-1
 4 4 l 1,8,-1
4 10 m 1,16,-1
 4 12 l 1,17,-1
 6 12 l 1,18,-1
 6 10 l 1,19,-1
 4 10 l 1,16,-1
6 12 m 1,20,-1
 6 14 l 1,21,-1
 8 14 l 1,22,-1
 8 12 l 1,23,-1
 6 12 l 1,20,-1
EndSplineSet
Validated: 5
EndChar

StartChar: parenright
Encoding: 10 41 10
Width: 12
VWidth: 16
GlyphClass: 2
Flags: W
LayerCount: 3
Fore
SplineSet
2 0 m 1,0,-1
 2 2 l 1,1,-1
 4 2 l 1,2,-1
 4 0 l 1,3,-1
 2 0 l 1,0,-1
4 2 m 1,4,-1
 4 4 l 1,5,-1
 6 4 l 1,6,-1
 6 2 l 1,7,-1
 4 2 l 1,4,-1
6 4 m 1,8,-1
 6 6 l 1,9,-1
 6 8 l 1,10,-1
 6 10 l 1,11,-1
 8 10 l 1,12,-1
 8 8 l 1,13,-1
 8 6 l 1,14,-1
 8 4 l 1,15,-1
 6 4 l 1,8,-1
6 10 m 1,16,-1
 4 10 l 1,17,-1
 4 12 l 1,18,-1
 6 12 l 1,19,-1
 6 10 l 1,16,-1
4 12 m 1,20,-1
 2 12 l 1,21,-1
 2 14 l 1,22,-1
 4 14 l 1,23,-1
 4 12 l 1,20,-1
EndSplineSet
Validated: 5
EndChar

StartChar: asterisk
Encoding: 11 42 11
Width: 12
VWidth: 16
GlyphClass: 2
Flags: W
LayerCount: 3
Fore
SplineSet
6 8 m 1,0,-1
 6 10 l 1,1,-1
 8 10 l 1,2,-1
 8 8 l 1,3,-1
 6 8 l 1,0,-1
2 8 m 1,4,-1
 2 10 l 1,5,-1
 4 10 l 1,6,-1
 4 8 l 1,7,-1
 2 8 l 1,4,-1
6 10 m 1,8,-1
 4 10 l 1,9,-1
 4 12 l 1,10,-1
 6 12 l 1,11,-1
 6 10 l 1,8,-1
6 12 m 1,12,-1
 6 14 l 1,13,-1
 8 14 l 1,14,-1
 8 12 l 1,15,-1
 6 12 l 1,12,-1
4 12 m 1,16,-1
 2 12 l 1,17,-1
 2 14 l 1,18,-1
 4 14 l 1,19,-1
 4 12 l 1,16,-1
EndSplineSet
Validated: 5
EndChar

StartChar: plus
Encoding: 12 43 12
Width: 12
VWidth: 16
GlyphClass: 2
Flags: W
LayerCount: 3
Fore
SplineSet
4 2 m 1,0,-1
 4 4 l 1,1,-1
 4 6 l 1,2,-1
 2 6 l 1,3,-1
 0 6 l 1,4,-1
 0 8 l 1,5,-1
 2 8 l 1,6,-1
 4 8 l 1,7,-1
 4 10 l 1,8,-1
 4 12 l 1,9,-1
 6 12 l 1,10,-1
 6 10 l 1,11,-1
 6 8 l 1,12,-1
 8 8 l 1,13,-1
 10 8 l 1,14,-1
 10 6 l 1,15,-1
 8 6 l 1,16,-1
 6 6 l 1,17,-1
 6 4 l 1,18,-1
 6 2 l 1,19,-1
 4 2 l 1,0,-1
EndSplineSet
Validated: 1
EndChar

StartChar: comma
Encoding: 13 44 13
Width: 12
VWidth: 16
GlyphClass: 2
Flags: W
LayerCount: 3
Fore
SplineSet
2 -2 m 1,0,-1
 2 0 l 1,1,-1
 4 0 l 1,2,-1
 4 -2 l 1,3,-1
 2 -2 l 1,0,-1
4 0 m 1,4,-1
 4 2 l 1,5,-1
 6 2 l 1,6,-1
 6 0 l 1,7,-1
 4 0 l 1,4,-1
EndSplineSet
Validated: 5
EndChar

StartChar: hyphen
Encoding: 14 45 14
Width: 12
VWidth: 16
GlyphClass: 2
Flags: W
LayerCount: 3
Fore
SplineSet
8 8 m 1,0,-1
 10 8 l 1,1,-1
 10 6 l 1,2,-1
 8 6 l 1,3,-1
 6 6 l 1,4,-1
 4 6 l 1,5,-1
 2 6 l 1,6,-1
 0 6 l 1,7,-1
 0 8 l 1,8,-1
 2 8 l 1,9,-1
 4 8 l 1,10,-1
 6 8 l 1,11,-1
 8 8 l 1,0,-1
EndSplineSet
Validated: 1
EndChar

StartChar: period
Encoding: 15 46 15
Width: 12
VWidth: 16
GlyphClass: 2
Flags: W
LayerCount: 3
Fore
SplineSet
4 0 m 1,0,-1
 4 2 l 1,1,-1
 6 2 l 1,2,-1
 6 0 l 1,3,-1
 4 0 l 1,0,-1
EndSplineSet
Validated: 1
EndChar

StartChar: slash
Encoding: 16 47 16
Width: 12
VWidth: 16
GlyphClass: 2
Flags: W
LayerCount: 3
Fore
SplineSet
0 0 m 1,0,-1
 0 2 l 1,1,-1
 2 2 l 1,2,-1
 2 0 l 1,3,-1
 0 0 l 1,0,-1
2 2 m 1,4,-1
 2 4 l 1,5,-1
 2 6 l 1,6,-1
 4 6 l 1,7,-1
 4 4 l 1,8,-1
 4 2 l 1,9,-1
 2 2 l 1,4,-1
4 6 m 1,10,-1
 4 8 l 1,11,-1
 6 8 l 1,12,-1
 6 6 l 1,13,-1
 4 6 l 1,10,-1
6 8 m 1,14,-1
 6 10 l 1,15,-1
 6 12 l 1,16,-1
 8 12 l 1,17,-1
 8 10 l 1,18,-1
 8 8 l 1,19,-1
 6 8 l 1,14,-1
8 12 m 1,20,-1
 8 14 l 1,21,-1
 10 14 l 1,22,-1
 10 12 l 1,23,-1
 8 12 l 1,20,-1
EndSplineSet
Validated: 5
EndChar

StartChar: zero
Encoding: 17 48 17
Width: 12
VWidth: 16
GlyphClass: 2
Flags: W
LayerCount: 3
Fore
SplineSet
6 2 m 1,0,-1
 8 2 l 1,1,-1
 8 0 l 1,2,-1
 6 0 l 1,3,-1
 4 0 l 1,4,-1
 2 0 l 1,5,-1
 2 2 l 1,6,-1
 4 2 l 1,7,-1
 6 2 l 1,0,-1
8 2 m 1,8,-1
 8 4 l 1,9,-1
 8 6 l 1,10,-1
 8 8 l 1,11,-1
 6 8 l 1,12,-1
 6 6 l 1,13,-1
 4 6 l 1,14,-1
 4 4 l 1,15,-1
 2 4 l 1,16,-1
 2 2 l 1,17,-1
 0 2 l 1,18,-1
 0 4 l 1,19,-1
 0 6 l 1,20,-1
 0 8 l 1,21,-1
 0 10 l 1,22,-1
 0 12 l 1,23,-1
 2 12 l 1,24,-1
 2 10 l 1,25,-1
 2 8 l 1,26,-1
 2 6 l 1,27,-1
 4 6 l 1,28,-1
 4 8 l 1,29,-1
 6 8 l 1,30,-1
 6 10 l 1,31,-1
 8 10 l 1,32,-1
 8 12 l 1,33,-1
 10 12 l 1,34,-1
 10 10 l 1,35,-1
 10 8 l 1,36,-1
 10 6 l 1,37,-1
 10 4 l 1,38,-1
 10 2 l 1,39,-1
 8 2 l 1,8,-1
8 12 m 1,40,-1
 6 12 l 1,41,-1
 4 12 l 1,42,-1
 2 12 l 1,43,-1
 2 14 l 1,44,-1
 4 14 l 1,45,-1
 6 14 l 1,46,-1
 8 14 l 1,47,-1
 8 12 l 1,40,-1
EndSplineSet
Validated: 5
EndChar

StartChar: one
Encoding: 18 49 18
Width: 12
VWidth: 16
GlyphClass: 2
Flags: W
LayerCount: 3
Fore
SplineSet
8 2 m 1,0,-1
 10 2 l 1,1,-1
 10 0 l 1,2,-1
 8 0 l 1,3,-1
 6 0 l 1,4,-1
 4 0 l 1,5,-1
 2 0 l 1,6,-1
 0 0 l 1,7,-1
 0 2 l 1,8,-1
 2 2 l 1,9,-1
 4 2 l 1,10,-1
 4 4 l 1,11,-1
 4 6 l 1,12,-1
 4 8 l 1,13,-1
 4 10 l 1,14,-1
 2 10 l 1,15,-1
 2 12 l 1,16,-1
 4 12 l 1,17,-1
 4 14 l 1,18,-1
 6 14 l 1,19,-1
 6 12 l 1,20,-1
 6 10 l 1,21,-1
 6 8 l 1,22,-1
 6 6 l 1,23,-1
 6 4 l 1,24,-1
 6 2 l 1,25,-1
 8 2 l 1,0,-1
EndSplineSet
Validated: 1
EndChar

StartChar: two
Encoding: 19 50 19
Width: 12
VWidth: 16
GlyphClass: 2
Flags: W
LayerCount: 3
Fore
SplineSet
0 10 m 1,0,-1
 0 12 l 1,1,-1
 2 12 l 1,2,-1
 2 10 l 1,3,-1
 0 10 l 1,0,-1
8 0 m 1,4,-1
 6 0 l 1,5,-1
 4 0 l 1,6,-1
 2 0 l 1,7,-1
 0 0 l 1,8,-1
 0 2 l 1,9,-1
 0 4 l 1,10,-1
 2 4 l 1,11,-1
 2 2 l 1,12,-1
 4 2 l 1,13,-1
 6 2 l 1,14,-1
 8 2 l 1,15,-1
 8 4 l 1,16,-1
 10 4 l 1,17,-1
 10 2 l 1,18,-1
 10 0 l 1,19,-1
 8 0 l 1,4,-1
2 4 m 1,20,-1
 2 6 l 1,21,-1
 4 6 l 1,22,-1
 4 4 l 1,23,-1
 2 4 l 1,20,-1
6 8 m 1,24,-1
 8 8 l 1,25,-1
 8 6 l 1,26,-1
 6 6 l 1,27,-1
 4 6 l 1,28,-1
 4 8 l 1,29,-1
 6 8 l 1,24,-1
8 8 m 1,30,-1
 8 10 l 1,31,-1
 8 12 l 1,32,-1
 10 12 l 1,33,-1
 10 10 l 1,34,-1
 10 8 l 1,35,-1
 8 8 l 1,30,-1
8 12 m 1,36,-1
 6 12 l 1,37,-1
 4 12 l 1,38,-1
 2 12 l 1,39,-1
 2 14 l 1,40,-1
 4 14 l 1,41,-1
 6 14 l 1,42,-1
 8 14 l 1,43,-1
 8 12 l 1,36,-1
EndSplineSet
Validated: 5
EndChar

StartChar: three
Encoding: 20 51 20
Width: 12
VWidth: 16
GlyphClass: 2
Flags: W
LayerCount: 3
Fore
SplineSet
0 10 m 1,0,-1
 0 12 l 1,1,-1
 2 12 l 1,2,-1
 2 10 l 1,3,-1
 0 10 l 1,0,-1
6 2 m 1,4,-1
 8 2 l 1,5,-1
 8 0 l 1,6,-1
 6 0 l 1,7,-1
 4 0 l 1,8,-1
 2 0 l 1,9,-1
 2 2 l 1,10,-1
 4 2 l 1,11,-1
 6 2 l 1,4,-1
8 2 m 1,12,-1
 8 4 l 1,13,-1
 8 6 l 1,14,-1
 10 6 l 1,15,-1
 10 4 l 1,16,-1
 10 2 l 1,17,-1
 8 2 l 1,12,-1
2 2 m 1,18,-1
 0 2 l 1,19,-1
 0 4 l 1,20,-1
 2 4 l 1,21,-1
 2 2 l 1,18,-1
8 6 m 1,22,-1
 6 6 l 1,23,-1
 4 6 l 1,24,-1
 4 8 l 1,25,-1
 6 8 l 1,26,-1
 8 8 l 1,27,-1
 8 6 l 1,22,-1
8 8 m 1,28,-1
 8 10 l 1,29,-1
 8 12 l 1,30,-1
 10 12 l 1,31,-1
 10 10 l 1,32,-1
 10 8 l 1,33,-1
 8 8 l 1,28,-1
8 12 m 1,34,-1
 6 12 l 1,35,-1
 4 12 l 1,36,-1
 2 12 l 1,37,-1
 2 14 l 1,38,-1
 4 14 l 1,39,-1
 6 14 l 1,40,-1
 8 14 l 1,41,-1
 8 12 l 1,34,-1
EndSplineSet
Validated: 5
EndChar

StartChar: four
Encoding: 21 52 21
Width: 12
VWidth: 16
GlyphClass: 2
Flags: W
LayerCount: 3
Fore
SplineSet
8 0 m 1,0,-1
 8 2 l 1,1,-1
 8 4 l 1,2,-1
 6 4 l 1,3,-1
 4 4 l 1,4,-1
 2 4 l 1,5,-1
 0 4 l 1,6,-1
 0 6 l 1,7,-1
 0 8 l 1,8,-1
 2 8 l 1,9,-1
 2 10 l 1,10,-1
 4 10 l 1,11,-1
 4 12 l 1,12,-1
 6 12 l 1,13,-1
 6 14 l 1,14,-1
 8 14 l 1,15,-1
 10 14 l 1,16,-1
 10 12 l 1,17,-1
 10 10 l 1,18,-1
 10 8 l 1,19,-1
 10 6 l 1,20,-1
 10 4 l 1,21,-1
 10 2 l 1,22,-1
 10 0 l 1,23,-1
 8 0 l 1,0,-1
6 6 m 1,24,-1
 8 6 l 1,25,-1
 8 8 l 1,26,-1
 8 10 l 1,27,-1
 8 12 l 1,28,-1
 6 12 l 1,29,-1
 6 10 l 1,30,-1
 4 10 l 1,31,-1
 4 8 l 1,32,-1
 2 8 l 1,33,-1
 2 6 l 1,34,-1
 4 6 l 1,35,-1
 6 6 l 1,24,-1
EndSplineSet
Validated: 5
EndChar

StartChar: five
Encoding: 22 53 22
Width: 12
VWidth: 16
GlyphClass: 2
Flags: W
LayerCount: 3
Fore
SplineSet
6 2 m 1,0,-1
 8 2 l 1,1,-1
 8 0 l 1,2,-1
 6 0 l 1,3,-1
 4 0 l 1,4,-1
 2 0 l 1,5,-1
 2 2 l 1,6,-1
 4 2 l 1,7,-1
 6 2 l 1,0,-1
8 2 m 1,8,-1
 8 4 l 1,9,-1
 8 6 l 1,10,-1
 8 8 l 1,11,-1
 10 8 l 1,12,-1
 10 6 l 1,13,-1
 10 4 l 1,14,-1
 10 2 l 1,15,-1
 8 2 l 1,8,-1
2 2 m 1,16,-1
 0 2 l 1,17,-1
 0 4 l 1,18,-1
 2 4 l 1,19,-1
 2 2 l 1,16,-1
8 8 m 1,20,-1
 6 8 l 1,21,-1
 4 8 l 1,22,-1
 2 8 l 1,23,-1
 0 8 l 1,24,-1
 0 10 l 1,25,-1
 0 12 l 1,26,-1
 0 14 l 1,27,-1
 2 14 l 1,28,-1
 4 14 l 1,29,-1
 6 14 l 1,30,-1
 8 14 l 1,31,-1
 10 14 l 1,32,-1
 10 12 l 1,33,-1
 8 12 l 1,34,-1
 6 12 l 1,35,-1
 4 12 l 1,36,-1
 2 12 l 1,37,-1
 2 10 l 1,38,-1
 4 10 l 1,39,-1
 6 10 l 1,40,-1
 8 10 l 1,41,-1
 8 8 l 1,20,-1
EndSplineSet
Validated: 5
EndChar

StartChar: six
Encoding: 23 54 23
Width: 12
VWidth: 16
GlyphClass: 2
Flags: W
LayerCount: 3
Fore
SplineSet
6 2 m 1,0,-1
 8 2 l 1,1,-1
 8 0 l 1,2,-1
 6 0 l 1,3,-1
 4 0 l 1,4,-1
 2 0 l 1,5,-1
 2 2 l 1,6,-1
 4 2 l 1,7,-1
 6 2 l 1,0,-1
8 2 m 1,8,-1
 8 4 l 1,9,-1
 8 6 l 1,10,-1
 10 6 l 1,11,-1
 10 4 l 1,12,-1
 10 2 l 1,13,-1
 8 2 l 1,8,-1
2 2 m 1,14,-1
 0 2 l 1,15,-1
 0 4 l 1,16,-1
 0 6 l 1,17,-1
 0 8 l 1,18,-1
 0 10 l 1,19,-1
 2 10 l 1,20,-1
 2 8 l 1,21,-1
 4 8 l 1,22,-1
 6 8 l 1,23,-1
 8 8 l 1,24,-1
 8 6 l 1,25,-1
 6 6 l 1,26,-1
 4 6 l 1,27,-1
 2 6 l 1,28,-1
 2 4 l 1,29,-1
 2 2 l 1,14,-1
2 10 m 1,30,-1
 2 12 l 1,31,-1
 4 12 l 1,32,-1
 4 10 l 1,33,-1
 2 10 l 1,30,-1
6 14 m 1,34,-1
 8 14 l 1,35,-1
 8 12 l 1,36,-1
 6 12 l 1,37,-1
 4 12 l 1,38,-1
 4 14 l 1,39,-1
 6 14 l 1,34,-1
EndSplineSet
Validated: 5
EndChar

StartChar: seven
Encoding: 24 55 24
Width: 12
VWidth: 16
GlyphClass: 2
Flags: W
LayerCount: 3
Fore
SplineSet
4 0 m 1,0,-1
 4 2 l 1,1,-1
 4 4 l 1,2,-1
 4 6 l 1,3,-1
 6 6 l 1,4,-1
 6 4 l 1,5,-1
 6 2 l 1,6,-1
 6 0 l 1,7,-1
 4 0 l 1,0,-1
0 10 m 1,8,-1
 0 12 l 1,9,-1
 0 14 l 1,10,-1
 2 14 l 1,11,-1
 4 14 l 1,12,-1
 6 14 l 1,13,-1
 8 14 l 1,14,-1
 10 14 l 1,15,-1
 10 12 l 1,16,-1
 10 10 l 1,17,-1
 10 8 l 1,18,-1
 8 8 l 1,19,-1
 8 6 l 1,20,-1
 6 6 l 1,21,-1
 6 8 l 1,22,-1
 8 8 l 1,23,-1
 8 10 l 1,24,-1
 8 12 l 1,25,-1
 6 12 l 1,26,-1
 4 12 l 1,27,-1
 2 12 l 1,28,-1
 2 10 l 1,29,-1
 0 10 l 1,8,-1
EndSplineSet
Validated: 5
EndChar

StartChar: eight
Encoding: 25 56 25
Width: 12
VWidth: 16
GlyphClass: 2
Flags: W
LayerCount: 3
Fore
SplineSet
6 2 m 1,0,-1
 8 2 l 1,1,-1
 8 0 l 1,2,-1
 6 0 l 1,3,-1
 4 0 l 1,4,-1
 2 0 l 1,5,-1
 2 2 l 1,6,-1
 4 2 l 1,7,-1
 6 2 l 1,0,-1
8 2 m 1,8,-1
 8 4 l 1,9,-1
 8 6 l 1,10,-1
 10 6 l 1,11,-1
 10 4 l 1,12,-1
 10 2 l 1,13,-1
 8 2 l 1,8,-1
2 2 m 1,14,-1
 0 2 l 1,15,-1
 0 4 l 1,16,-1
 0 6 l 1,17,-1
 2 6 l 1,18,-1
 2 4 l 1,19,-1
 2 2 l 1,14,-1
8 6 m 1,20,-1
 6 6 l 1,21,-1
 4 6 l 1,22,-1
 2 6 l 1,23,-1
 2 8 l 1,24,-1
 4 8 l 1,25,-1
 6 8 l 1,26,-1
 8 8 l 1,27,-1
 8 6 l 1,20,-1
8 8 m 1,28,-1
 8 10 l 1,29,-1
 8 12 l 1,30,-1
 10 12 l 1,31,-1
 10 10 l 1,32,-1
 10 8 l 1,33,-1
 8 8 l 1,28,-1
2 8 m 1,34,-1
 0 8 l 1,35,-1
 0 10 l 1,36,-1
 0 12 l 1,37,-1
 2 12 l 1,38,-1
 2 10 l 1,39,-1
 2 8 l 1,34,-1
8 12 m 1,40,-1
 6 12 l 1,41,-1
 4 12 l 1,42,-1
 2 12 l 1,43,-1
 2 14 l 1,44,-1
 4 14 l 1,45,-1
 6 14 l 1,46,-1
 8 14 l 1,47,-1
 8 12 l 1,40,-1
EndSplineSet
Validated: 5
EndChar

StartChar: nine
Encoding: 26 57 26
Width: 12
VWidth: 16
GlyphClass: 2
Flags: W
LayerCount: 3
Fore
SplineSet
4 2 m 1,0,-1
 6 2 l 1,1,-1
 6 0 l 1,2,-1
 4 0 l 1,3,-1
 2 0 l 1,4,-1
 2 2 l 1,5,-1
 4 2 l 1,0,-1
6 2 m 1,6,-1
 6 4 l 1,7,-1
 8 4 l 1,8,-1
 8 2 l 1,9,-1
 6 2 l 1,6,-1
8 4 m 1,10,-1
 8 6 l 1,11,-1
 6 6 l 1,12,-1
 4 6 l 1,13,-1
 2 6 l 1,14,-1
 2 8 l 1,15,-1
 4 8 l 1,16,-1
 6 8 l 1,17,-1
 8 8 l 1,18,-1
 8 10 l 1,19,-1
 8 12 l 1,20,-1
 10 12 l 1,21,-1
 10 10 l 1,22,-1
 10 8 l 1,23,-1
 10 6 l 1,24,-1
 10 4 l 1,25,-1
 8 4 l 1,10,-1
2 8 m 1,26,-1
 0 8 l 1,27,-1
 0 10 l 1,28,-1
 0 12 l 1,29,-1
 2 12 l 1,30,-1
 2 10 l 1,31,-1
 2 8 l 1,26,-1
8 12 m 1,32,-1
 6 12 l 1,33,-1
 4 12 l 1,34,-1
 2 12 l 1,35,-1
 2 14 l 1,36,-1
 4 14 l 1,37,-1
 6 14 l 1,38,-1
 8 14 l 1,39,-1
 8 12 l 1,32,-1
EndSplineSet
Validated: 5
EndChar

StartChar: colon
Encoding: 27 58 27
Width: 12
VWidth: 16
GlyphClass: 2
Flags: W
LayerCount: 3
Fore
SplineSet
4 0 m 1,0,-1
 4 2 l 1,1,-1
 6 2 l 1,2,-1
 6 0 l 1,3,-1
 4 0 l 1,0,-1
4 8 m 1,4,-1
 4 10 l 1,5,-1
 6 10 l 1,6,-1
 6 8 l 1,7,-1
 4 8 l 1,4,-1
EndSplineSet
Validated: 1
EndChar

StartChar: semicolon
Encoding: 28 59 28
Width: 12
VWidth: 16
GlyphClass: 2
Flags: W
LayerCount: 3
Fore
SplineSet
0 -2 m 1,0,-1
 0 0 l 1,1,-1
 2 0 l 1,2,-1
 2 -2 l 1,3,-1
 0 -2 l 1,0,-1
2 8 m 1,4,-1
 2 10 l 1,5,-1
 4 10 l 1,6,-1
 4 8 l 1,7,-1
 2 8 l 1,4,-1
2 0 m 1,8,-1
 2 2 l 1,9,-1
 4 2 l 1,10,-1
 4 0 l 1,11,-1
 2 0 l 1,8,-1
EndSplineSet
Validated: 5
EndChar

StartChar: less
Encoding: 29 60 29
Width: 12
VWidth: 16
GlyphClass: 2
Flags: W
LayerCount: 3
Fore
SplineSet
6 0 m 1,0,-1
 6 2 l 1,1,-1
 8 2 l 1,2,-1
 8 0 l 1,3,-1
 6 0 l 1,0,-1
6 2 m 1,4,-1
 4 2 l 1,5,-1
 4 4 l 1,6,-1
 6 4 l 1,7,-1
 6 2 l 1,4,-1
4 4 m 1,8,-1
 2 4 l 1,9,-1
 2 6 l 1,10,-1
 4 6 l 1,11,-1
 4 4 l 1,8,-1
2 6 m 1,12,-1
 0 6 l 1,13,-1
 0 8 l 1,14,-1
 2 8 l 1,15,-1
 2 6 l 1,12,-1
2 8 m 1,16,-1
 2 10 l 1,17,-1
 4 10 l 1,18,-1
 4 8 l 1,19,-1
 2 8 l 1,16,-1
4 10 m 1,20,-1
 4 12 l 1,21,-1
 6 12 l 1,22,-1
 6 10 l 1,23,-1
 4 10 l 1,20,-1
6 12 m 1,24,-1
 6 14 l 1,25,-1
 8 14 l 1,26,-1
 8 12 l 1,27,-1
 6 12 l 1,24,-1
EndSplineSet
Validated: 5
EndChar

StartChar: equal
Encoding: 30 61 30
Width: 12
VWidth: 16
GlyphClass: 2
Flags: W
LayerCount: 3
Fore
SplineSet
8 4 m 1,0,-1
 10 4 l 1,1,-1
 10 2 l 1,2,-1
 8 2 l 1,3,-1
 6 2 l 1,4,-1
 4 2 l 1,5,-1
 2 2 l 1,6,-1
 0 2 l 1,7,-1
 0 4 l 1,8,-1
 2 4 l 1,9,-1
 4 4 l 1,10,-1
 6 4 l 1,11,-1
 8 4 l 1,0,-1
8 10 m 1,12,-1
 10 10 l 1,13,-1
 10 8 l 1,14,-1
 8 8 l 1,15,-1
 6 8 l 1,16,-1
 4 8 l 1,17,-1
 2 8 l 1,18,-1
 0 8 l 1,19,-1
 0 10 l 1,20,-1
 2 10 l 1,21,-1
 4 10 l 1,22,-1
 6 10 l 1,23,-1
 8 10 l 1,12,-1
EndSplineSet
Validated: 1
EndChar

StartChar: greater
Encoding: 31 62 31
Width: 12
VWidth: 16
GlyphClass: 2
Flags: W
LayerCount: 3
Fore
SplineSet
2 0 m 1,0,-1
 2 2 l 1,1,-1
 4 2 l 1,2,-1
 4 0 l 1,3,-1
 2 0 l 1,0,-1
4 2 m 1,4,-1
 4 4 l 1,5,-1
 6 4 l 1,6,-1
 6 2 l 1,7,-1
 4 2 l 1,4,-1
6 4 m 1,8,-1
 6 6 l 1,9,-1
 8 6 l 1,10,-1
 8 4 l 1,11,-1
 6 4 l 1,8,-1
8 6 m 1,12,-1
 8 8 l 1,13,-1
 10 8 l 1,14,-1
 10 6 l 1,15,-1
 8 6 l 1,12,-1
8 8 m 1,16,-1
 6 8 l 1,17,-1
 6 10 l 1,18,-1
 8 10 l 1,19,-1
 8 8 l 1,16,-1
6 10 m 1,20,-1
 4 10 l 1,21,-1
 4 12 l 1,22,-1
 6 12 l 1,23,-1
 6 10 l 1,20,-1
4 12 m 1,24,-1
 2 12 l 1,25,-1
 2 14 l 1,26,-1
 4 14 l 1,27,-1
 4 12 l 1,24,-1
EndSplineSet
Validated: 5
EndChar

StartChar: question
Encoding: 32 63 32
Width: 12
VWidth: 16
GlyphClass: 2
Flags: W
LayerCount: 3
Fore
SplineSet
4 0 m 1,0,-1
 4 2 l 1,1,-1
 6 2 l 1,2,-1
 6 0 l 1,3,-1
 4 0 l 1,0,-1
4 4 m 1,4,-1
 4 6 l 1,5,-1
 6 6 l 1,6,-1
 6 4 l 1,7,-1
 4 4 l 1,4,-1
0 10 m 1,8,-1
 0 12 l 1,9,-1
 2 12 l 1,10,-1
 2 10 l 1,11,-1
 0 10 l 1,8,-1
6 6 m 1,12,-1
 6 8 l 1,13,-1
 8 8 l 1,14,-1
 8 6 l 1,15,-1
 6 6 l 1,12,-1
8 8 m 1,16,-1
 8 10 l 1,17,-1
 8 12 l 1,18,-1
 10 12 l 1,19,-1
 10 10 l 1,20,-1
 10 8 l 1,21,-1
 8 8 l 1,16,-1
8 12 m 1,22,-1
 6 12 l 1,23,-1
 4 12 l 1,24,-1
 2 12 l 1,25,-1
 2 14 l 1,26,-1
 4 14 l 1,27,-1
 6 14 l 1,28,-1
 8 14 l 1,29,-1
 8 12 l 1,22,-1
EndSplineSet
Validated: 5
EndChar

StartChar: at
Encoding: 33 64 33
Width: 12
VWidth: 16
GlyphClass: 2
Flags: W
LayerCount: 3
Fore
SplineSet
8 0 m 1,0,-1
 10 0 l 1,1,-1
 10 -2 l 1,2,-1
 8 -2 l 1,3,-1
 6 -2 l 1,4,-1
 4 -2 l 1,5,-1
 2 -2 l 1,6,-1
 2 0 l 1,7,-1
 4 0 l 1,8,-1
 6 0 l 1,9,-1
 8 0 l 1,0,-1
2 0 m 1,10,-1
 0 0 l 1,11,-1
 0 2 l 1,12,-1
 0 4 l 1,13,-1
 0 6 l 1,14,-1
 0 8 l 1,15,-1
 0 10 l 1,16,-1
 2 10 l 1,17,-1
 2 8 l 1,18,-1
 2 6 l 1,19,-1
 2 4 l 1,20,-1
 2 2 l 1,21,-1
 2 0 l 1,10,-1
8 2 m 1,22,-1
 6 2 l 1,23,-1
 4 2 l 1,24,-1
 4 4 l 1,25,-1
 4 6 l 1,26,-1
 4 8 l 1,27,-1
 6 8 l 1,28,-1
 6 6 l 1,29,-1
 6 4 l 1,30,-1
 8 4 l 1,31,-1
 8 6 l 1,32,-1
 8 8 l 1,33,-1
 8 10 l 1,34,-1
 10 10 l 1,35,-1
 10 8 l 1,36,-1
 10 6 l 1,37,-1
 10 4 l 1,38,-1
 10 2 l 1,39,-1
 8 2 l 1,22,-1
8 10 m 1,40,-1
 6 10 l 1,41,-1
 4 10 l 1,42,-1
 2 10 l 1,43,-1
 2 12 l 1,44,-1
 4 12 l 1,45,-1
 6 12 l 1,46,-1
 8 12 l 1,47,-1
 8 10 l 1,40,-1
EndSplineSet
Validated: 5
EndChar

StartChar: A
Encoding: 34 65 34
Width: 12
VWidth: 16
GlyphClass: 2
Flags: W
LayerCount: 3
Fore
SplineSet
8 0 m 1,0,-1
 8 2 l 1,1,-1
 8 4 l 1,2,-1
 8 6 l 1,3,-1
 8 8 l 1,4,-1
 6 8 l 1,5,-1
 4 8 l 1,6,-1
 2 8 l 1,7,-1
 2 6 l 1,8,-1
 2 4 l 1,9,-1
 2 2 l 1,10,-1
 2 0 l 1,11,-1
 0 0 l 1,12,-1
 0 2 l 1,13,-1
 0 4 l 1,14,-1
 0 6 l 1,15,-1
 0 8 l 1,16,-1
 0 10 l 1,17,-1
 0 12 l 1,18,-1
 2 12 l 1,19,-1
 2 10 l 1,20,-1
 4 10 l 1,21,-1
 6 10 l 1,22,-1
 8 10 l 1,23,-1
 8 12 l 1,24,-1
 10 12 l 1,25,-1
 10 10 l 1,26,-1
 10 8 l 1,27,-1
 10 6 l 1,28,-1
 10 4 l 1,29,-1
 10 2 l 1,30,-1
 10 0 l 1,31,-1
 8 0 l 1,0,-1
8 12 m 1,32,-1
 6 12 l 1,33,-1
 4 12 l 1,34,-1
 2 12 l 1,35,-1
 2 14 l 1,36,-1
 4 14 l 1,37,-1
 6 14 l 1,38,-1
 8 14 l 1,39,-1
 8 12 l 1,32,-1
EndSplineSet
Validated: 5
EndChar

StartChar: B
Encoding: 35 66 35
Width: 12
VWidth: 16
GlyphClass: 2
Flags: W
LayerCount: 3
Fore
SplineSet
6 2 m 1,0,-1
 8 2 l 1,1,-1
 8 4 l 1,2,-1
 8 6 l 1,3,-1
 8 8 l 1,4,-1
 6 8 l 1,5,-1
 4 8 l 1,6,-1
 2 8 l 1,7,-1
 2 6 l 1,8,-1
 2 4 l 1,9,-1
 2 2 l 1,10,-1
 4 2 l 1,11,-1
 6 2 l 1,0,-1
6 0 m 1,12,-1
 4 0 l 1,13,-1
 2 0 l 1,14,-1
 0 0 l 1,15,-1
 0 2 l 1,16,-1
 0 4 l 1,17,-1
 0 6 l 1,18,-1
 0 8 l 1,19,-1
 0 10 l 1,20,-1
 0 12 l 1,21,-1
 0 14 l 1,22,-1
 2 14 l 1,23,-1
 4 14 l 1,24,-1
 6 14 l 1,25,-1
 8 14 l 1,26,-1
 8 12 l 1,27,-1
 10 12 l 1,28,-1
 10 10 l 1,29,-1
 8 10 l 1,30,-1
 8 12 l 1,31,-1
 6 12 l 1,32,-1
 4 12 l 1,33,-1
 2 12 l 1,34,-1
 2 10 l 1,35,-1
 4 10 l 1,36,-1
 6 10 l 1,37,-1
 8 10 l 1,38,-1
 8 8 l 1,39,-1
 10 8 l 1,40,-1
 10 6 l 1,41,-1
 10 4 l 1,42,-1
 10 2 l 1,43,-1
 8 2 l 1,44,-1
 8 0 l 1,45,-1
 6 0 l 1,12,-1
EndSplineSet
Validated: 5
EndChar

StartChar: C
Encoding: 36 67 36
Width: 12
VWidth: 16
GlyphClass: 2
Flags: W
LayerCount: 3
Fore
SplineSet
8 10 m 1,0,-1
 8 12 l 1,1,-1
 10 12 l 1,2,-1
 10 10 l 1,3,-1
 8 10 l 1,0,-1
6 2 m 1,4,-1
 8 2 l 1,5,-1
 8 0 l 1,6,-1
 6 0 l 1,7,-1
 4 0 l 1,8,-1
 2 0 l 1,9,-1
 2 2 l 1,10,-1
 4 2 l 1,11,-1
 6 2 l 1,4,-1
8 2 m 1,12,-1
 8 4 l 1,13,-1
 10 4 l 1,14,-1
 10 2 l 1,15,-1
 8 2 l 1,12,-1
2 2 m 1,16,-1
 0 2 l 1,17,-1
 0 4 l 1,18,-1
 0 6 l 1,19,-1
 0 8 l 1,20,-1
 0 10 l 1,21,-1
 0 12 l 1,22,-1
 2 12 l 1,23,-1
 2 10 l 1,24,-1
 2 8 l 1,25,-1
 2 6 l 1,26,-1
 2 4 l 1,27,-1
 2 2 l 1,16,-1
8 12 m 1,28,-1
 6 12 l 1,29,-1
 4 12 l 1,30,-1
 2 12 l 1,31,-1
 2 14 l 1,32,-1
 4 14 l 1,33,-1
 6 14 l 1,34,-1
 8 14 l 1,35,-1
 8 12 l 1,28,-1
EndSplineSet
Validated: 5
EndChar

StartChar: D
Encoding: 37 68 37
Width: 12
VWidth: 16
GlyphClass: 2
Flags: W
LayerCount: 3
Fore
SplineSet
6 2 m 1,0,-1
 8 2 l 1,1,-1
 8 4 l 1,2,-1
 8 6 l 1,3,-1
 8 8 l 1,4,-1
 8 10 l 1,5,-1
 8 12 l 1,6,-1
 6 12 l 1,7,-1
 4 12 l 1,8,-1
 2 12 l 1,9,-1
 2 10 l 1,10,-1
 2 8 l 1,11,-1
 2 6 l 1,12,-1
 2 4 l 1,13,-1
 2 2 l 1,14,-1
 4 2 l 1,15,-1
 6 2 l 1,0,-1
6 0 m 1,16,-1
 4 0 l 1,17,-1
 2 0 l 1,18,-1
 0 0 l 1,19,-1
 0 2 l 1,20,-1
 0 4 l 1,21,-1
 0 6 l 1,22,-1
 0 8 l 1,23,-1
 0 10 l 1,24,-1
 0 12 l 1,25,-1
 0 14 l 1,26,-1
 2 14 l 1,27,-1
 4 14 l 1,28,-1
 6 14 l 1,29,-1
 8 14 l 1,30,-1
 8 12 l 1,31,-1
 10 12 l 1,32,-1
 10 10 l 1,33,-1
 10 8 l 1,34,-1
 10 6 l 1,35,-1
 10 4 l 1,36,-1
 10 2 l 1,37,-1
 8 2 l 1,38,-1
 8 0 l 1,39,-1
 6 0 l 1,16,-1
EndSplineSet
Validated: 5
EndChar

StartChar: E
Encoding: 38 69 38
Width: 12
VWidth: 16
GlyphClass: 2
Flags: W
LayerCount: 3
Fore
SplineSet
8 2 m 1,0,-1
 10 2 l 1,1,-1
 10 0 l 1,2,-1
 8 0 l 1,3,-1
 6 0 l 1,4,-1
 4 0 l 1,5,-1
 2 0 l 1,6,-1
 0 0 l 1,7,-1
 0 2 l 1,8,-1
 0 4 l 1,9,-1
 0 6 l 1,10,-1
 0 8 l 1,11,-1
 0 10 l 1,12,-1
 0 12 l 1,13,-1
 0 14 l 1,14,-1
 2 14 l 1,15,-1
 4 14 l 1,16,-1
 6 14 l 1,17,-1
 8 14 l 1,18,-1
 10 14 l 1,19,-1
 10 12 l 1,20,-1
 8 12 l 1,21,-1
 6 12 l 1,22,-1
 4 12 l 1,23,-1
 2 12 l 1,24,-1
 2 10 l 1,25,-1
 4 10 l 1,26,-1
 6 10 l 1,27,-1
 6 8 l 1,28,-1
 4 8 l 1,29,-1
 2 8 l 1,30,-1
 2 6 l 1,31,-1
 2 4 l 1,32,-1
 2 2 l 1,33,-1
 4 2 l 1,34,-1
 6 2 l 1,35,-1
 8 2 l 1,0,-1
EndSplineSet
Validated: 1
EndChar

StartChar: F
Encoding: 39 70 39
Width: 12
VWidth: 16
GlyphClass: 2
Flags: W
LayerCount: 3
Fore
SplineSet
0 0 m 1,0,-1
 0 2 l 1,1,-1
 0 4 l 1,2,-1
 0 6 l 1,3,-1
 0 8 l 1,4,-1
 0 10 l 1,5,-1
 0 12 l 1,6,-1
 0 14 l 1,7,-1
 2 14 l 1,8,-1
 4 14 l 1,9,-1
 6 14 l 1,10,-1
 8 14 l 1,11,-1
 10 14 l 1,12,-1
 10 12 l 1,13,-1
 8 12 l 1,14,-1
 6 12 l 1,15,-1
 4 12 l 1,16,-1
 2 12 l 1,17,-1
 2 10 l 1,18,-1
 4 10 l 1,19,-1
 6 10 l 1,20,-1
 6 8 l 1,21,-1
 4 8 l 1,22,-1
 2 8 l 1,23,-1
 2 6 l 1,24,-1
 2 4 l 1,25,-1
 2 2 l 1,26,-1
 2 0 l 1,27,-1
 0 0 l 1,0,-1
EndSplineSet
Validated: 1
EndChar

StartChar: G
Encoding: 40 71 40
Width: 12
VWidth: 16
GlyphClass: 2
Flags: W
LayerCount: 3
Fore
SplineSet
6 2 m 1,0,-1
 8 2 l 1,1,-1
 8 0 l 1,2,-1
 6 0 l 1,3,-1
 4 0 l 1,4,-1
 2 0 l 1,5,-1
 2 2 l 1,6,-1
 4 2 l 1,7,-1
 6 2 l 1,0,-1
8 2 m 1,8,-1
 8 4 l 1,9,-1
 8 6 l 1,10,-1
 8 8 l 1,11,-1
 6 8 l 1,12,-1
 6 10 l 1,13,-1
 8 10 l 1,14,-1
 10 10 l 1,15,-1
 10 8 l 1,16,-1
 10 6 l 1,17,-1
 10 4 l 1,18,-1
 10 2 l 1,19,-1
 8 2 l 1,8,-1
2 2 m 1,20,-1
 0 2 l 1,21,-1
 0 4 l 1,22,-1
 0 6 l 1,23,-1
 0 8 l 1,24,-1
 0 10 l 1,25,-1
 0 12 l 1,26,-1
 2 12 l 1,27,-1
 2 10 l 1,28,-1
 2 8 l 1,29,-1
 2 6 l 1,30,-1
 2 4 l 1,31,-1
 2 2 l 1,20,-1
8 14 m 1,32,-1
 10 14 l 1,33,-1
 10 12 l 1,34,-1
 8 12 l 1,35,-1
 6 12 l 1,36,-1
 4 12 l 1,37,-1
 2 12 l 1,38,-1
 2 14 l 1,39,-1
 4 14 l 1,40,-1
 6 14 l 1,41,-1
 8 14 l 1,32,-1
EndSplineSet
Validated: 5
EndChar

StartChar: H
Encoding: 41 72 41
Width: 12
VWidth: 16
GlyphClass: 2
Flags: W
LayerCount: 3
Fore
SplineSet
8 0 m 1,0,-1
 8 2 l 1,1,-1
 8 4 l 1,2,-1
 8 6 l 1,3,-1
 8 8 l 1,4,-1
 6 8 l 1,5,-1
 4 8 l 1,6,-1
 2 8 l 1,7,-1
 2 6 l 1,8,-1
 2 4 l 1,9,-1
 2 2 l 1,10,-1
 2 0 l 1,11,-1
 0 0 l 1,12,-1
 0 2 l 1,13,-1
 0 4 l 1,14,-1
 0 6 l 1,15,-1
 0 8 l 1,16,-1
 0 10 l 1,17,-1
 0 12 l 1,18,-1
 0 14 l 1,19,-1
 2 14 l 1,20,-1
 2 12 l 1,21,-1
 2 10 l 1,22,-1
 4 10 l 1,23,-1
 6 10 l 1,24,-1
 8 10 l 1,25,-1
 8 12 l 1,26,-1
 8 14 l 1,27,-1
 10 14 l 1,28,-1
 10 12 l 1,29,-1
 10 10 l 1,30,-1
 10 8 l 1,31,-1
 10 6 l 1,32,-1
 10 4 l 1,33,-1
 10 2 l 1,34,-1
 10 0 l 1,35,-1
 8 0 l 1,0,-1
EndSplineSet
Validated: 1
EndChar

StartChar: I
Encoding: 42 73 42
Width: 12
VWidth: 16
GlyphClass: 2
Flags: W
LayerCount: 3
Fore
SplineSet
6 0 m 1,0,-1
 4 0 l 1,1,-1
 2 0 l 1,2,-1
 2 2 l 1,3,-1
 4 2 l 1,4,-1
 4 4 l 1,5,-1
 4 6 l 1,6,-1
 4 8 l 1,7,-1
 4 10 l 1,8,-1
 4 12 l 1,9,-1
 2 12 l 1,10,-1
 2 14 l 1,11,-1
 4 14 l 1,12,-1
 6 14 l 1,13,-1
 8 14 l 1,14,-1
 8 12 l 1,15,-1
 6 12 l 1,16,-1
 6 10 l 1,17,-1
 6 8 l 1,18,-1
 6 6 l 1,19,-1
 6 4 l 1,20,-1
 6 2 l 1,21,-1
 8 2 l 1,22,-1
 8 0 l 1,23,-1
 6 0 l 1,0,-1
EndSplineSet
Validated: 1
EndChar

StartChar: J
Encoding: 43 74 43
Width: 12
VWidth: 16
GlyphClass: 2
Flags: W
LayerCount: 3
Fore
SplineSet
6 2 m 1,0,-1
 8 2 l 1,1,-1
 8 0 l 1,2,-1
 6 0 l 1,3,-1
 4 0 l 1,4,-1
 2 0 l 1,5,-1
 2 2 l 1,6,-1
 4 2 l 1,7,-1
 6 2 l 1,0,-1
8 2 m 1,8,-1
 8 4 l 1,9,-1
 8 6 l 1,10,-1
 8 8 l 1,11,-1
 8 10 l 1,12,-1
 8 12 l 1,13,-1
 8 14 l 1,14,-1
 10 14 l 1,15,-1
 10 12 l 1,16,-1
 10 10 l 1,17,-1
 10 8 l 1,18,-1
 10 6 l 1,19,-1
 10 4 l 1,20,-1
 10 2 l 1,21,-1
 8 2 l 1,8,-1
2 2 m 1,22,-1
 0 2 l 1,23,-1
 0 4 l 1,24,-1
 2 4 l 1,25,-1
 2 2 l 1,22,-1
EndSplineSet
Validated: 5
EndChar

StartChar: K
Encoding: 44 75 44
Width: 12
VWidth: 16
GlyphClass: 2
Flags: W
LayerCount: 3
Fore
SplineSet
8 0 m 1,0,-1
 8 2 l 1,1,-1
 8 4 l 1,2,-1
 8 6 l 1,3,-1
 10 6 l 1,4,-1
 10 4 l 1,5,-1
 10 2 l 1,6,-1
 10 0 l 1,7,-1
 8 0 l 1,0,-1
0 0 m 1,8,-1
 0 2 l 1,9,-1
 0 4 l 1,10,-1
 0 6 l 1,11,-1
 0 8 l 1,12,-1
 0 10 l 1,13,-1
 0 12 l 1,14,-1
 0 14 l 1,15,-1
 2 14 l 1,16,-1
 2 12 l 1,17,-1
 2 10 l 1,18,-1
 4 10 l 1,19,-1
 6 10 l 1,20,-1
 6 8 l 1,21,-1
 8 8 l 1,22,-1
 8 6 l 1,23,-1
 6 6 l 1,24,-1
 6 8 l 1,25,-1
 4 8 l 1,26,-1
 2 8 l 1,27,-1
 2 6 l 1,28,-1
 2 4 l 1,29,-1
 2 2 l 1,30,-1
 2 0 l 1,31,-1
 0 0 l 1,8,-1
6 10 m 1,32,-1
 6 12 l 1,33,-1
 8 12 l 1,34,-1
 8 10 l 1,35,-1
 6 10 l 1,32,-1
8 12 m 1,36,-1
 8 14 l 1,37,-1
 10 14 l 1,38,-1
 10 12 l 1,39,-1
 8 12 l 1,36,-1
EndSplineSet
Validated: 5
EndChar

StartChar: L
Encoding: 45 76 45
Width: 12
VWidth: 16
GlyphClass: 2
Flags: W
LayerCount: 3
Fore
SplineSet
8 2 m 1,0,-1
 10 2 l 1,1,-1
 10 0 l 1,2,-1
 8 0 l 1,3,-1
 6 0 l 1,4,-1
 4 0 l 1,5,-1
 2 0 l 1,6,-1
 0 0 l 1,7,-1
 0 2 l 1,8,-1
 0 4 l 1,9,-1
 0 6 l 1,10,-1
 0 8 l 1,11,-1
 0 10 l 1,12,-1
 0 12 l 1,13,-1
 0 14 l 1,14,-1
 2 14 l 1,15,-1
 2 12 l 1,16,-1
 2 10 l 1,17,-1
 2 8 l 1,18,-1
 2 6 l 1,19,-1
 2 4 l 1,20,-1
 2 2 l 1,21,-1
 4 2 l 1,22,-1
 6 2 l 1,23,-1
 8 2 l 1,0,-1
EndSplineSet
Validated: 1
EndChar

StartChar: M
Encoding: 46 77 46
Width: 12
VWidth: 16
GlyphClass: 2
Flags: W
LayerCount: 3
Fore
SplineSet
8 0 m 1,0,-1
 8 2 l 1,1,-1
 8 4 l 1,2,-1
 8 6 l 1,3,-1
 8 8 l 1,4,-1
 8 10 l 1,5,-1
 6 10 l 1,6,-1
 6 8 l 1,7,-1
 4 8 l 1,8,-1
 4 10 l 1,9,-1
 6 10 l 1,10,-1
 6 12 l 1,11,-1
 8 12 l 1,12,-1
 8 14 l 1,13,-1
 10 14 l 1,14,-1
 10 12 l 1,15,-1
 10 10 l 1,16,-1
 10 8 l 1,17,-1
 10 6 l 1,18,-1
 10 4 l 1,19,-1
 10 2 l 1,20,-1
 10 0 l 1,21,-1
 8 0 l 1,0,-1
0 0 m 1,22,-1
 0 2 l 1,23,-1
 0 4 l 1,24,-1
 0 6 l 1,25,-1
 0 8 l 1,26,-1
 0 10 l 1,27,-1
 0 12 l 1,28,-1
 0 14 l 1,29,-1
 2 14 l 1,30,-1
 2 12 l 1,31,-1
 4 12 l 1,32,-1
 4 10 l 1,33,-1
 2 10 l 1,34,-1
 2 8 l 1,35,-1
 2 6 l 1,36,-1
 2 4 l 1,37,-1
 2 2 l 1,38,-1
 2 0 l 1,39,-1
 0 0 l 1,22,-1
EndSplineSet
Validated: 5
EndChar

StartChar: N
Encoding: 47 78 47
Width: 12
VWidth: 16
GlyphClass: 2
Flags: W
LayerCount: 3
Fore
SplineSet
8 0 m 1,0,-1
 8 2 l 1,1,-1
 8 4 l 1,2,-1
 8 6 l 1,3,-1
 6 6 l 1,4,-1
 6 8 l 1,5,-1
 8 8 l 1,6,-1
 8 10 l 1,7,-1
 8 12 l 1,8,-1
 8 14 l 1,9,-1
 10 14 l 1,10,-1
 10 12 l 1,11,-1
 10 10 l 1,12,-1
 10 8 l 1,13,-1
 10 6 l 1,14,-1
 10 4 l 1,15,-1
 10 2 l 1,16,-1
 10 0 l 1,17,-1
 8 0 l 1,0,-1
0 0 m 1,18,-1
 0 2 l 1,19,-1
 0 4 l 1,20,-1
 0 6 l 1,21,-1
 0 8 l 1,22,-1
 0 10 l 1,23,-1
 0 12 l 1,24,-1
 0 14 l 1,25,-1
 2 14 l 1,26,-1
 2 12 l 1,27,-1
 4 12 l 1,28,-1
 4 10 l 1,29,-1
 6 10 l 1,30,-1
 6 8 l 1,31,-1
 4 8 l 1,32,-1
 4 10 l 1,33,-1
 2 10 l 1,34,-1
 2 8 l 1,35,-1
 2 6 l 1,36,-1
 2 4 l 1,37,-1
 2 2 l 1,38,-1
 2 0 l 1,39,-1
 0 0 l 1,18,-1
EndSplineSet
Validated: 5
EndChar

StartChar: O
Encoding: 48 79 48
Width: 12
VWidth: 16
GlyphClass: 2
Flags: W
LayerCount: 3
Fore
SplineSet
6 2 m 1,0,-1
 8 2 l 1,1,-1
 8 0 l 1,2,-1
 6 0 l 1,3,-1
 4 0 l 1,4,-1
 2 0 l 1,5,-1
 2 2 l 1,6,-1
 4 2 l 1,7,-1
 6 2 l 1,0,-1
8 2 m 1,8,-1
 8 4 l 1,9,-1
 8 6 l 1,10,-1
 8 8 l 1,11,-1
 8 10 l 1,12,-1
 8 12 l 1,13,-1
 10 12 l 1,14,-1
 10 10 l 1,15,-1
 10 8 l 1,16,-1
 10 6 l 1,17,-1
 10 4 l 1,18,-1
 10 2 l 1,19,-1
 8 2 l 1,8,-1
2 2 m 1,20,-1
 0 2 l 1,21,-1
 0 4 l 1,22,-1
 0 6 l 1,23,-1
 0 8 l 1,24,-1
 0 10 l 1,25,-1
 0 12 l 1,26,-1
 2 12 l 1,27,-1
 2 10 l 1,28,-1
 2 8 l 1,29,-1
 2 6 l 1,30,-1
 2 4 l 1,31,-1
 2 2 l 1,20,-1
8 12 m 1,32,-1
 6 12 l 1,33,-1
 4 12 l 1,34,-1
 2 12 l 1,35,-1
 2 14 l 1,36,-1
 4 14 l 1,37,-1
 6 14 l 1,38,-1
 8 14 l 1,39,-1
 8 12 l 1,32,-1
EndSplineSet
Validated: 5
EndChar

StartChar: P
Encoding: 49 80 49
Width: 12
VWidth: 16
GlyphClass: 2
Flags: W
LayerCount: 3
Fore
SplineSet
0 0 m 1,0,-1
 0 2 l 1,1,-1
 0 4 l 1,2,-1
 0 6 l 1,3,-1
 0 8 l 1,4,-1
 0 10 l 1,5,-1
 0 12 l 1,6,-1
 0 14 l 1,7,-1
 2 14 l 1,8,-1
 4 14 l 1,9,-1
 6 14 l 1,10,-1
 8 14 l 1,11,-1
 8 12 l 1,12,-1
 10 12 l 1,13,-1
 10 10 l 1,14,-1
 8 10 l 1,15,-1
 8 12 l 1,16,-1
 6 12 l 1,17,-1
 4 12 l 1,18,-1
 2 12 l 1,19,-1
 2 10 l 1,20,-1
 4 10 l 1,21,-1
 6 10 l 1,22,-1
 8 10 l 1,23,-1
 8 8 l 1,24,-1
 6 8 l 1,25,-1
 4 8 l 1,26,-1
 2 8 l 1,27,-1
 2 6 l 1,28,-1
 2 4 l 1,29,-1
 2 2 l 1,30,-1
 2 0 l 1,31,-1
 0 0 l 1,0,-1
EndSplineSet
Validated: 5
EndChar

StartChar: Q
Encoding: 50 81 50
Width: 12
VWidth: 16
GlyphClass: 2
Flags: W
LayerCount: 3
Fore
SplineSet
8 0 m 1,0,-1
 8 2 l 1,1,-1
 10 2 l 1,2,-1
 10 0 l 1,3,-1
 8 0 l 1,0,-1
4 2 m 1,4,-1
 6 2 l 1,5,-1
 6 0 l 1,6,-1
 4 0 l 1,7,-1
 2 0 l 1,8,-1
 2 2 l 1,9,-1
 4 2 l 1,4,-1
8 2 m 1,10,-1
 6 2 l 1,11,-1
 6 4 l 1,12,-1
 8 4 l 1,13,-1
 8 2 l 1,10,-1
2 2 m 1,14,-1
 0 2 l 1,15,-1
 0 4 l 1,16,-1
 0 6 l 1,17,-1
 0 8 l 1,18,-1
 0 10 l 1,19,-1
 0 12 l 1,20,-1
 2 12 l 1,21,-1
 2 10 l 1,22,-1
 2 8 l 1,23,-1
 2 6 l 1,24,-1
 2 4 l 1,25,-1
 2 2 l 1,14,-1
8 4 m 1,26,-1
 8 6 l 1,27,-1
 8 8 l 1,28,-1
 8 10 l 1,29,-1
 8 12 l 1,30,-1
 10 12 l 1,31,-1
 10 10 l 1,32,-1
 10 8 l 1,33,-1
 10 6 l 1,34,-1
 10 4 l 1,35,-1
 8 4 l 1,26,-1
8 12 m 1,36,-1
 6 12 l 1,37,-1
 4 12 l 1,38,-1
 2 12 l 1,39,-1
 2 14 l 1,40,-1
 4 14 l 1,41,-1
 6 14 l 1,42,-1
 8 14 l 1,43,-1
 8 12 l 1,36,-1
EndSplineSet
Validated: 5
EndChar

StartChar: R
Encoding: 51 82 51
Width: 12
VWidth: 16
GlyphClass: 2
Flags: W
LayerCount: 3
Fore
SplineSet
8 0 m 1,0,-1
 8 2 l 1,1,-1
 8 4 l 1,2,-1
 8 6 l 1,3,-1
 8 8 l 1,4,-1
 10 8 l 1,5,-1
 10 6 l 1,6,-1
 10 4 l 1,7,-1
 10 2 l 1,8,-1
 10 0 l 1,9,-1
 8 0 l 1,0,-1
0 0 m 1,10,-1
 0 2 l 1,11,-1
 0 4 l 1,12,-1
 0 6 l 1,13,-1
 0 8 l 1,14,-1
 0 10 l 1,15,-1
 0 12 l 1,16,-1
 0 14 l 1,17,-1
 2 14 l 1,18,-1
 4 14 l 1,19,-1
 6 14 l 1,20,-1
 8 14 l 1,21,-1
 8 12 l 1,22,-1
 10 12 l 1,23,-1
 10 10 l 1,24,-1
 8 10 l 1,25,-1
 8 12 l 1,26,-1
 6 12 l 1,27,-1
 4 12 l 1,28,-1
 2 12 l 1,29,-1
 2 10 l 1,30,-1
 4 10 l 1,31,-1
 6 10 l 1,32,-1
 8 10 l 1,33,-1
 8 8 l 1,34,-1
 6 8 l 1,35,-1
 4 8 l 1,36,-1
 2 8 l 1,37,-1
 2 6 l 1,38,-1
 2 4 l 1,39,-1
 2 2 l 1,40,-1
 2 0 l 1,41,-1
 0 0 l 1,10,-1
EndSplineSet
Validated: 5
EndChar

StartChar: S
Encoding: 52 83 52
Width: 12
VWidth: 16
GlyphClass: 2
Flags: W
LayerCount: 3
Fore
SplineSet
6 2 m 1,0,-1
 8 2 l 1,1,-1
 8 0 l 1,2,-1
 6 0 l 1,3,-1
 4 0 l 1,4,-1
 2 0 l 1,5,-1
 2 2 l 1,6,-1
 4 2 l 1,7,-1
 6 2 l 1,0,-1
8 2 m 1,8,-1
 8 4 l 1,9,-1
 8 6 l 1,10,-1
 8 8 l 1,11,-1
 10 8 l 1,12,-1
 10 6 l 1,13,-1
 10 4 l 1,14,-1
 10 2 l 1,15,-1
 8 2 l 1,8,-1
2 2 m 1,16,-1
 0 2 l 1,17,-1
 0 4 l 1,18,-1
 2 4 l 1,19,-1
 2 2 l 1,16,-1
8 8 m 1,20,-1
 6 8 l 1,21,-1
 4 8 l 1,22,-1
 2 8 l 1,23,-1
 2 10 l 1,24,-1
 4 10 l 1,25,-1
 6 10 l 1,26,-1
 8 10 l 1,27,-1
 8 8 l 1,20,-1
2 10 m 1,28,-1
 0 10 l 1,29,-1
 0 12 l 1,30,-1
 2 12 l 1,31,-1
 2 10 l 1,28,-1
8 14 m 1,32,-1
 10 14 l 1,33,-1
 10 12 l 1,34,-1
 8 12 l 1,35,-1
 6 12 l 1,36,-1
 4 12 l 1,37,-1
 2 12 l 1,38,-1
 2 14 l 1,39,-1
 4 14 l 1,40,-1
 6 14 l 1,41,-1
 8 14 l 1,32,-1
EndSplineSet
Validated: 5
EndChar

StartChar: T
Encoding: 53 84 53
Width: 12
VWidth: 16
GlyphClass: 2
Flags: W
LayerCount: 3
Fore
SplineSet
4 0 m 1,0,-1
 4 2 l 1,1,-1
 4 4 l 1,2,-1
 4 6 l 1,3,-1
 4 8 l 1,4,-1
 4 10 l 1,5,-1
 4 12 l 1,6,-1
 2 12 l 1,7,-1
 0 12 l 1,8,-1
 0 14 l 1,9,-1
 2 14 l 1,10,-1
 4 14 l 1,11,-1
 6 14 l 1,12,-1
 8 14 l 1,13,-1
 10 14 l 1,14,-1
 10 12 l 1,15,-1
 8 12 l 1,16,-1
 6 12 l 1,17,-1
 6 10 l 1,18,-1
 6 8 l 1,19,-1
 6 6 l 1,20,-1
 6 4 l 1,21,-1
 6 2 l 1,22,-1
 6 0 l 1,23,-1
 4 0 l 1,0,-1
EndSplineSet
Validated: 1
EndChar

StartChar: U
Encoding: 54 85 54
Width: 12
VWidth: 16
GlyphClass: 2
Flags: W
LayerCount: 3
Fore
SplineSet
6 2 m 1,0,-1
 8 2 l 1,1,-1
 8 0 l 1,2,-1
 6 0 l 1,3,-1
 4 0 l 1,4,-1
 2 0 l 1,5,-1
 2 2 l 1,6,-1
 4 2 l 1,7,-1
 6 2 l 1,0,-1
8 2 m 1,8,-1
 8 4 l 1,9,-1
 8 6 l 1,10,-1
 8 8 l 1,11,-1
 8 10 l 1,12,-1
 8 12 l 1,13,-1
 8 14 l 1,14,-1
 10 14 l 1,15,-1
 10 12 l 1,16,-1
 10 10 l 1,17,-1
 10 8 l 1,18,-1
 10 6 l 1,19,-1
 10 4 l 1,20,-1
 10 2 l 1,21,-1
 8 2 l 1,8,-1
2 2 m 1,22,-1
 0 2 l 1,23,-1
 0 4 l 1,24,-1
 0 6 l 1,25,-1
 0 8 l 1,26,-1
 0 10 l 1,27,-1
 0 12 l 1,28,-1
 0 14 l 1,29,-1
 2 14 l 1,30,-1
 2 12 l 1,31,-1
 2 10 l 1,32,-1
 2 8 l 1,33,-1
 2 6 l 1,34,-1
 2 4 l 1,35,-1
 2 2 l 1,22,-1
EndSplineSet
Validated: 5
EndChar

StartChar: V
Encoding: 55 86 55
Width: 12
VWidth: 16
GlyphClass: 2
Flags: W
LayerCount: 3
Fore
SplineSet
4 0 m 1,0,-1
 4 2 l 1,1,-1
 6 2 l 1,2,-1
 6 0 l 1,3,-1
 4 0 l 1,0,-1
6 2 m 1,4,-1
 6 4 l 1,5,-1
 6 6 l 1,6,-1
 8 6 l 1,7,-1
 8 4 l 1,8,-1
 8 2 l 1,9,-1
 6 2 l 1,4,-1
4 2 m 1,10,-1
 2 2 l 1,11,-1
 2 4 l 1,12,-1
 2 6 l 1,13,-1
 4 6 l 1,14,-1
 4 4 l 1,15,-1
 4 2 l 1,10,-1
8 6 m 1,16,-1
 8 8 l 1,17,-1
 8 10 l 1,18,-1
 8 12 l 1,19,-1
 8 14 l 1,20,-1
 10 14 l 1,21,-1
 10 12 l 1,22,-1
 10 10 l 1,23,-1
 10 8 l 1,24,-1
 10 6 l 1,25,-1
 8 6 l 1,16,-1
2 6 m 1,26,-1
 0 6 l 1,27,-1
 0 8 l 1,28,-1
 0 10 l 1,29,-1
 0 12 l 1,30,-1
 0 14 l 1,31,-1
 2 14 l 1,32,-1
 2 12 l 1,33,-1
 2 10 l 1,34,-1
 2 8 l 1,35,-1
 2 6 l 1,26,-1
EndSplineSet
Validated: 5
EndChar

StartChar: W
Encoding: 56 87 56
Width: 12
VWidth: 16
GlyphClass: 2
Flags: W
LayerCount: 3
Fore
SplineSet
8 0 m 1,0,-1
 8 2 l 1,1,-1
 6 2 l 1,2,-1
 6 4 l 1,3,-1
 8 4 l 1,4,-1
 8 6 l 1,5,-1
 8 8 l 1,6,-1
 8 10 l 1,7,-1
 8 12 l 1,8,-1
 8 14 l 1,9,-1
 10 14 l 1,10,-1
 10 12 l 1,11,-1
 10 10 l 1,12,-1
 10 8 l 1,13,-1
 10 6 l 1,14,-1
 10 4 l 1,15,-1
 10 2 l 1,16,-1
 10 0 l 1,17,-1
 8 0 l 1,0,-1
0 0 m 1,18,-1
 0 2 l 1,19,-1
 0 4 l 1,20,-1
 0 6 l 1,21,-1
 0 8 l 1,22,-1
 0 10 l 1,23,-1
 0 12 l 1,24,-1
 0 14 l 1,25,-1
 2 14 l 1,26,-1
 2 12 l 1,27,-1
 2 10 l 1,28,-1
 2 8 l 1,29,-1
 2 6 l 1,30,-1
 2 4 l 1,31,-1
 4 4 l 1,32,-1
 4 2 l 1,33,-1
 2 2 l 1,34,-1
 2 0 l 1,35,-1
 0 0 l 1,18,-1
6 4 m 1,36,-1
 4 4 l 1,37,-1
 4 6 l 1,38,-1
 6 6 l 1,39,-1
 6 4 l 1,36,-1
EndSplineSet
Validated: 5
EndChar

StartChar: X
Encoding: 57 88 57
Width: 12
VWidth: 16
GlyphClass: 2
Flags: W
LayerCount: 3
Fore
SplineSet
8 0 m 1,0,-1
 8 2 l 1,1,-1
 8 4 l 1,2,-1
 8 6 l 1,3,-1
 10 6 l 1,4,-1
 10 4 l 1,5,-1
 10 2 l 1,6,-1
 10 0 l 1,7,-1
 8 0 l 1,0,-1
0 0 m 1,8,-1
 0 2 l 1,9,-1
 0 4 l 1,10,-1
 0 6 l 1,11,-1
 2 6 l 1,12,-1
 2 4 l 1,13,-1
 2 2 l 1,14,-1
 2 0 l 1,15,-1
 0 0 l 1,8,-1
8 6 m 1,16,-1
 6 6 l 1,17,-1
 6 8 l 1,18,-1
 8 8 l 1,19,-1
 8 6 l 1,16,-1
2 6 m 1,20,-1
 2 8 l 1,21,-1
 4 8 l 1,22,-1
 4 6 l 1,23,-1
 2 6 l 1,20,-1
6 8 m 1,24,-1
 4 8 l 1,25,-1
 4 10 l 1,26,-1
 6 10 l 1,27,-1
 6 8 l 1,24,-1
6 10 m 1,28,-1
 6 12 l 1,29,-1
 8 12 l 1,30,-1
 8 10 l 1,31,-1
 6 10 l 1,28,-1
4 10 m 1,32,-1
 2 10 l 1,33,-1
 2 12 l 1,34,-1
 4 12 l 1,35,-1
 4 10 l 1,32,-1
8 12 m 1,36,-1
 8 14 l 1,37,-1
 10 14 l 1,38,-1
 10 12 l 1,39,-1
 8 12 l 1,36,-1
2 12 m 1,40,-1
 0 12 l 1,41,-1
 0 14 l 1,42,-1
 2 14 l 1,43,-1
 2 12 l 1,40,-1
EndSplineSet
Validated: 5
EndChar

StartChar: Y
Encoding: 58 89 58
Width: 12
VWidth: 16
GlyphClass: 2
Flags: W
LayerCount: 3
Fore
SplineSet
4 0 m 1,0,-1
 4 2 l 1,1,-1
 4 4 l 1,2,-1
 4 6 l 1,3,-1
 4 8 l 1,4,-1
 4 10 l 1,5,-1
 6 10 l 1,6,-1
 6 8 l 1,7,-1
 6 6 l 1,8,-1
 6 4 l 1,9,-1
 6 2 l 1,10,-1
 6 0 l 1,11,-1
 4 0 l 1,0,-1
6 10 m 1,12,-1
 6 12 l 1,13,-1
 8 12 l 1,14,-1
 8 10 l 1,15,-1
 6 10 l 1,12,-1
4 10 m 1,16,-1
 2 10 l 1,17,-1
 2 12 l 1,18,-1
 4 12 l 1,19,-1
 4 10 l 1,16,-1
8 12 m 1,20,-1
 8 14 l 1,21,-1
 10 14 l 1,22,-1
 10 12 l 1,23,-1
 8 12 l 1,20,-1
2 12 m 1,24,-1
 0 12 l 1,25,-1
 0 14 l 1,26,-1
 2 14 l 1,27,-1
 2 12 l 1,24,-1
EndSplineSet
Validated: 5
EndChar

StartChar: Z
Encoding: 59 90 59
Width: 12
VWidth: 16
GlyphClass: 2
Flags: W
LayerCount: 3
Fore
SplineSet
8 2 m 1,0,-1
 10 2 l 1,1,-1
 10 0 l 1,2,-1
 8 0 l 1,3,-1
 6 0 l 1,4,-1
 4 0 l 1,5,-1
 2 0 l 1,6,-1
 0 0 l 1,7,-1
 0 2 l 1,8,-1
 0 4 l 1,9,-1
 2 4 l 1,10,-1
 2 2 l 1,11,-1
 4 2 l 1,12,-1
 6 2 l 1,13,-1
 8 2 l 1,0,-1
2 4 m 1,14,-1
 2 6 l 1,15,-1
 4 6 l 1,16,-1
 4 4 l 1,17,-1
 2 4 l 1,14,-1
4 6 m 1,18,-1
 4 8 l 1,19,-1
 6 8 l 1,20,-1
 6 6 l 1,21,-1
 4 6 l 1,18,-1
6 8 m 1,22,-1
 6 10 l 1,23,-1
 8 10 l 1,24,-1
 8 8 l 1,25,-1
 6 8 l 1,22,-1
8 10 m 1,26,-1
 8 12 l 1,27,-1
 6 12 l 1,28,-1
 4 12 l 1,29,-1
 2 12 l 1,30,-1
 0 12 l 1,31,-1
 0 14 l 1,32,-1
 2 14 l 1,33,-1
 4 14 l 1,34,-1
 6 14 l 1,35,-1
 8 14 l 1,36,-1
 10 14 l 1,37,-1
 10 12 l 1,38,-1
 10 10 l 1,39,-1
 8 10 l 1,26,-1
EndSplineSet
Validated: 5
EndChar

StartChar: bracketleft
Encoding: 60 91 60
Width: 12
VWidth: 16
GlyphClass: 2
Flags: W
LayerCount: 3
Fore
SplineSet
6 2 m 1,0,-1
 8 2 l 1,1,-1
 8 0 l 1,2,-1
 6 0 l 1,3,-1
 4 0 l 1,4,-1
 2 0 l 1,5,-1
 2 2 l 1,6,-1
 2 4 l 1,7,-1
 2 6 l 1,8,-1
 2 8 l 1,9,-1
 2 10 l 1,10,-1
 2 12 l 1,11,-1
 2 14 l 1,12,-1
 4 14 l 1,13,-1
 6 14 l 1,14,-1
 8 14 l 1,15,-1
 8 12 l 1,16,-1
 6 12 l 1,17,-1
 4 12 l 1,18,-1
 4 10 l 1,19,-1
 4 8 l 1,20,-1
 4 6 l 1,21,-1
 4 4 l 1,22,-1
 4 2 l 1,23,-1
 6 2 l 1,0,-1
EndSplineSet
Validated: 1
EndChar

StartChar: backslash
Encoding: 61 92 61
Width: 12
VWidth: 16
GlyphClass: 2
Flags: W
LayerCount: 3
Fore
SplineSet
8 0 m 1,0,-1
 8 2 l 1,1,-1
 10 2 l 1,2,-1
 10 0 l 1,3,-1
 8 0 l 1,0,-1
8 2 m 1,4,-1
 6 2 l 1,5,-1
 6 4 l 1,6,-1
 6 6 l 1,7,-1
 8 6 l 1,8,-1
 8 4 l 1,9,-1
 8 2 l 1,4,-1
6 6 m 1,10,-1
 4 6 l 1,11,-1
 4 8 l 1,12,-1
 6 8 l 1,13,-1
 6 6 l 1,10,-1
4 8 m 1,14,-1
 2 8 l 1,15,-1
 2 10 l 1,16,-1
 2 12 l 1,17,-1
 4 12 l 1,18,-1
 4 10 l 1,19,-1
 4 8 l 1,14,-1
2 12 m 1,20,-1
 0 12 l 1,21,-1
 0 14 l 1,22,-1
 2 14 l 1,23,-1
 2 12 l 1,20,-1
EndSplineSet
Validated: 5
EndChar

StartChar: bracketright
Encoding: 62 93 62
Width: 12
VWidth: 16
GlyphClass: 2
Flags: W
LayerCount: 3
Fore
SplineSet
6 0 m 1,0,-1
 4 0 l 1,1,-1
 2 0 l 1,2,-1
 2 2 l 1,3,-1
 4 2 l 1,4,-1
 6 2 l 1,5,-1
 6 4 l 1,6,-1
 6 6 l 1,7,-1
 6 8 l 1,8,-1
 6 10 l 1,9,-1
 6 12 l 1,10,-1
 4 12 l 1,11,-1
 2 12 l 1,12,-1
 2 14 l 1,13,-1
 4 14 l 1,14,-1
 6 14 l 1,15,-1
 8 14 l 1,16,-1
 8 12 l 1,17,-1
 8 10 l 1,18,-1
 8 8 l 1,19,-1
 8 6 l 1,20,-1
 8 4 l 1,21,-1
 8 2 l 1,22,-1
 8 0 l 1,23,-1
 6 0 l 1,0,-1
EndSplineSet
Validated: 1
EndChar

StartChar: asciicircum
Encoding: 63 94 63
Width: 12
VWidth: 16
GlyphClass: 2
Flags: W
LayerCount: 3
Fore
SplineSet
8 8 m 1,0,-1
 8 10 l 1,1,-1
 10 10 l 1,2,-1
 10 8 l 1,3,-1
 8 8 l 1,0,-1
0 8 m 1,4,-1
 0 10 l 1,5,-1
 2 10 l 1,6,-1
 2 8 l 1,7,-1
 0 8 l 1,4,-1
8 10 m 1,8,-1
 6 10 l 1,9,-1
 6 12 l 1,10,-1
 8 12 l 1,11,-1
 8 10 l 1,8,-1
2 10 m 1,12,-1
 2 12 l 1,13,-1
 4 12 l 1,14,-1
 4 10 l 1,15,-1
 2 10 l 1,12,-1
6 12 m 1,16,-1
 4 12 l 1,17,-1
 4 14 l 1,18,-1
 6 14 l 1,19,-1
 6 12 l 1,16,-1
EndSplineSet
Validated: 5
EndChar

StartChar: underscore
Encoding: 64 95 64
Width: 12
VWidth: 16
GlyphClass: 2
Flags: W
LayerCount: 3
Fore
SplineSet
8 0 m 1,0,-1
 10 0 l 1,1,-1
 10 -2 l 1,2,-1
 8 -2 l 1,3,-1
 6 -2 l 1,4,-1
 4 -2 l 1,5,-1
 2 -2 l 1,6,-1
 0 -2 l 1,7,-1
 0 0 l 1,8,-1
 2 0 l 1,9,-1
 4 0 l 1,10,-1
 6 0 l 1,11,-1
 8 0 l 1,0,-1
EndSplineSet
Validated: 1
EndChar

StartChar: grave
Encoding: 65 96 65
Width: 12
VWidth: 16
GlyphClass: 2
Flags: W
LayerCount: 3
Fore
SplineSet
4 10 m 1,0,-1
 4 12 l 1,1,-1
 6 12 l 1,2,-1
 6 10 l 1,3,-1
 4 10 l 1,0,-1
4 12 m 1,4,-1
 2 12 l 1,5,-1
 2 14 l 1,6,-1
 4 14 l 1,7,-1
 4 12 l 1,4,-1
EndSplineSet
Validated: 5
EndChar

StartChar: a
Encoding: 66 97 66
Width: 12
VWidth: 16
GlyphClass: 2
Flags: W
LayerCount: 3
Fore
SplineSet
8 0 m 1,0,-1
 6 0 l 1,1,-1
 4 0 l 1,2,-1
 2 0 l 1,3,-1
 2 2 l 1,4,-1
 0 2 l 1,5,-1
 0 4 l 1,6,-1
 2 4 l 1,7,-1
 2 6 l 1,8,-1
 4 6 l 1,9,-1
 6 6 l 1,10,-1
 8 6 l 1,11,-1
 8 8 l 1,12,-1
 10 8 l 1,13,-1
 10 6 l 1,14,-1
 10 4 l 1,15,-1
 10 2 l 1,16,-1
 10 0 l 1,17,-1
 8 0 l 1,0,-1
6 2 m 1,18,-1
 8 2 l 1,19,-1
 8 4 l 1,20,-1
 6 4 l 1,21,-1
 4 4 l 1,22,-1
 2 4 l 1,23,-1
 2 2 l 1,24,-1
 4 2 l 1,25,-1
 6 2 l 1,18,-1
8 8 m 1,26,-1
 6 8 l 1,27,-1
 4 8 l 1,28,-1
 2 8 l 1,29,-1
 2 10 l 1,30,-1
 4 10 l 1,31,-1
 6 10 l 1,32,-1
 8 10 l 1,33,-1
 8 8 l 1,26,-1
EndSplineSet
Validated: 5
EndChar

StartChar: b
Encoding: 67 98 67
Width: 12
VWidth: 16
GlyphClass: 2
Flags: W
LayerCount: 3
Fore
SplineSet
6 2 m 1,0,-1
 8 2 l 1,1,-1
 8 0 l 1,2,-1
 6 0 l 1,3,-1
 4 0 l 1,4,-1
 2 0 l 1,5,-1
 0 0 l 1,6,-1
 0 2 l 1,7,-1
 0 4 l 1,8,-1
 0 6 l 1,9,-1
 0 8 l 1,10,-1
 0 10 l 1,11,-1
 0 12 l 1,12,-1
 0 14 l 1,13,-1
 2 14 l 1,14,-1
 2 12 l 1,15,-1
 2 10 l 1,16,-1
 2 8 l 1,17,-1
 4 8 l 1,18,-1
 4 6 l 1,19,-1
 2 6 l 1,20,-1
 2 4 l 1,21,-1
 2 2 l 1,22,-1
 4 2 l 1,23,-1
 6 2 l 1,0,-1
8 2 m 1,24,-1
 8 4 l 1,25,-1
 8 6 l 1,26,-1
 8 8 l 1,27,-1
 10 8 l 1,28,-1
 10 6 l 1,29,-1
 10 4 l 1,30,-1
 10 2 l 1,31,-1
 8 2 l 1,24,-1
8 8 m 1,32,-1
 6 8 l 1,33,-1
 4 8 l 1,34,-1
 4 10 l 1,35,-1
 6 10 l 1,36,-1
 8 10 l 1,37,-1
 8 8 l 1,32,-1
EndSplineSet
Validated: 5
EndChar

StartChar: c
Encoding: 68 99 68
Width: 12
VWidth: 16
GlyphClass: 2
Flags: W
LayerCount: 3
Fore
SplineSet
8 6 m 1,0,-1
 8 8 l 1,1,-1
 10 8 l 1,2,-1
 10 6 l 1,3,-1
 8 6 l 1,0,-1
6 2 m 1,4,-1
 8 2 l 1,5,-1
 8 0 l 1,6,-1
 6 0 l 1,7,-1
 4 0 l 1,8,-1
 2 0 l 1,9,-1
 2 2 l 1,10,-1
 4 2 l 1,11,-1
 6 2 l 1,4,-1
8 2 m 1,12,-1
 8 4 l 1,13,-1
 10 4 l 1,14,-1
 10 2 l 1,15,-1
 8 2 l 1,12,-1
2 2 m 1,16,-1
 0 2 l 1,17,-1
 0 4 l 1,18,-1
 0 6 l 1,19,-1
 0 8 l 1,20,-1
 2 8 l 1,21,-1
 2 6 l 1,22,-1
 2 4 l 1,23,-1
 2 2 l 1,16,-1
8 8 m 1,24,-1
 6 8 l 1,25,-1
 4 8 l 1,26,-1
 2 8 l 1,27,-1
 2 10 l 1,28,-1
 4 10 l 1,29,-1
 6 10 l 1,30,-1
 8 10 l 1,31,-1
 8 8 l 1,24,-1
EndSplineSet
Validated: 5
EndChar

StartChar: d
Encoding: 69 100 69
Width: 12
VWidth: 16
GlyphClass: 2
Flags: W
LayerCount: 3
Fore
SplineSet
8 0 m 1,0,-1
 6 0 l 1,1,-1
 4 0 l 1,2,-1
 2 0 l 1,3,-1
 2 2 l 1,4,-1
 4 2 l 1,5,-1
 6 2 l 1,6,-1
 8 2 l 1,7,-1
 8 4 l 1,8,-1
 8 6 l 1,9,-1
 6 6 l 1,10,-1
 6 8 l 1,11,-1
 8 8 l 1,12,-1
 8 10 l 1,13,-1
 8 12 l 1,14,-1
 8 14 l 1,15,-1
 10 14 l 1,16,-1
 10 12 l 1,17,-1
 10 10 l 1,18,-1
 10 8 l 1,19,-1
 10 6 l 1,20,-1
 10 4 l 1,21,-1
 10 2 l 1,22,-1
 10 0 l 1,23,-1
 8 0 l 1,0,-1
2 2 m 1,24,-1
 0 2 l 1,25,-1
 0 4 l 1,26,-1
 0 6 l 1,27,-1
 0 8 l 1,28,-1
 2 8 l 1,29,-1
 2 6 l 1,30,-1
 2 4 l 1,31,-1
 2 2 l 1,24,-1
6 8 m 1,32,-1
 4 8 l 1,33,-1
 2 8 l 1,34,-1
 2 10 l 1,35,-1
 4 10 l 1,36,-1
 6 10 l 1,37,-1
 6 8 l 1,32,-1
EndSplineSet
Validated: 5
EndChar

StartChar: e
Encoding: 70 101 70
Width: 12
VWidth: 16
GlyphClass: 2
Flags: W
LayerCount: 3
Fore
SplineSet
8 2 m 1,0,-1
 10 2 l 1,1,-1
 10 0 l 1,2,-1
 8 0 l 1,3,-1
 6 0 l 1,4,-1
 4 0 l 1,5,-1
 2 0 l 1,6,-1
 2 2 l 1,7,-1
 4 2 l 1,8,-1
 6 2 l 1,9,-1
 8 2 l 1,0,-1
2 2 m 1,10,-1
 0 2 l 1,11,-1
 0 4 l 1,12,-1
 0 6 l 1,13,-1
 0 8 l 1,14,-1
 2 8 l 1,15,-1
 2 6 l 1,16,-1
 4 6 l 1,17,-1
 6 6 l 1,18,-1
 8 6 l 1,19,-1
 8 8 l 1,20,-1
 10 8 l 1,21,-1
 10 6 l 1,22,-1
 10 4 l 1,23,-1
 8 4 l 1,24,-1
 6 4 l 1,25,-1
 4 4 l 1,26,-1
 2 4 l 1,27,-1
 2 2 l 1,10,-1
8 8 m 1,28,-1
 6 8 l 1,29,-1
 4 8 l 1,30,-1
 2 8 l 1,31,-1
 2 10 l 1,32,-1
 4 10 l 1,33,-1
 6 10 l 1,34,-1
 8 10 l 1,35,-1
 8 8 l 1,28,-1
EndSplineSet
Validated: 5
EndChar

StartChar: f
Encoding: 71 102 71
Width: 12
VWidth: 16
GlyphClass: 2
Flags: W
LayerCount: 3
Fore
SplineSet
4 0 m 1,0,-1
 4 2 l 1,1,-1
 4 4 l 1,2,-1
 4 6 l 1,3,-1
 4 8 l 1,4,-1
 2 8 l 1,5,-1
 2 10 l 1,6,-1
 4 10 l 1,7,-1
 4 12 l 1,8,-1
 6 12 l 1,9,-1
 6 10 l 1,10,-1
 8 10 l 1,11,-1
 10 10 l 1,12,-1
 10 8 l 1,13,-1
 8 8 l 1,14,-1
 6 8 l 1,15,-1
 6 6 l 1,16,-1
 6 4 l 1,17,-1
 6 2 l 1,18,-1
 6 0 l 1,19,-1
 4 0 l 1,0,-1
8 14 m 1,20,-1
 10 14 l 1,21,-1
 10 12 l 1,22,-1
 8 12 l 1,23,-1
 6 12 l 1,24,-1
 6 14 l 1,25,-1
 8 14 l 1,20,-1
EndSplineSet
Validated: 5
EndChar

StartChar: g
Encoding: 72 103 72
Width: 12
VWidth: 16
GlyphClass: 2
Flags: W
LayerCount: 3
Fore
SplineSet
6 0 m 1,0,-1
 8 0 l 1,1,-1
 8 -2 l 1,2,-1
 6 -2 l 1,3,-1
 4 -2 l 1,4,-1
 2 -2 l 1,5,-1
 0 -2 l 1,6,-1
 0 0 l 1,7,-1
 2 0 l 1,8,-1
 4 0 l 1,9,-1
 6 0 l 1,0,-1
8 0 m 1,10,-1
 8 2 l 1,11,-1
 6 2 l 1,12,-1
 4 2 l 1,13,-1
 2 2 l 1,14,-1
 2 4 l 1,15,-1
 0 4 l 1,16,-1
 0 6 l 1,17,-1
 0 8 l 1,18,-1
 2 8 l 1,19,-1
 2 10 l 1,20,-1
 4 10 l 1,21,-1
 6 10 l 1,22,-1
 8 10 l 1,23,-1
 10 10 l 1,24,-1
 10 8 l 1,25,-1
 10 6 l 1,26,-1
 10 4 l 1,27,-1
 10 2 l 1,28,-1
 10 0 l 1,29,-1
 8 0 l 1,10,-1
6 4 m 1,30,-1
 8 4 l 1,31,-1
 8 6 l 1,32,-1
 8 8 l 1,33,-1
 6 8 l 1,34,-1
 4 8 l 1,35,-1
 2 8 l 1,36,-1
 2 6 l 1,37,-1
 2 4 l 1,38,-1
 4 4 l 1,39,-1
 6 4 l 1,30,-1
EndSplineSet
Validated: 5
EndChar

StartChar: h
Encoding: 73 104 73
Width: 12
VWidth: 16
GlyphClass: 2
Flags: W
LayerCount: 3
Fore
SplineSet
8 0 m 1,0,-1
 8 2 l 1,1,-1
 8 4 l 1,2,-1
 8 6 l 1,3,-1
 8 8 l 1,4,-1
 10 8 l 1,5,-1
 10 6 l 1,6,-1
 10 4 l 1,7,-1
 10 2 l 1,8,-1
 10 0 l 1,9,-1
 8 0 l 1,0,-1
0 0 m 1,10,-1
 0 2 l 1,11,-1
 0 4 l 1,12,-1
 0 6 l 1,13,-1
 0 8 l 1,14,-1
 0 10 l 1,15,-1
 0 12 l 1,16,-1
 0 14 l 1,17,-1
 2 14 l 1,18,-1
 2 12 l 1,19,-1
 2 10 l 1,20,-1
 2 8 l 1,21,-1
 4 8 l 1,22,-1
 4 6 l 1,23,-1
 2 6 l 1,24,-1
 2 4 l 1,25,-1
 2 2 l 1,26,-1
 2 0 l 1,27,-1
 0 0 l 1,10,-1
8 8 m 1,28,-1
 6 8 l 1,29,-1
 4 8 l 1,30,-1
 4 10 l 1,31,-1
 6 10 l 1,32,-1
 8 10 l 1,33,-1
 8 8 l 1,28,-1
EndSplineSet
Validated: 5
EndChar

StartChar: i
Encoding: 74 105 74
Width: 12
VWidth: 16
GlyphClass: 2
Flags: W
LayerCount: 3
Fore
SplineSet
4 12 m 1,0,-1
 4 14 l 1,1,-1
 6 14 l 1,2,-1
 6 12 l 1,3,-1
 4 12 l 1,0,-1
8 2 m 1,4,-1
 10 2 l 1,5,-1
 10 0 l 1,6,-1
 8 0 l 1,7,-1
 6 0 l 1,8,-1
 6 2 l 1,9,-1
 8 2 l 1,4,-1
6 2 m 1,10,-1
 4 2 l 1,11,-1
 4 4 l 1,12,-1
 4 6 l 1,13,-1
 4 8 l 1,14,-1
 2 8 l 1,15,-1
 2 10 l 1,16,-1
 4 10 l 1,17,-1
 6 10 l 1,18,-1
 6 8 l 1,19,-1
 6 6 l 1,20,-1
 6 4 l 1,21,-1
 6 2 l 1,10,-1
EndSplineSet
Validated: 5
EndChar

StartChar: j
Encoding: 75 106 75
Width: 12
VWidth: 16
GlyphClass: 2
Flags: W
LayerCount: 3
Fore
SplineSet
8 12 m 1,0,-1
 8 14 l 1,1,-1
 10 14 l 1,2,-1
 10 12 l 1,3,-1
 8 12 l 1,0,-1
6 0 m 1,4,-1
 8 0 l 1,5,-1
 8 -2 l 1,6,-1
 6 -2 l 1,7,-1
 4 -2 l 1,8,-1
 2 -2 l 1,9,-1
 2 0 l 1,10,-1
 4 0 l 1,11,-1
 6 0 l 1,4,-1
8 0 m 1,12,-1
 8 2 l 1,13,-1
 8 4 l 1,14,-1
 8 6 l 1,15,-1
 8 8 l 1,16,-1
 8 10 l 1,17,-1
 10 10 l 1,18,-1
 10 8 l 1,19,-1
 10 6 l 1,20,-1
 10 4 l 1,21,-1
 10 2 l 1,22,-1
 10 0 l 1,23,-1
 8 0 l 1,12,-1
2 0 m 1,24,-1
 0 0 l 1,25,-1
 0 2 l 1,26,-1
 0 4 l 1,27,-1
 2 4 l 1,28,-1
 2 2 l 1,29,-1
 2 0 l 1,24,-1
EndSplineSet
Validated: 5
EndChar

StartChar: k
Encoding: 76 107 76
Width: 12
VWidth: 16
GlyphClass: 2
Flags: W
LayerCount: 3
Fore
SplineSet
8 0 m 1,0,-1
 8 2 l 1,1,-1
 10 2 l 1,2,-1
 10 0 l 1,3,-1
 8 0 l 1,0,-1
2 0 m 1,4,-1
 2 2 l 1,5,-1
 2 4 l 1,6,-1
 2 6 l 1,7,-1
 2 8 l 1,8,-1
 2 10 l 1,9,-1
 2 12 l 1,10,-1
 2 14 l 1,11,-1
 4 14 l 1,12,-1
 4 12 l 1,13,-1
 4 10 l 1,14,-1
 4 8 l 1,15,-1
 4 6 l 1,16,-1
 6 6 l 1,17,-1
 6 4 l 1,18,-1
 8 4 l 1,19,-1
 8 2 l 1,20,-1
 6 2 l 1,21,-1
 6 4 l 1,22,-1
 4 4 l 1,23,-1
 4 2 l 1,24,-1
 4 0 l 1,25,-1
 2 0 l 1,4,-1
6 6 m 1,26,-1
 6 8 l 1,27,-1
 8 8 l 1,28,-1
 8 6 l 1,29,-1
 6 6 l 1,26,-1
8 8 m 1,30,-1
 8 10 l 1,31,-1
 10 10 l 1,32,-1
 10 8 l 1,33,-1
 8 8 l 1,30,-1
EndSplineSet
Validated: 5
EndChar

StartChar: l
Encoding: 77 108 77
Width: 12
VWidth: 16
GlyphClass: 2
Flags: W
LayerCount: 3
Fore
SplineSet
8 2 m 1,0,-1
 10 2 l 1,1,-1
 10 0 l 1,2,-1
 8 0 l 1,3,-1
 6 0 l 1,4,-1
 6 2 l 1,5,-1
 8 2 l 1,0,-1
6 2 m 1,6,-1
 4 2 l 1,7,-1
 4 4 l 1,8,-1
 4 6 l 1,9,-1
 4 8 l 1,10,-1
 4 10 l 1,11,-1
 4 12 l 1,12,-1
 2 12 l 1,13,-1
 2 14 l 1,14,-1
 4 14 l 1,15,-1
 6 14 l 1,16,-1
 6 12 l 1,17,-1
 6 10 l 1,18,-1
 6 8 l 1,19,-1
 6 6 l 1,20,-1
 6 4 l 1,21,-1
 6 2 l 1,6,-1
EndSplineSet
Validated: 5
EndChar

StartChar: m
Encoding: 78 109 78
Width: 12
VWidth: 16
GlyphClass: 2
Flags: W
LayerCount: 3
Fore
SplineSet
8 0 m 1,0,-1
 8 2 l 1,1,-1
 8 4 l 1,2,-1
 8 6 l 1,3,-1
 8 8 l 1,4,-1
 10 8 l 1,5,-1
 10 6 l 1,6,-1
 10 4 l 1,7,-1
 10 2 l 1,8,-1
 10 0 l 1,9,-1
 8 0 l 1,0,-1
0 0 m 1,10,-1
 0 2 l 1,11,-1
 0 4 l 1,12,-1
 0 6 l 1,13,-1
 0 8 l 1,14,-1
 0 10 l 1,15,-1
 2 10 l 1,16,-1
 4 10 l 1,17,-1
 4 8 l 1,18,-1
 6 8 l 1,19,-1
 6 6 l 1,20,-1
 6 4 l 1,21,-1
 4 4 l 1,22,-1
 4 6 l 1,23,-1
 4 8 l 1,24,-1
 2 8 l 1,25,-1
 2 6 l 1,26,-1
 2 4 l 1,27,-1
 2 2 l 1,28,-1
 2 0 l 1,29,-1
 0 0 l 1,10,-1
8 8 m 1,30,-1
 6 8 l 1,31,-1
 6 10 l 1,32,-1
 8 10 l 1,33,-1
 8 8 l 1,30,-1
EndSplineSet
Validated: 5
EndChar

StartChar: n
Encoding: 79 110 79
Width: 12
VWidth: 16
GlyphClass: 2
Flags: W
LayerCount: 3
Fore
SplineSet
8 0 m 1,0,-1
 8 2 l 1,1,-1
 8 4 l 1,2,-1
 8 6 l 1,3,-1
 8 8 l 1,4,-1
 10 8 l 1,5,-1
 10 6 l 1,6,-1
 10 4 l 1,7,-1
 10 2 l 1,8,-1
 10 0 l 1,9,-1
 8 0 l 1,0,-1
0 0 m 1,10,-1
 0 2 l 1,11,-1
 0 4 l 1,12,-1
 0 6 l 1,13,-1
 0 8 l 1,14,-1
 0 10 l 1,15,-1
 2 10 l 1,16,-1
 4 10 l 1,17,-1
 6 10 l 1,18,-1
 8 10 l 1,19,-1
 8 8 l 1,20,-1
 6 8 l 1,21,-1
 4 8 l 1,22,-1
 2 8 l 1,23,-1
 2 6 l 1,24,-1
 2 4 l 1,25,-1
 2 2 l 1,26,-1
 2 0 l 1,27,-1
 0 0 l 1,10,-1
EndSplineSet
Validated: 5
EndChar

StartChar: o
Encoding: 80 111 80
Width: 12
VWidth: 16
GlyphClass: 2
Flags: W
LayerCount: 3
Fore
SplineSet
6 2 m 1,0,-1
 8 2 l 1,1,-1
 8 0 l 1,2,-1
 6 0 l 1,3,-1
 4 0 l 1,4,-1
 2 0 l 1,5,-1
 2 2 l 1,6,-1
 4 2 l 1,7,-1
 6 2 l 1,0,-1
8 2 m 1,8,-1
 8 4 l 1,9,-1
 8 6 l 1,10,-1
 8 8 l 1,11,-1
 10 8 l 1,12,-1
 10 6 l 1,13,-1
 10 4 l 1,14,-1
 10 2 l 1,15,-1
 8 2 l 1,8,-1
2 2 m 1,16,-1
 0 2 l 1,17,-1
 0 4 l 1,18,-1
 0 6 l 1,19,-1
 0 8 l 1,20,-1
 2 8 l 1,21,-1
 2 6 l 1,22,-1
 2 4 l 1,23,-1
 2 2 l 1,16,-1
8 8 m 1,24,-1
 6 8 l 1,25,-1
 4 8 l 1,26,-1
 2 8 l 1,27,-1
 2 10 l 1,28,-1
 4 10 l 1,29,-1
 6 10 l 1,30,-1
 8 10 l 1,31,-1
 8 8 l 1,24,-1
EndSplineSet
Validated: 5
EndChar

StartChar: p
Encoding: 81 112 81
Width: 12
VWidth: 16
GlyphClass: 2
Flags: W
LayerCount: 3
Fore
SplineSet
0 -2 m 1,0,-1
 0 0 l 1,1,-1
 0 2 l 1,2,-1
 0 4 l 1,3,-1
 0 6 l 1,4,-1
 0 8 l 1,5,-1
 0 10 l 1,6,-1
 2 10 l 1,7,-1
 2 8 l 1,8,-1
 4 8 l 1,9,-1
 4 6 l 1,10,-1
 2 6 l 1,11,-1
 2 4 l 1,12,-1
 4 4 l 1,13,-1
 6 4 l 1,14,-1
 8 4 l 1,15,-1
 8 2 l 1,16,-1
 6 2 l 1,17,-1
 4 2 l 1,18,-1
 2 2 l 1,19,-1
 2 0 l 1,20,-1
 2 -2 l 1,21,-1
 0 -2 l 1,0,-1
8 4 m 1,22,-1
 8 6 l 1,23,-1
 8 8 l 1,24,-1
 10 8 l 1,25,-1
 10 6 l 1,26,-1
 10 4 l 1,27,-1
 8 4 l 1,22,-1
8 8 m 1,28,-1
 6 8 l 1,29,-1
 4 8 l 1,30,-1
 4 10 l 1,31,-1
 6 10 l 1,32,-1
 8 10 l 1,33,-1
 8 8 l 1,28,-1
EndSplineSet
Validated: 5
EndChar

StartChar: q
Encoding: 82 113 82
Width: 12
VWidth: 16
GlyphClass: 2
Flags: W
LayerCount: 3
Fore
SplineSet
8 -2 m 1,0,-1
 8 0 l 1,1,-1
 8 2 l 1,2,-1
 6 2 l 1,3,-1
 4 2 l 1,4,-1
 2 2 l 1,5,-1
 2 4 l 1,6,-1
 4 4 l 1,7,-1
 6 4 l 1,8,-1
 8 4 l 1,9,-1
 8 6 l 1,10,-1
 6 6 l 1,11,-1
 6 8 l 1,12,-1
 8 8 l 1,13,-1
 8 10 l 1,14,-1
 10 10 l 1,15,-1
 10 8 l 1,16,-1
 10 6 l 1,17,-1
 10 4 l 1,18,-1
 10 2 l 1,19,-1
 10 0 l 1,20,-1
 10 -2 l 1,21,-1
 8 -2 l 1,0,-1
2 4 m 1,22,-1
 0 4 l 1,23,-1
 0 6 l 1,24,-1
 0 8 l 1,25,-1
 2 8 l 1,26,-1
 2 6 l 1,27,-1
 2 4 l 1,22,-1
6 8 m 1,28,-1
 4 8 l 1,29,-1
 2 8 l 1,30,-1
 2 10 l 1,31,-1
 4 10 l 1,32,-1
 6 10 l 1,33,-1
 6 8 l 1,28,-1
EndSplineSet
Validated: 5
EndChar

StartChar: r
Encoding: 83 114 83
Width: 12
VWidth: 16
GlyphClass: 2
Flags: W
LayerCount: 3
Fore
SplineSet
0 0 m 1,0,-1
 0 2 l 1,1,-1
 0 4 l 1,2,-1
 0 6 l 1,3,-1
 0 8 l 1,4,-1
 0 10 l 1,5,-1
 2 10 l 1,6,-1
 2 8 l 1,7,-1
 4 8 l 1,8,-1
 4 6 l 1,9,-1
 2 6 l 1,10,-1
 2 4 l 1,11,-1
 2 2 l 1,12,-1
 2 0 l 1,13,-1
 0 0 l 1,0,-1
8 6 m 1,14,-1
 8 8 l 1,15,-1
 10 8 l 1,16,-1
 10 6 l 1,17,-1
 8 6 l 1,14,-1
8 8 m 1,18,-1
 6 8 l 1,19,-1
 4 8 l 1,20,-1
 4 10 l 1,21,-1
 6 10 l 1,22,-1
 8 10 l 1,23,-1
 8 8 l 1,18,-1
EndSplineSet
Validated: 5
EndChar

StartChar: s
Encoding: 84 115 84
Width: 12
VWidth: 16
GlyphClass: 2
Flags: W
LayerCount: 3
Fore
SplineSet
6 2 m 1,0,-1
 8 2 l 1,1,-1
 8 0 l 1,2,-1
 6 0 l 1,3,-1
 4 0 l 1,4,-1
 2 0 l 1,5,-1
 0 0 l 1,6,-1
 0 2 l 1,7,-1
 2 2 l 1,8,-1
 4 2 l 1,9,-1
 6 2 l 1,0,-1
8 2 m 1,10,-1
 8 4 l 1,11,-1
 10 4 l 1,12,-1
 10 2 l 1,13,-1
 8 2 l 1,10,-1
8 4 m 1,14,-1
 6 4 l 1,15,-1
 4 4 l 1,16,-1
 2 4 l 1,17,-1
 2 6 l 1,18,-1
 4 6 l 1,19,-1
 6 6 l 1,20,-1
 8 6 l 1,21,-1
 8 4 l 1,14,-1
2 6 m 1,22,-1
 0 6 l 1,23,-1
 0 8 l 1,24,-1
 2 8 l 1,25,-1
 2 6 l 1,22,-1
8 10 m 1,26,-1
 10 10 l 1,27,-1
 10 8 l 1,28,-1
 8 8 l 1,29,-1
 6 8 l 1,30,-1
 4 8 l 1,31,-1
 2 8 l 1,32,-1
 2 10 l 1,33,-1
 4 10 l 1,34,-1
 6 10 l 1,35,-1
 8 10 l 1,26,-1
EndSplineSet
Validated: 5
EndChar

StartChar: t
Encoding: 85 116 85
Width: 12
VWidth: 16
GlyphClass: 2
Flags: W
LayerCount: 3
Fore
SplineSet
8 2 m 1,0,-1
 10 2 l 1,1,-1
 10 0 l 1,2,-1
 8 0 l 1,3,-1
 6 0 l 1,4,-1
 6 2 l 1,5,-1
 8 2 l 1,0,-1
6 2 m 1,6,-1
 4 2 l 1,7,-1
 4 4 l 1,8,-1
 4 6 l 1,9,-1
 4 8 l 1,10,-1
 2 8 l 1,11,-1
 2 10 l 1,12,-1
 4 10 l 1,13,-1
 4 12 l 1,14,-1
 4 14 l 1,15,-1
 6 14 l 1,16,-1
 6 12 l 1,17,-1
 6 10 l 1,18,-1
 8 10 l 1,19,-1
 8 8 l 1,20,-1
 6 8 l 1,21,-1
 6 6 l 1,22,-1
 6 4 l 1,23,-1
 6 2 l 1,6,-1
EndSplineSet
Validated: 5
EndChar

StartChar: u
Encoding: 86 117 86
Width: 12
VWidth: 16
GlyphClass: 2
Flags: W
LayerCount: 3
Fore
SplineSet
8 0 m 1,0,-1
 6 0 l 1,1,-1
 4 0 l 1,2,-1
 2 0 l 1,3,-1
 2 2 l 1,4,-1
 4 2 l 1,5,-1
 6 2 l 1,6,-1
 8 2 l 1,7,-1
 8 4 l 1,8,-1
 8 6 l 1,9,-1
 8 8 l 1,10,-1
 8 10 l 1,11,-1
 10 10 l 1,12,-1
 10 8 l 1,13,-1
 10 6 l 1,14,-1
 10 4 l 1,15,-1
 10 2 l 1,16,-1
 10 0 l 1,17,-1
 8 0 l 1,0,-1
2 2 m 1,18,-1
 0 2 l 1,19,-1
 0 4 l 1,20,-1
 0 6 l 1,21,-1
 0 8 l 1,22,-1
 0 10 l 1,23,-1
 2 10 l 1,24,-1
 2 8 l 1,25,-1
 2 6 l 1,26,-1
 2 4 l 1,27,-1
 2 2 l 1,18,-1
EndSplineSet
Validated: 5
EndChar

StartChar: v
Encoding: 87 118 87
Width: 12
VWidth: 16
GlyphClass: 2
Flags: W
LayerCount: 3
Fore
SplineSet
4 0 m 1,0,-1
 4 2 l 1,1,-1
 6 2 l 1,2,-1
 6 0 l 1,3,-1
 4 0 l 1,0,-1
6 2 m 1,4,-1
 6 4 l 1,5,-1
 8 4 l 1,6,-1
 8 2 l 1,7,-1
 6 2 l 1,4,-1
4 2 m 1,8,-1
 2 2 l 1,9,-1
 2 4 l 1,10,-1
 4 4 l 1,11,-1
 4 2 l 1,8,-1
8 4 m 1,12,-1
 8 6 l 1,13,-1
 8 8 l 1,14,-1
 8 10 l 1,15,-1
 10 10 l 1,16,-1
 10 8 l 1,17,-1
 10 6 l 1,18,-1
 10 4 l 1,19,-1
 8 4 l 1,12,-1
2 4 m 1,20,-1
 0 4 l 1,21,-1
 0 6 l 1,22,-1
 0 8 l 1,23,-1
 0 10 l 1,24,-1
 2 10 l 1,25,-1
 2 8 l 1,26,-1
 2 6 l 1,27,-1
 2 4 l 1,20,-1
EndSplineSet
Validated: 5
EndChar

StartChar: w
Encoding: 88 119 88
Width: 12
VWidth: 16
GlyphClass: 2
Flags: W
LayerCount: 3
Fore
SplineSet
8 0 m 1,0,-1
 6 0 l 1,1,-1
 4 0 l 1,2,-1
 2 0 l 1,3,-1
 2 2 l 1,4,-1
 4 2 l 1,5,-1
 4 4 l 1,6,-1
 4 6 l 1,7,-1
 6 6 l 1,8,-1
 6 4 l 1,9,-1
 6 2 l 1,10,-1
 8 2 l 1,11,-1
 8 4 l 1,12,-1
 8 6 l 1,13,-1
 8 8 l 1,14,-1
 8 10 l 1,15,-1
 10 10 l 1,16,-1
 10 8 l 1,17,-1
 10 6 l 1,18,-1
 10 4 l 1,19,-1
 10 2 l 1,20,-1
 10 0 l 1,21,-1
 8 0 l 1,0,-1
2 2 m 1,22,-1
 0 2 l 1,23,-1
 0 4 l 1,24,-1
 0 6 l 1,25,-1
 0 8 l 1,26,-1
 0 10 l 1,27,-1
 2 10 l 1,28,-1
 2 8 l 1,29,-1
 2 6 l 1,30,-1
 2 4 l 1,31,-1
 2 2 l 1,22,-1
EndSplineSet
Validated: 5
EndChar

StartChar: x
Encoding: 89 120 89
Width: 12
VWidth: 16
GlyphClass: 2
Flags: W
LayerCount: 3
Fore
SplineSet
8 0 m 1,0,-1
 8 2 l 1,1,-1
 10 2 l 1,2,-1
 10 0 l 1,3,-1
 8 0 l 1,0,-1
0 0 m 1,4,-1
 0 2 l 1,5,-1
 2 2 l 1,6,-1
 2 0 l 1,7,-1
 0 0 l 1,4,-1
8 2 m 1,8,-1
 6 2 l 1,9,-1
 6 4 l 1,10,-1
 8 4 l 1,11,-1
 8 2 l 1,8,-1
2 2 m 1,12,-1
 2 4 l 1,13,-1
 4 4 l 1,14,-1
 4 2 l 1,15,-1
 2 2 l 1,12,-1
6 4 m 1,16,-1
 4 4 l 1,17,-1
 4 6 l 1,18,-1
 6 6 l 1,19,-1
 6 4 l 1,16,-1
6 6 m 1,20,-1
 6 8 l 1,21,-1
 8 8 l 1,22,-1
 8 6 l 1,23,-1
 6 6 l 1,20,-1
4 6 m 1,24,-1
 2 6 l 1,25,-1
 2 8 l 1,26,-1
 4 8 l 1,27,-1
 4 6 l 1,24,-1
8 8 m 1,28,-1
 8 10 l 1,29,-1
 10 10 l 1,30,-1
 10 8 l 1,31,-1
 8 8 l 1,28,-1
2 8 m 1,32,-1
 0 8 l 1,33,-1
 0 10 l 1,34,-1
 2 10 l 1,35,-1
 2 8 l 1,32,-1
EndSplineSet
Validated: 5
EndChar

StartChar: y
Encoding: 90 121 90
Width: 12
VWidth: 16
GlyphClass: 2
Flags: W
LayerCount: 3
Fore
SplineSet
6 0 m 1,0,-1
 8 0 l 1,1,-1
 8 -2 l 1,2,-1
 6 -2 l 1,3,-1
 4 -2 l 1,4,-1
 2 -2 l 1,5,-1
 0 -2 l 1,6,-1
 0 0 l 1,7,-1
 2 0 l 1,8,-1
 4 0 l 1,9,-1
 6 0 l 1,0,-1
8 0 m 1,10,-1
 8 2 l 1,11,-1
 6 2 l 1,12,-1
 4 2 l 1,13,-1
 2 2 l 1,14,-1
 2 4 l 1,15,-1
 4 4 l 1,16,-1
 6 4 l 1,17,-1
 8 4 l 1,18,-1
 8 6 l 1,19,-1
 8 8 l 1,20,-1
 8 10 l 1,21,-1
 10 10 l 1,22,-1
 10 8 l 1,23,-1
 10 6 l 1,24,-1
 10 4 l 1,25,-1
 10 2 l 1,26,-1
 10 0 l 1,27,-1
 8 0 l 1,10,-1
2 4 m 1,28,-1
 0 4 l 1,29,-1
 0 6 l 1,30,-1
 0 8 l 1,31,-1
 0 10 l 1,32,-1
 2 10 l 1,33,-1
 2 8 l 1,34,-1
 2 6 l 1,35,-1
 2 4 l 1,28,-1
EndSplineSet
Validated: 5
EndChar

StartChar: z
Encoding: 91 122 91
Width: 12
VWidth: 16
GlyphClass: 2
Flags: W
LayerCount: 3
Fore
SplineSet
8 2 m 1,0,-1
 10 2 l 1,1,-1
 10 0 l 1,2,-1
 8 0 l 1,3,-1
 6 0 l 1,4,-1
 4 0 l 1,5,-1
 2 0 l 1,6,-1
 0 0 l 1,7,-1
 0 2 l 1,8,-1
 2 2 l 1,9,-1
 2 4 l 1,10,-1
 4 4 l 1,11,-1
 4 2 l 1,12,-1
 6 2 l 1,13,-1
 8 2 l 1,0,-1
4 4 m 1,14,-1
 4 6 l 1,15,-1
 6 6 l 1,16,-1
 6 4 l 1,17,-1
 4 4 l 1,14,-1
6 6 m 1,18,-1
 6 8 l 1,19,-1
 4 8 l 1,20,-1
 2 8 l 1,21,-1
 0 8 l 1,22,-1
 0 10 l 1,23,-1
 2 10 l 1,24,-1
 4 10 l 1,25,-1
 6 10 l 1,26,-1
 8 10 l 1,27,-1
 10 10 l 1,28,-1
 10 8 l 1,29,-1
 8 8 l 1,30,-1
 8 6 l 1,31,-1
 6 6 l 1,18,-1
EndSplineSet
Validated: 5
EndChar

StartChar: braceleft
Encoding: 92 123 92
Width: 12
VWidth: 16
GlyphClass: 2
Flags: W
LayerCount: 3
Fore
SplineSet
6 0 m 1,0,-1
 6 2 l 1,1,-1
 8 2 l 1,2,-1
 8 0 l 1,3,-1
 6 0 l 1,0,-1
6 2 m 1,4,-1
 4 2 l 1,5,-1
 4 4 l 1,6,-1
 4 6 l 1,7,-1
 6 6 l 1,8,-1
 6 4 l 1,9,-1
 6 2 l 1,4,-1
4 6 m 1,10,-1
 0 6 l 1,11,-1
 0 8 l 1,12,-1
 4 8 l 1,13,-1
 4 6 l 1,10,-1
4 8 m 1,14,-1
 4 10 l 1,15,-1
 4 12 l 1,16,-1
 6 12 l 1,17,-1
 6 10 l 1,18,-1
 6 8 l 1,19,-1
 4 8 l 1,14,-1
6 12 m 1,20,-1
 6 14 l 1,21,-1
 8 14 l 1,22,-1
 8 12 l 1,23,-1
 6 12 l 1,20,-1
EndSplineSet
Validated: 5
EndChar

StartChar: bar
Encoding: 93 124 93
Width: 12
VWidth: 16
GlyphClass: 2
Flags: W
LayerCount: 3
Fore
SplineSet
4 0 m 1,0,-1
 4 2 l 1,1,-1
 4 4 l 1,2,-1
 4 6 l 1,3,-1
 4 8 l 1,4,-1
 4 10 l 1,5,-1
 4 12 l 1,6,-1
 4 14 l 1,7,-1
 6 14 l 1,8,-1
 6 12 l 1,9,-1
 6 10 l 1,10,-1
 6 8 l 1,11,-1
 6 6 l 1,12,-1
 6 4 l 1,13,-1
 6 2 l 1,14,-1
 6 0 l 1,15,-1
 4 0 l 1,0,-1
EndSplineSet
Validated: 1
EndChar

StartChar: braceright
Encoding: 94 125 94
Width: 12
VWidth: 16
GlyphClass: 2
Flags: W
LayerCount: 3
Fore
SplineSet
2 0 m 1,0,-1
 2 2 l 1,1,-1
 4 2 l 1,2,-1
 4 0 l 1,3,-1
 2 0 l 1,0,-1
4 2 m 1,4,-1
 4 4 l 1,5,-1
 4 6 l 1,6,-1
 6 6 l 1,7,-1
 6 4 l 1,8,-1
 6 2 l 1,9,-1
 4 2 l 1,4,-1
6 6 m 1,10,-1
 6 8 l 1,11,-1
 10 8 l 1,12,-1
 10 6 l 1,13,-1
 6 6 l 1,10,-1
6 8 m 1,14,-1
 4 8 l 1,15,-1
 4 10 l 1,16,-1
 4 12 l 1,17,-1
 6 12 l 1,18,-1
 6 10 l 1,19,-1
 6 8 l 1,14,-1
4 12 m 1,20,-1
 2 12 l 1,21,-1
 2 14 l 1,22,-1
 4 14 l 1,23,-1
 4 12 l 1,20,-1
EndSplineSet
Validated: 5
EndChar

StartChar: asciitilde
Encoding: 95 126 95
Width: 12
VWidth: 16
GlyphClass: 2
Flags: W
LayerCount: 3
Fore
SplineSet
6 4 m 1,0,-1
 6 6 l 1,1,-1
 8 6 l 1,2,-1
 8 4 l 1,3,-1
 6 4 l 1,0,-1
0 4 m 1,4,-1
 0 6 l 1,5,-1
 0 8 l 1,6,-1
 2 8 l 1,7,-1
 2 6 l 1,8,-1
 2 4 l 1,9,-1
 0 4 l 1,4,-1
8 6 m 1,10,-1
 8 8 l 1,11,-1
 8 10 l 1,12,-1
 10 10 l 1,13,-1
 10 8 l 1,14,-1
 10 6 l 1,15,-1
 8 6 l 1,10,-1
6 6 m 1,16,-1
 4 6 l 1,17,-1
 4 8 l 1,18,-1
 6 8 l 1,19,-1
 6 6 l 1,16,-1
4 8 m 1,20,-1
 2 8 l 1,21,-1
 2 10 l 1,22,-1
 4 10 l 1,23,-1
 4 8 l 1,20,-1
EndSplineSet
Validated: 5
EndChar

StartChar: exclamdown
Encoding: 97 161 97
Width: 12
VWidth: 16
GlyphClass: 2
Flags: W
LayerCount: 3
Fore
SplineSet
4 -2 m 1,0,-1
 4 0 l 1,1,-1
 4 2 l 1,2,-1
 4 4 l 1,3,-1
 4 6 l 1,4,-1
 4 8 l 1,5,-1
 6 8 l 1,6,-1
 6 6 l 1,7,-1
 6 4 l 1,8,-1
 6 2 l 1,9,-1
 6 0 l 1,10,-1
 6 -2 l 1,11,-1
 4 -2 l 1,0,-1
4 10 m 1,12,-1
 4 12 l 1,13,-1
 6 12 l 1,14,-1
 6 10 l 1,15,-1
 4 10 l 1,12,-1
EndSplineSet
Validated: 1
EndChar

StartChar: cent
Encoding: 98 162 98
Width: 12
VWidth: 16
GlyphClass: 2
Flags: W
LayerCount: 3
Fore
SplineSet
4 -2 m 1,0,-1
 4 0 l 1,1,-1
 2 0 l 1,2,-1
 2 2 l 1,3,-1
 4 2 l 1,4,-1
 6 2 l 1,5,-1
 8 2 l 1,6,-1
 8 0 l 1,7,-1
 6 0 l 1,8,-1
 6 -2 l 1,9,-1
 4 -2 l 1,0,-1
8 6 m 1,10,-1
 8 8 l 1,11,-1
 10 8 l 1,12,-1
 10 6 l 1,13,-1
 8 6 l 1,10,-1
8 2 m 1,14,-1
 8 4 l 1,15,-1
 10 4 l 1,16,-1
 10 2 l 1,17,-1
 8 2 l 1,14,-1
2 2 m 1,18,-1
 0 2 l 1,19,-1
 0 4 l 1,20,-1
 0 6 l 1,21,-1
 0 8 l 1,22,-1
 2 8 l 1,23,-1
 2 6 l 1,24,-1
 2 4 l 1,25,-1
 2 2 l 1,18,-1
8 8 m 1,26,-1
 6 8 l 1,27,-1
 4 8 l 1,28,-1
 2 8 l 1,29,-1
 2 10 l 1,30,-1
 4 10 l 1,31,-1
 4 12 l 1,32,-1
 6 12 l 1,33,-1
 6 10 l 1,34,-1
 8 10 l 1,35,-1
 8 8 l 1,26,-1
EndSplineSet
Validated: 5
EndChar

StartChar: sterling
Encoding: 99 163 99
Width: 12
VWidth: 16
GlyphClass: 2
Flags: W
LayerCount: 3
Fore
SplineSet
8 10 m 1,0,-1
 8 12 l 1,1,-1
 10 12 l 1,2,-1
 10 10 l 1,3,-1
 8 10 l 1,0,-1
8 2 m 1,4,-1
 10 2 l 1,5,-1
 10 0 l 1,6,-1
 8 0 l 1,7,-1
 6 0 l 1,8,-1
 4 0 l 1,9,-1
 2 0 l 1,10,-1
 0 0 l 1,11,-1
 0 2 l 1,12,-1
 2 2 l 1,13,-1
 2 4 l 1,14,-1
 2 6 l 1,15,-1
 0 6 l 1,16,-1
 0 8 l 1,17,-1
 2 8 l 1,18,-1
 2 10 l 1,19,-1
 2 12 l 1,20,-1
 4 12 l 1,21,-1
 4 10 l 1,22,-1
 4 8 l 1,23,-1
 6 8 l 1,24,-1
 8 8 l 1,25,-1
 8 6 l 1,26,-1
 6 6 l 1,27,-1
 4 6 l 1,28,-1
 4 4 l 1,29,-1
 4 2 l 1,30,-1
 6 2 l 1,31,-1
 8 2 l 1,4,-1
8 12 m 1,32,-1
 6 12 l 1,33,-1
 4 12 l 1,34,-1
 4 14 l 1,35,-1
 6 14 l 1,36,-1
 8 14 l 1,37,-1
 8 12 l 1,32,-1
EndSplineSet
Validated: 5
EndChar

StartChar: currency
Encoding: 100 164 100
Width: 12
VWidth: 16
GlyphClass: 2
Flags: W
LayerCount: 3
Fore
SplineSet
10 0 m 1,0,-1
 10 2 l 1,1,-1
 12 2 l 1,2,-1
 12 0 l 1,3,-1
 10 0 l 1,0,-1
0 0 m 1,4,-1
 0 2 l 1,5,-1
 2 2 l 1,6,-1
 2 0 l 1,7,-1
 0 0 l 1,4,-1
6 2 m 1,8,-1
 8 2 l 1,9,-1
 8 0 l 1,10,-1
 6 0 l 1,11,-1
 4 0 l 1,12,-1
 4 2 l 1,13,-1
 6 2 l 1,8,-1
10 2 m 1,14,-1
 8 2 l 1,15,-1
 8 4 l 1,16,-1
 8 6 l 1,17,-1
 8 8 l 1,18,-1
 10 8 l 1,19,-1
 10 6 l 1,20,-1
 10 4 l 1,21,-1
 10 2 l 1,14,-1
4 2 m 1,22,-1
 2 2 l 1,23,-1
 2 4 l 1,24,-1
 2 6 l 1,25,-1
 2 8 l 1,26,-1
 4 8 l 1,27,-1
 4 6 l 1,28,-1
 4 4 l 1,29,-1
 4 2 l 1,22,-1
10 8 m 1,30,-1
 10 10 l 1,31,-1
 12 10 l 1,32,-1
 12 8 l 1,33,-1
 10 8 l 1,30,-1
8 8 m 1,34,-1
 6 8 l 1,35,-1
 4 8 l 1,36,-1
 4 10 l 1,37,-1
 6 10 l 1,38,-1
 8 10 l 1,39,-1
 8 8 l 1,34,-1
2 8 m 1,40,-1
 0 8 l 1,41,-1
 0 10 l 1,42,-1
 2 10 l 1,43,-1
 2 8 l 1,40,-1
EndSplineSet
Validated: 5
EndChar

StartChar: yen
Encoding: 101 165 101
Width: 12
VWidth: 16
GlyphClass: 2
Flags: W
LayerCount: 3
Fore
SplineSet
4 0 m 1,0,-1
 4 2 l 1,1,-1
 2 2 l 1,2,-1
 0 2 l 1,3,-1
 0 4 l 1,4,-1
 2 4 l 1,5,-1
 4 4 l 1,6,-1
 4 6 l 1,7,-1
 2 6 l 1,8,-1
 0 6 l 1,9,-1
 0 8 l 1,10,-1
 2 8 l 1,11,-1
 4 8 l 1,12,-1
 4 10 l 1,13,-1
 6 10 l 1,14,-1
 6 8 l 1,15,-1
 8 8 l 1,16,-1
 10 8 l 1,17,-1
 10 6 l 1,18,-1
 8 6 l 1,19,-1
 6 6 l 1,20,-1
 6 4 l 1,21,-1
 8 4 l 1,22,-1
 10 4 l 1,23,-1
 10 2 l 1,24,-1
 8 2 l 1,25,-1
 6 2 l 1,26,-1
 6 0 l 1,27,-1
 4 0 l 1,0,-1
6 10 m 1,28,-1
 6 12 l 1,29,-1
 8 12 l 1,30,-1
 8 10 l 1,31,-1
 6 10 l 1,28,-1
4 10 m 1,32,-1
 2 10 l 1,33,-1
 2 12 l 1,34,-1
 4 12 l 1,35,-1
 4 10 l 1,32,-1
8 12 m 1,36,-1
 8 14 l 1,37,-1
 10 14 l 1,38,-1
 10 12 l 1,39,-1
 8 12 l 1,36,-1
2 12 m 1,40,-1
 0 12 l 1,41,-1
 0 14 l 1,42,-1
 2 14 l 1,43,-1
 2 12 l 1,40,-1
EndSplineSet
Validated: 5
EndChar

StartChar: brokenbar
Encoding: 102 166 102
Width: 12
VWidth: 16
GlyphClass: 2
Flags: W
LayerCount: 3
Fore
SplineSet
2 0 m 1,0,-1
 2 2 l 1,1,-1
 2 4 l 1,2,-1
 2 6 l 1,3,-1
 4 6 l 1,4,-1
 4 4 l 1,5,-1
 4 2 l 1,6,-1
 4 0 l 1,7,-1
 2 0 l 1,0,-1
2 8 m 1,8,-1
 2 10 l 1,9,-1
 2 12 l 1,10,-1
 2 14 l 1,11,-1
 4 14 l 1,12,-1
 4 12 l 1,13,-1
 4 10 l 1,14,-1
 4 8 l 1,15,-1
 2 8 l 1,8,-1
EndSplineSet
Validated: 1
EndChar

StartChar: section
Encoding: 103 167 103
Width: 12
VWidth: 16
GlyphClass: 2
Flags: W
LayerCount: 3
Fore
SplineSet
6 2 m 1,0,-1
 8 2 l 1,1,-1
 8 0 l 1,2,-1
 6 0 l 1,3,-1
 4 0 l 1,4,-1
 2 0 l 1,5,-1
 0 0 l 1,6,-1
 0 2 l 1,7,-1
 2 2 l 1,8,-1
 4 2 l 1,9,-1
 6 2 l 1,0,-1
8 2 m 1,10,-1
 8 4 l 1,11,-1
 10 4 l 1,12,-1
 10 2 l 1,13,-1
 8 2 l 1,10,-1
8 4 m 1,14,-1
 6 4 l 1,15,-1
 4 4 l 1,16,-1
 2 4 l 1,17,-1
 2 6 l 1,18,-1
 4 6 l 1,19,-1
 6 6 l 1,20,-1
 8 6 l 1,21,-1
 8 4 l 1,14,-1
8 6 m 1,22,-1
 8 8 l 1,23,-1
 10 8 l 1,24,-1
 10 6 l 1,25,-1
 8 6 l 1,22,-1
2 6 m 1,26,-1
 0 6 l 1,27,-1
 0 8 l 1,28,-1
 2 8 l 1,29,-1
 2 6 l 1,26,-1
8 8 m 1,30,-1
 6 8 l 1,31,-1
 4 8 l 1,32,-1
 2 8 l 1,33,-1
 2 10 l 1,34,-1
 4 10 l 1,35,-1
 6 10 l 1,36,-1
 8 10 l 1,37,-1
 8 8 l 1,30,-1
2 10 m 1,38,-1
 0 10 l 1,39,-1
 0 12 l 1,40,-1
 2 12 l 1,41,-1
 2 10 l 1,38,-1
8 14 m 1,42,-1
 10 14 l 1,43,-1
 10 12 l 1,44,-1
 8 12 l 1,45,-1
 6 12 l 1,46,-1
 4 12 l 1,47,-1
 2 12 l 1,48,-1
 2 14 l 1,49,-1
 4 14 l 1,50,-1
 6 14 l 1,51,-1
 8 14 l 1,42,-1
EndSplineSet
Validated: 5
EndChar

StartChar: dieresis
Encoding: 104 168 104
Width: 12
VWidth: 16
GlyphClass: 2
Flags: W
LayerCount: 3
Fore
SplineSet
4 12 m 1,0,-1
 4 14 l 1,1,-1
 6 14 l 1,2,-1
 6 12 l 1,3,-1
 4 12 l 1,0,-1
0 12 m 1,4,-1
 0 14 l 1,5,-1
 2 14 l 1,6,-1
 2 12 l 1,7,-1
 0 12 l 1,4,-1
EndSplineSet
Validated: 1
EndChar

StartChar: copyright
Encoding: 105 169 105
Width: 12
VWidth: 16
GlyphClass: 2
Flags: W
LayerCount: 3
Fore
SplineSet
8 2 m 1,0,-1
 10 2 l 1,1,-1
 10 0 l 1,2,-1
 8 0 l 1,3,-1
 6 0 l 1,4,-1
 4 0 l 1,5,-1
 2 0 l 1,6,-1
 2 2 l 1,7,-1
 4 2 l 1,8,-1
 6 2 l 1,9,-1
 8 2 l 1,0,-1
10 2 m 1,10,-1
 10 4 l 1,11,-1
 10 6 l 1,12,-1
 10 8 l 1,13,-1
 10 10 l 1,14,-1
 10 12 l 1,15,-1
 12 12 l 1,16,-1
 12 10 l 1,17,-1
 12 8 l 1,18,-1
 12 6 l 1,19,-1
 12 4 l 1,20,-1
 12 2 l 1,21,-1
 10 2 l 1,10,-1
2 2 m 1,22,-1
 0 2 l 1,23,-1
 0 4 l 1,24,-1
 0 6 l 1,25,-1
 0 8 l 1,26,-1
 0 10 l 1,27,-1
 0 12 l 1,28,-1
 2 12 l 1,29,-1
 2 10 l 1,30,-1
 2 8 l 1,31,-1
 2 6 l 1,32,-1
 2 4 l 1,33,-1
 2 2 l 1,22,-1
6 4 m 1,34,-1
 4 4 l 1,35,-1
 4 6 l 1,36,-1
 4 8 l 1,37,-1
 4 10 l 1,38,-1
 6 10 l 1,39,-1
 8 10 l 1,40,-1
 8 8 l 1,41,-1
 6 8 l 1,42,-1
 6 6 l 1,43,-1
 8 6 l 1,44,-1
 8 4 l 1,45,-1
 6 4 l 1,34,-1
10 12 m 1,46,-1
 8 12 l 1,47,-1
 6 12 l 1,48,-1
 4 12 l 1,49,-1
 2 12 l 1,50,-1
 2 14 l 1,51,-1
 4 14 l 1,52,-1
 6 14 l 1,53,-1
 8 14 l 1,54,-1
 10 14 l 1,55,-1
 10 12 l 1,46,-1
EndSplineSet
Validated: 5
EndChar

StartChar: ordfeminine
Encoding: 106 170 106
Width: 12
VWidth: 16
GlyphClass: 2
Flags: W
LayerCount: 3
Fore
SplineSet
6 4 m 1,0,-1
 8 4 l 1,1,-1
 8 2 l 1,2,-1
 6 2 l 1,3,-1
 4 2 l 1,4,-1
 2 2 l 1,5,-1
 0 2 l 1,6,-1
 0 4 l 1,7,-1
 2 4 l 1,8,-1
 4 4 l 1,9,-1
 6 4 l 1,0,-1
6 6 m 1,10,-1
 4 6 l 1,11,-1
 2 6 l 1,12,-1
 2 8 l 1,13,-1
 0 8 l 1,14,-1
 0 10 l 1,15,-1
 2 10 l 1,16,-1
 4 10 l 1,17,-1
 6 10 l 1,18,-1
 6 12 l 1,19,-1
 8 12 l 1,20,-1
 8 10 l 1,21,-1
 8 8 l 1,22,-1
 8 6 l 1,23,-1
 6 6 l 1,10,-1
6 12 m 1,24,-1
 4 12 l 1,25,-1
 2 12 l 1,26,-1
 2 14 l 1,27,-1
 4 14 l 1,28,-1
 6 14 l 1,29,-1
 6 12 l 1,24,-1
EndSplineSet
Validated: 5
EndChar

StartChar: guillemotleft
Encoding: 107 171 107
Width: 12
VWidth: 16
GlyphClass: 2
Flags: W
LayerCount: 3
Fore
SplineSet
10 2 m 1,0,-1
 10 4 l 1,1,-1
 12 4 l 1,2,-1
 12 2 l 1,3,-1
 10 2 l 1,0,-1
4 2 m 1,4,-1
 4 4 l 1,5,-1
 6 4 l 1,6,-1
 6 2 l 1,7,-1
 4 2 l 1,4,-1
10 4 m 1,8,-1
 8 4 l 1,9,-1
 8 6 l 1,10,-1
 10 6 l 1,11,-1
 10 4 l 1,8,-1
4 4 m 1,12,-1
 2 4 l 1,13,-1
 2 6 l 1,14,-1
 4 6 l 1,15,-1
 4 4 l 1,12,-1
8 6 m 1,16,-1
 6 6 l 1,17,-1
 6 8 l 1,18,-1
 8 8 l 1,19,-1
 8 6 l 1,16,-1
2 6 m 1,20,-1
 0 6 l 1,21,-1
 0 8 l 1,22,-1
 2 8 l 1,23,-1
 2 6 l 1,20,-1
8 8 m 1,24,-1
 8 10 l 1,25,-1
 10 10 l 1,26,-1
 10 8 l 1,27,-1
 8 8 l 1,24,-1
2 8 m 1,28,-1
 2 10 l 1,29,-1
 4 10 l 1,30,-1
 4 8 l 1,31,-1
 2 8 l 1,28,-1
10 10 m 1,32,-1
 10 12 l 1,33,-1
 12 12 l 1,34,-1
 12 10 l 1,35,-1
 10 10 l 1,32,-1
4 10 m 1,36,-1
 4 12 l 1,37,-1
 6 12 l 1,38,-1
 6 10 l 1,39,-1
 4 10 l 1,36,-1
EndSplineSet
Validated: 5
EndChar

StartChar: logicalnot
Encoding: 108 172 108
Width: 12
VWidth: 16
GlyphClass: 2
Flags: W
LayerCount: 3
Fore
SplineSet
8 2 m 1,0,-1
 8 4 l 1,1,-1
 8 6 l 1,2,-1
 6 6 l 1,3,-1
 4 6 l 1,4,-1
 2 6 l 1,5,-1
 0 6 l 1,6,-1
 0 8 l 1,7,-1
 2 8 l 1,8,-1
 4 8 l 1,9,-1
 6 8 l 1,10,-1
 8 8 l 1,11,-1
 10 8 l 1,12,-1
 10 6 l 1,13,-1
 10 4 l 1,14,-1
 10 2 l 1,15,-1
 8 2 l 1,0,-1
EndSplineSet
Validated: 1
EndChar

StartChar: registered
Encoding: 109 174 109
Width: 12
VWidth: 16
GlyphClass: 2
Flags: W
LayerCount: 3
Fore
SplineSet
4 4 m 1,0,-1
 4 6 l 1,1,-1
 4 8 l 1,2,-1
 4 10 l 1,3,-1
 6 10 l 1,4,-1
 8 10 l 1,5,-1
 8 8 l 1,6,-1
 8 6 l 1,7,-1
 10 6 l 1,8,-1
 10 8 l 1,9,-1
 10 10 l 1,10,-1
 10 12 l 1,11,-1
 12 12 l 1,12,-1
 12 10 l 1,13,-1
 12 8 l 1,14,-1
 12 6 l 1,15,-1
 12 4 l 1,16,-1
 12 2 l 1,17,-1
 10 2 l 1,18,-1
 10 0 l 1,19,-1
 8 0 l 1,20,-1
 6 0 l 1,21,-1
 4 0 l 1,22,-1
 2 0 l 1,23,-1
 2 2 l 1,24,-1
 4 2 l 1,25,-1
 6 2 l 1,26,-1
 8 2 l 1,27,-1
 10 2 l 1,28,-1
 10 4 l 1,29,-1
 8 4 l 1,30,-1
 8 6 l 1,31,-1
 6 6 l 1,32,-1
 6 4 l 1,33,-1
 4 4 l 1,0,-1
2 2 m 1,34,-1
 0 2 l 1,35,-1
 0 4 l 1,36,-1
 0 6 l 1,37,-1
 0 8 l 1,38,-1
 0 10 l 1,39,-1
 0 12 l 1,40,-1
 2 12 l 1,41,-1
 2 10 l 1,42,-1
 2 8 l 1,43,-1
 2 6 l 1,44,-1
 2 4 l 1,45,-1
 2 2 l 1,34,-1
10 12 m 1,46,-1
 8 12 l 1,47,-1
 6 12 l 1,48,-1
 4 12 l 1,49,-1
 2 12 l 1,50,-1
 2 14 l 1,51,-1
 4 14 l 1,52,-1
 6 14 l 1,53,-1
 8 14 l 1,54,-1
 10 14 l 1,55,-1
 10 12 l 1,46,-1
EndSplineSet
Validated: 5
EndChar

StartChar: macron
Encoding: 110 175 110
Width: 12
VWidth: 16
GlyphClass: 2
Flags: W
LayerCount: 3
Fore
SplineSet
8 14 m 1,0,-1
 10 14 l 1,1,-1
 10 12 l 1,2,-1
 8 12 l 1,3,-1
 6 12 l 1,4,-1
 4 12 l 1,5,-1
 2 12 l 1,6,-1
 0 12 l 1,7,-1
 0 14 l 1,8,-1
 2 14 l 1,9,-1
 4 14 l 1,10,-1
 6 14 l 1,11,-1
 8 14 l 1,0,-1
EndSplineSet
Validated: 1
EndChar

StartChar: degree
Encoding: 111 176 111
Width: 12
VWidth: 16
GlyphClass: 2
Flags: W
LayerCount: 3
Fore
SplineSet
4 8 m 1,0,-1
 6 8 l 1,1,-1
 6 6 l 1,2,-1
 4 6 l 1,3,-1
 2 6 l 1,4,-1
 2 8 l 1,5,-1
 4 8 l 1,0,-1
6 8 m 1,6,-1
 6 10 l 1,7,-1
 6 12 l 1,8,-1
 8 12 l 1,9,-1
 8 10 l 1,10,-1
 8 8 l 1,11,-1
 6 8 l 1,6,-1
2 8 m 1,12,-1
 0 8 l 1,13,-1
 0 10 l 1,14,-1
 0 12 l 1,15,-1
 2 12 l 1,16,-1
 2 10 l 1,17,-1
 2 8 l 1,12,-1
6 12 m 1,18,-1
 4 12 l 1,19,-1
 2 12 l 1,20,-1
 2 14 l 1,21,-1
 4 14 l 1,22,-1
 6 14 l 1,23,-1
 6 12 l 1,18,-1
EndSplineSet
Validated: 5
EndChar

StartChar: plusminus
Encoding: 112 177 112
Width: 12
VWidth: 16
GlyphClass: 2
Flags: W
LayerCount: 3
Fore
SplineSet
4 4 m 1,0,-1
 4 6 l 1,1,-1
 4 8 l 1,2,-1
 2 8 l 1,3,-1
 0 8 l 1,4,-1
 0 10 l 1,5,-1
 2 10 l 1,6,-1
 4 10 l 1,7,-1
 4 12 l 1,8,-1
 4 14 l 1,9,-1
 6 14 l 1,10,-1
 6 12 l 1,11,-1
 6 10 l 1,12,-1
 8 10 l 1,13,-1
 10 10 l 1,14,-1
 10 8 l 1,15,-1
 8 8 l 1,16,-1
 6 8 l 1,17,-1
 6 6 l 1,18,-1
 6 4 l 1,19,-1
 4 4 l 1,0,-1
8 2 m 1,20,-1
 10 2 l 1,21,-1
 10 0 l 1,22,-1
 8 0 l 1,23,-1
 6 0 l 1,24,-1
 4 0 l 1,25,-1
 2 0 l 1,26,-1
 0 0 l 1,27,-1
 0 2 l 1,28,-1
 2 2 l 1,29,-1
 4 2 l 1,30,-1
 6 2 l 1,31,-1
 8 2 l 1,20,-1
EndSplineSet
Validated: 1
EndChar

StartChar: uni00B2
Encoding: 113 178 113
Width: 12
VWidth: 16
GlyphClass: 2
Flags: W
LayerCount: 3
Fore
SplineSet
0 10 m 1,0,-1
 0 12 l 1,1,-1
 2 12 l 1,2,-1
 2 10 l 1,3,-1
 0 10 l 1,0,-1
6 6 m 1,4,-1
 8 6 l 1,5,-1
 8 4 l 1,6,-1
 6 4 l 1,7,-1
 4 4 l 1,8,-1
 2 4 l 1,9,-1
 0 4 l 1,10,-1
 0 6 l 1,11,-1
 2 6 l 1,12,-1
 2 8 l 1,13,-1
 4 8 l 1,14,-1
 4 6 l 1,15,-1
 6 6 l 1,4,-1
4 8 m 1,16,-1
 4 10 l 1,17,-1
 6 10 l 1,18,-1
 6 8 l 1,19,-1
 4 8 l 1,16,-1
6 10 m 1,20,-1
 6 12 l 1,21,-1
 8 12 l 1,22,-1
 8 10 l 1,23,-1
 6 10 l 1,20,-1
6 12 m 1,24,-1
 4 12 l 1,25,-1
 2 12 l 1,26,-1
 2 14 l 1,27,-1
 4 14 l 1,28,-1
 6 14 l 1,29,-1
 6 12 l 1,24,-1
EndSplineSet
Validated: 5
EndChar

StartChar: uni00B3
Encoding: 114 179 114
Width: 12
VWidth: 16
GlyphClass: 2
Flags: W
LayerCount: 3
Fore
SplineSet
0 10 m 1,0,-1
 0 12 l 1,1,-1
 2 12 l 1,2,-1
 2 10 l 1,3,-1
 0 10 l 1,0,-1
4 6 m 1,4,-1
 6 6 l 1,5,-1
 6 4 l 1,6,-1
 4 4 l 1,7,-1
 2 4 l 1,8,-1
 2 6 l 1,9,-1
 4 6 l 1,4,-1
6 6 m 1,10,-1
 6 8 l 1,11,-1
 8 8 l 1,12,-1
 8 6 l 1,13,-1
 6 6 l 1,10,-1
2 6 m 1,14,-1
 0 6 l 1,15,-1
 0 8 l 1,16,-1
 2 8 l 1,17,-1
 2 6 l 1,14,-1
6 8 m 1,18,-1
 4 8 l 1,19,-1
 4 10 l 1,20,-1
 6 10 l 1,21,-1
 6 8 l 1,18,-1
6 10 m 1,22,-1
 6 12 l 1,23,-1
 8 12 l 1,24,-1
 8 10 l 1,25,-1
 6 10 l 1,22,-1
6 12 m 1,26,-1
 4 12 l 1,27,-1
 2 12 l 1,28,-1
 2 14 l 1,29,-1
 4 14 l 1,30,-1
 6 14 l 1,31,-1
 6 12 l 1,26,-1
EndSplineSet
Validated: 5
EndChar

StartChar: acute
Encoding: 115 180 115
Width: 12
VWidth: 16
GlyphClass: 2
Flags: W
LayerCount: 3
Fore
SplineSet
2 10 m 1,0,-1
 2 12 l 1,1,-1
 4 12 l 1,2,-1
 4 10 l 1,3,-1
 2 10 l 1,0,-1
4 12 m 1,4,-1
 4 14 l 1,5,-1
 6 14 l 1,6,-1
 6 12 l 1,7,-1
 4 12 l 1,4,-1
EndSplineSet
Validated: 5
EndChar

StartChar: uni00B5
Encoding: 116 181 116
Width: 12
VWidth: 16
GlyphClass: 2
Flags: W
LayerCount: 3
Fore
SplineSet
0 -2 m 1,0,-1
 0 0 l 1,1,-1
 0 2 l 1,2,-1
 0 4 l 1,3,-1
 0 6 l 1,4,-1
 0 8 l 1,5,-1
 0 10 l 1,6,-1
 2 10 l 1,7,-1
 2 8 l 1,8,-1
 2 6 l 1,9,-1
 2 4 l 1,10,-1
 2 2 l 1,11,-1
 4 2 l 1,12,-1
 6 2 l 1,13,-1
 8 2 l 1,14,-1
 8 0 l 1,15,-1
 6 0 l 1,16,-1
 4 0 l 1,17,-1
 2 0 l 1,18,-1
 2 -2 l 1,19,-1
 0 -2 l 1,0,-1
8 2 m 1,20,-1
 8 4 l 1,21,-1
 8 6 l 1,22,-1
 8 8 l 1,23,-1
 8 10 l 1,24,-1
 10 10 l 1,25,-1
 10 8 l 1,26,-1
 10 6 l 1,27,-1
 10 4 l 1,28,-1
 10 2 l 1,29,-1
 8 2 l 1,20,-1
EndSplineSet
Validated: 5
EndChar

StartChar: paragraph
Encoding: 117 182 117
Width: 12
VWidth: 16
GlyphClass: 2
Flags: W
LayerCount: 3
Fore
SplineSet
8 0 m 1,0,-1
 8 2 l 1,1,-1
 8 4 l 1,2,-1
 8 6 l 1,3,-1
 8 8 l 1,4,-1
 8 10 l 1,5,-1
 8 12 l 1,6,-1
 6 12 l 1,7,-1
 6 10 l 1,8,-1
 6 8 l 1,9,-1
 6 6 l 1,10,-1
 6 4 l 1,11,-1
 6 2 l 1,12,-1
 6 0 l 1,13,-1
 4 0 l 1,14,-1
 4 2 l 1,15,-1
 4 4 l 1,16,-1
 4 6 l 1,17,-1
 2 6 l 1,18,-1
 2 8 l 1,19,-1
 0 8 l 1,20,-1
 0 10 l 1,21,-1
 2 10 l 1,22,-1
 2 12 l 1,23,-1
 4 12 l 1,24,-1
 4 14 l 1,25,-1
 6 14 l 1,26,-1
 8 14 l 1,27,-1
 10 14 l 1,28,-1
 12 14 l 1,29,-1
 12 12 l 1,30,-1
 10 12 l 1,31,-1
 10 10 l 1,32,-1
 10 8 l 1,33,-1
 10 6 l 1,34,-1
 10 4 l 1,35,-1
 10 2 l 1,36,-1
 10 0 l 1,37,-1
 8 0 l 1,0,-1
EndSplineSet
Validated: 1
EndChar

StartChar: periodcentered
Encoding: 118 183 118
Width: 12
VWidth: 16
GlyphClass: 2
Flags: W
LayerCount: 3
Fore
SplineSet
4 6 m 1,0,-1
 4 8 l 1,1,-1
 6 8 l 1,2,-1
 6 6 l 1,3,-1
 4 6 l 1,0,-1
EndSplineSet
Validated: 1
EndChar

StartChar: cedilla
Encoding: 119 184 119
Width: 12
VWidth: 16
GlyphClass: 2
Flags: W
LayerCount: 3
Fore
SplineSet
2 0 m 1,0,-1
 4 0 l 1,1,-1
 4 -2 l 1,2,-1
 2 -2 l 1,3,-1
 0 -2 l 1,4,-1
 0 0 l 1,5,-1
 2 0 l 1,0,-1
4 0 m 1,6,-1
 4 2 l 1,7,-1
 6 2 l 1,8,-1
 6 0 l 1,9,-1
 4 0 l 1,6,-1
4 2 m 1,10,-1
 2 2 l 1,11,-1
 2 4 l 1,12,-1
 4 4 l 1,13,-1
 4 2 l 1,10,-1
EndSplineSet
Validated: 5
EndChar

StartChar: uni00B9
Encoding: 120 185 120
Width: 12
VWidth: 16
GlyphClass: 2
Flags: W
LayerCount: 3
Fore
SplineSet
4 4 m 1,0,-1
 2 4 l 1,1,-1
 0 4 l 1,2,-1
 0 6 l 1,3,-1
 2 6 l 1,4,-1
 2 8 l 1,5,-1
 2 10 l 1,6,-1
 0 10 l 1,7,-1
 0 12 l 1,8,-1
 2 12 l 1,9,-1
 2 14 l 1,10,-1
 4 14 l 1,11,-1
 4 12 l 1,12,-1
 4 10 l 1,13,-1
 4 8 l 1,14,-1
 4 6 l 1,15,-1
 6 6 l 1,16,-1
 6 4 l 1,17,-1
 4 4 l 1,0,-1
EndSplineSet
Validated: 1
EndChar

StartChar: ordmasculine
Encoding: 121 186 121
Width: 12
VWidth: 16
GlyphClass: 2
Flags: W
LayerCount: 3
Fore
SplineSet
6 4 m 1,0,-1
 8 4 l 1,1,-1
 8 2 l 1,2,-1
 6 2 l 1,3,-1
 4 2 l 1,4,-1
 2 2 l 1,5,-1
 0 2 l 1,6,-1
 0 4 l 1,7,-1
 2 4 l 1,8,-1
 4 4 l 1,9,-1
 6 4 l 1,0,-1
4 8 m 1,10,-1
 6 8 l 1,11,-1
 6 6 l 1,12,-1
 4 6 l 1,13,-1
 2 6 l 1,14,-1
 2 8 l 1,15,-1
 4 8 l 1,10,-1
6 8 m 1,16,-1
 6 10 l 1,17,-1
 6 12 l 1,18,-1
 8 12 l 1,19,-1
 8 10 l 1,20,-1
 8 8 l 1,21,-1
 6 8 l 1,16,-1
2 8 m 1,22,-1
 0 8 l 1,23,-1
 0 10 l 1,24,-1
 0 12 l 1,25,-1
 2 12 l 1,26,-1
 2 10 l 1,27,-1
 2 8 l 1,22,-1
6 12 m 1,28,-1
 4 12 l 1,29,-1
 2 12 l 1,30,-1
 2 14 l 1,31,-1
 4 14 l 1,32,-1
 6 14 l 1,33,-1
 6 12 l 1,28,-1
EndSplineSet
Validated: 5
EndChar

StartChar: guillemotright
Encoding: 122 187 122
Width: 12
VWidth: 16
GlyphClass: 2
Flags: W
LayerCount: 3
Fore
SplineSet
6 2 m 1,0,-1
 6 4 l 1,1,-1
 8 4 l 1,2,-1
 8 2 l 1,3,-1
 6 2 l 1,0,-1
0 2 m 1,4,-1
 0 4 l 1,5,-1
 2 4 l 1,6,-1
 2 2 l 1,7,-1
 0 2 l 1,4,-1
8 4 m 1,8,-1
 8 6 l 1,9,-1
 10 6 l 1,10,-1
 10 4 l 1,11,-1
 8 4 l 1,8,-1
2 4 m 1,12,-1
 2 6 l 1,13,-1
 4 6 l 1,14,-1
 4 4 l 1,15,-1
 2 4 l 1,12,-1
10 6 m 1,16,-1
 10 8 l 1,17,-1
 12 8 l 1,18,-1
 12 6 l 1,19,-1
 10 6 l 1,16,-1
4 6 m 1,20,-1
 4 8 l 1,21,-1
 6 8 l 1,22,-1
 6 6 l 1,23,-1
 4 6 l 1,20,-1
10 8 m 1,24,-1
 8 8 l 1,25,-1
 8 10 l 1,26,-1
 10 10 l 1,27,-1
 10 8 l 1,24,-1
4 8 m 1,28,-1
 2 8 l 1,29,-1
 2 10 l 1,30,-1
 4 10 l 1,31,-1
 4 8 l 1,28,-1
8 10 m 1,32,-1
 6 10 l 1,33,-1
 6 12 l 1,34,-1
 8 12 l 1,35,-1
 8 10 l 1,32,-1
2 10 m 1,36,-1
 0 10 l 1,37,-1
 0 12 l 1,38,-1
 2 12 l 1,39,-1
 2 10 l 1,36,-1
EndSplineSet
Validated: 5
EndChar

StartChar: onequarter
Encoding: 123 188 123
Width: 12
VWidth: 16
GlyphClass: 2
Flags: W
LayerCount: 3
Fore
SplineSet
10 0 m 1,0,-1
 10 2 l 1,1,-1
 8 2 l 1,2,-1
 6 2 l 1,3,-1
 6 4 l 1,4,-1
 6 6 l 1,5,-1
 8 6 l 1,6,-1
 8 8 l 1,7,-1
 10 8 l 1,8,-1
 12 8 l 1,9,-1
 12 6 l 1,10,-1
 12 4 l 1,11,-1
 12 2 l 1,12,-1
 12 0 l 1,13,-1
 10 0 l 1,0,-1
0 0 m 1,14,-1
 0 2 l 1,15,-1
 2 2 l 1,16,-1
 2 0 l 1,17,-1
 0 0 l 1,14,-1
2 2 m 1,18,-1
 2 4 l 1,19,-1
 2 6 l 1,20,-1
 4 6 l 1,21,-1
 4 4 l 1,22,-1
 4 2 l 1,23,-1
 2 2 l 1,18,-1
10 4 m 1,24,-1
 10 6 l 1,25,-1
 8 6 l 1,26,-1
 8 4 l 1,27,-1
 10 4 l 1,24,-1
6 6 m 1,28,-1
 4 6 l 1,29,-1
 4 8 l 1,30,-1
 6 8 l 1,31,-1
 6 6 l 1,28,-1
8 8 m 1,32,-1
 6 8 l 1,33,-1
 6 10 l 1,34,-1
 6 12 l 1,35,-1
 8 12 l 1,36,-1
 8 10 l 1,37,-1
 8 8 l 1,32,-1
4 8 m 1,38,-1
 2 8 l 1,39,-1
 2 10 l 1,40,-1
 2 12 l 1,41,-1
 0 12 l 1,42,-1
 0 14 l 1,43,-1
 2 14 l 1,44,-1
 2 16 l 1,45,-1
 4 16 l 1,46,-1
 4 14 l 1,47,-1
 4 12 l 1,48,-1
 4 10 l 1,49,-1
 4 8 l 1,38,-1
8 12 m 1,50,-1
 8 14 l 1,51,-1
 10 14 l 1,52,-1
 10 12 l 1,53,-1
 8 12 l 1,50,-1
EndSplineSet
Validated: 5
EndChar

StartChar: onehalf
Encoding: 124 189 124
Width: 12
VWidth: 16
GlyphClass: 2
Flags: W
LayerCount: 3
Fore
SplineSet
0 0 m 1,0,-1
 0 2 l 1,1,-1
 2 2 l 1,2,-1
 2 0 l 1,3,-1
 0 0 l 1,0,-1
10 0 m 1,4,-1
 8 0 l 1,5,-1
 8 2 l 1,6,-1
 8 4 l 1,7,-1
 10 4 l 1,8,-1
 10 2 l 1,9,-1
 12 2 l 1,10,-1
 12 0 l 1,11,-1
 10 0 l 1,4,-1
2 2 m 1,12,-1
 2 4 l 1,13,-1
 2 6 l 1,14,-1
 4 6 l 1,15,-1
 4 4 l 1,16,-1
 4 2 l 1,17,-1
 2 2 l 1,12,-1
10 4 m 1,18,-1
 10 6 l 1,19,-1
 8 6 l 1,20,-1
 8 8 l 1,21,-1
 10 8 l 1,22,-1
 12 8 l 1,23,-1
 12 6 l 1,24,-1
 12 4 l 1,25,-1
 10 4 l 1,18,-1
4 6 m 1,26,-1
 4 8 l 1,27,-1
 6 8 l 1,28,-1
 6 6 l 1,29,-1
 4 6 l 1,26,-1
8 8 m 1,30,-1
 6 8 l 1,31,-1
 6 10 l 1,32,-1
 6 12 l 1,33,-1
 8 12 l 1,34,-1
 8 10 l 1,35,-1
 8 8 l 1,30,-1
4 8 m 1,36,-1
 2 8 l 1,37,-1
 2 10 l 1,38,-1
 2 12 l 1,39,-1
 0 12 l 1,40,-1
 0 14 l 1,41,-1
 2 14 l 1,42,-1
 2 16 l 1,43,-1
 4 16 l 1,44,-1
 4 14 l 1,45,-1
 4 12 l 1,46,-1
 4 10 l 1,47,-1
 4 8 l 1,36,-1
8 12 m 1,48,-1
 8 14 l 1,49,-1
 10 14 l 1,50,-1
 10 12 l 1,51,-1
 8 12 l 1,48,-1
EndSplineSet
Validated: 5
EndChar

StartChar: threequarters
Encoding: 125 190 125
Width: 12
VWidth: 16
GlyphClass: 2
Flags: W
LayerCount: 3
Fore
SplineSet
10 0 m 1,0,-1
 10 2 l 1,1,-1
 8 2 l 1,2,-1
 6 2 l 1,3,-1
 6 4 l 1,4,-1
 6 6 l 1,5,-1
 8 6 l 1,6,-1
 8 8 l 1,7,-1
 10 8 l 1,8,-1
 12 8 l 1,9,-1
 12 6 l 1,10,-1
 12 4 l 1,11,-1
 12 2 l 1,12,-1
 12 0 l 1,13,-1
 10 0 l 1,0,-1
0 0 m 1,14,-1
 0 2 l 1,15,-1
 2 2 l 1,16,-1
 2 0 l 1,17,-1
 0 0 l 1,14,-1
2 2 m 1,18,-1
 2 4 l 1,19,-1
 2 6 l 1,20,-1
 4 6 l 1,21,-1
 4 4 l 1,22,-1
 4 2 l 1,23,-1
 2 2 l 1,18,-1
10 4 m 1,24,-1
 10 6 l 1,25,-1
 8 6 l 1,26,-1
 8 4 l 1,27,-1
 10 4 l 1,24,-1
6 6 m 1,28,-1
 4 6 l 1,29,-1
 4 8 l 1,30,-1
 6 8 l 1,31,-1
 6 6 l 1,28,-1
8 8 m 1,32,-1
 6 8 l 1,33,-1
 6 10 l 1,34,-1
 4 10 l 1,35,-1
 4 8 l 1,36,-1
 2 8 l 1,37,-1
 0 8 l 1,38,-1
 0 10 l 1,39,-1
 2 10 l 1,40,-1
 4 10 l 1,41,-1
 4 12 l 1,42,-1
 6 12 l 1,43,-1
 8 12 l 1,44,-1
 8 10 l 1,45,-1
 8 8 l 1,32,-1
8 12 m 1,46,-1
 8 14 l 1,47,-1
 10 14 l 1,48,-1
 10 12 l 1,49,-1
 8 12 l 1,46,-1
4 12 m 1,50,-1
 2 12 l 1,51,-1
 2 14 l 1,52,-1
 0 14 l 1,53,-1
 0 16 l 1,54,-1
 2 16 l 1,55,-1
 4 16 l 1,56,-1
 6 16 l 1,57,-1
 6 14 l 1,58,-1
 4 14 l 1,59,-1
 4 12 l 1,50,-1
EndSplineSet
Validated: 5
EndChar

StartChar: questiondown
Encoding: 126 191 126
Width: 12
VWidth: 16
GlyphClass: 2
Flags: W
LayerCount: 3
Fore
SplineSet
4 10 m 1,0,-1
 4 12 l 1,1,-1
 6 12 l 1,2,-1
 6 10 l 1,3,-1
 4 10 l 1,0,-1
6 0 m 1,4,-1
 8 0 l 1,5,-1
 8 -2 l 1,6,-1
 6 -2 l 1,7,-1
 4 -2 l 1,8,-1
 2 -2 l 1,9,-1
 2 0 l 1,10,-1
 4 0 l 1,11,-1
 6 0 l 1,4,-1
8 0 m 1,12,-1
 8 2 l 1,13,-1
 10 2 l 1,14,-1
 10 0 l 1,15,-1
 8 0 l 1,12,-1
2 0 m 1,16,-1
 0 0 l 1,17,-1
 0 2 l 1,18,-1
 0 4 l 1,19,-1
 2 4 l 1,20,-1
 2 2 l 1,21,-1
 2 0 l 1,16,-1
2 4 m 1,22,-1
 2 6 l 1,23,-1
 4 6 l 1,24,-1
 4 4 l 1,25,-1
 2 4 l 1,22,-1
4 6 m 1,26,-1
 4 8 l 1,27,-1
 6 8 l 1,28,-1
 6 6 l 1,29,-1
 4 6 l 1,26,-1
EndSplineSet
Validated: 5
EndChar

StartChar: Agrave
Encoding: 127 192 127
Width: 12
VWidth: 16
GlyphClass: 2
Flags: W
LayerCount: 3
Fore
SplineSet
8 0 m 1,0,-1
 8 2 l 1,1,-1
 8 4 l 1,2,-1
 8 6 l 1,3,-1
 8 8 l 1,4,-1
 6 8 l 1,5,-1
 4 8 l 1,6,-1
 2 8 l 1,7,-1
 2 6 l 1,8,-1
 2 4 l 1,9,-1
 2 2 l 1,10,-1
 2 0 l 1,11,-1
 0 0 l 1,12,-1
 0 2 l 1,13,-1
 0 4 l 1,14,-1
 0 6 l 1,15,-1
 0 8 l 1,16,-1
 0 10 l 1,17,-1
 0 12 l 1,18,-1
 2 12 l 1,19,-1
 2 10 l 1,20,-1
 4 10 l 1,21,-1
 6 10 l 1,22,-1
 8 10 l 1,23,-1
 8 12 l 1,24,-1
 10 12 l 1,25,-1
 10 10 l 1,26,-1
 10 8 l 1,27,-1
 10 6 l 1,28,-1
 10 4 l 1,29,-1
 10 2 l 1,30,-1
 10 0 l 1,31,-1
 8 0 l 1,0,-1
4 16 m 1,32,-1
 4 18 l 1,33,-1
 6 18 l 1,34,-1
 6 16 l 1,35,-1
 4 16 l 1,32,-1
8 12 m 1,36,-1
 6 12 l 1,37,-1
 4 12 l 1,38,-1
 2 12 l 1,39,-1
 2 14 l 1,40,-1
 4 14 l 1,41,-1
 6 14 l 1,42,-1
 8 14 l 1,43,-1
 8 12 l 1,36,-1
4 18 m 1,44,-1
 2 18 l 1,45,-1
 2 20 l 1,46,-1
 4 20 l 1,47,-1
 4 18 l 1,44,-1
EndSplineSet
Validated: 5
EndChar

StartChar: Aacute
Encoding: 128 193 128
Width: 12
VWidth: 16
GlyphClass: 2
Flags: W
LayerCount: 3
Fore
SplineSet
8 0 m 1,0,-1
 8 2 l 1,1,-1
 8 4 l 1,2,-1
 8 6 l 1,3,-1
 8 8 l 1,4,-1
 6 8 l 1,5,-1
 4 8 l 1,6,-1
 2 8 l 1,7,-1
 2 6 l 1,8,-1
 2 4 l 1,9,-1
 2 2 l 1,10,-1
 2 0 l 1,11,-1
 0 0 l 1,12,-1
 0 2 l 1,13,-1
 0 4 l 1,14,-1
 0 6 l 1,15,-1
 0 8 l 1,16,-1
 0 10 l 1,17,-1
 0 12 l 1,18,-1
 2 12 l 1,19,-1
 2 10 l 1,20,-1
 4 10 l 1,21,-1
 6 10 l 1,22,-1
 8 10 l 1,23,-1
 8 12 l 1,24,-1
 10 12 l 1,25,-1
 10 10 l 1,26,-1
 10 8 l 1,27,-1
 10 6 l 1,28,-1
 10 4 l 1,29,-1
 10 2 l 1,30,-1
 10 0 l 1,31,-1
 8 0 l 1,0,-1
4 16 m 1,32,-1
 4 18 l 1,33,-1
 6 18 l 1,34,-1
 6 16 l 1,35,-1
 4 16 l 1,32,-1
8 12 m 1,36,-1
 6 12 l 1,37,-1
 4 12 l 1,38,-1
 2 12 l 1,39,-1
 2 14 l 1,40,-1
 4 14 l 1,41,-1
 6 14 l 1,42,-1
 8 14 l 1,43,-1
 8 12 l 1,36,-1
6 18 m 1,44,-1
 6 20 l 1,45,-1
 8 20 l 1,46,-1
 8 18 l 1,47,-1
 6 18 l 1,44,-1
EndSplineSet
Validated: 5
EndChar

StartChar: Acircumflex
Encoding: 129 194 129
Width: 12
VWidth: 16
GlyphClass: 2
Flags: W
LayerCount: 3
Fore
SplineSet
8 0 m 1,0,-1
 8 2 l 1,1,-1
 8 4 l 1,2,-1
 8 6 l 1,3,-1
 8 8 l 1,4,-1
 6 8 l 1,5,-1
 4 8 l 1,6,-1
 2 8 l 1,7,-1
 2 6 l 1,8,-1
 2 4 l 1,9,-1
 2 2 l 1,10,-1
 2 0 l 1,11,-1
 0 0 l 1,12,-1
 0 2 l 1,13,-1
 0 4 l 1,14,-1
 0 6 l 1,15,-1
 0 8 l 1,16,-1
 0 10 l 1,17,-1
 0 12 l 1,18,-1
 2 12 l 1,19,-1
 2 10 l 1,20,-1
 4 10 l 1,21,-1
 6 10 l 1,22,-1
 8 10 l 1,23,-1
 8 12 l 1,24,-1
 10 12 l 1,25,-1
 10 10 l 1,26,-1
 10 8 l 1,27,-1
 10 6 l 1,28,-1
 10 4 l 1,29,-1
 10 2 l 1,30,-1
 10 0 l 1,31,-1
 8 0 l 1,0,-1
6 16 m 1,32,-1
 6 18 l 1,33,-1
 8 18 l 1,34,-1
 8 16 l 1,35,-1
 6 16 l 1,32,-1
2 16 m 1,36,-1
 2 18 l 1,37,-1
 4 18 l 1,38,-1
 4 16 l 1,39,-1
 2 16 l 1,36,-1
8 12 m 1,40,-1
 6 12 l 1,41,-1
 4 12 l 1,42,-1
 2 12 l 1,43,-1
 2 14 l 1,44,-1
 4 14 l 1,45,-1
 6 14 l 1,46,-1
 8 14 l 1,47,-1
 8 12 l 1,40,-1
6 18 m 1,48,-1
 4 18 l 1,49,-1
 4 20 l 1,50,-1
 6 20 l 1,51,-1
 6 18 l 1,48,-1
EndSplineSet
Validated: 5
EndChar

StartChar: Atilde
Encoding: 130 195 130
Width: 12
VWidth: 16
GlyphClass: 2
Flags: W
LayerCount: 3
Fore
SplineSet
8 0 m 1,0,-1
 8 2 l 1,1,-1
 8 4 l 1,2,-1
 8 6 l 1,3,-1
 8 8 l 1,4,-1
 6 8 l 1,5,-1
 4 8 l 1,6,-1
 2 8 l 1,7,-1
 2 6 l 1,8,-1
 2 4 l 1,9,-1
 2 2 l 1,10,-1
 2 0 l 1,11,-1
 0 0 l 1,12,-1
 0 2 l 1,13,-1
 0 4 l 1,14,-1
 0 6 l 1,15,-1
 0 8 l 1,16,-1
 0 10 l 1,17,-1
 0 12 l 1,18,-1
 2 12 l 1,19,-1
 2 10 l 1,20,-1
 4 10 l 1,21,-1
 6 10 l 1,22,-1
 8 10 l 1,23,-1
 8 12 l 1,24,-1
 10 12 l 1,25,-1
 10 10 l 1,26,-1
 10 8 l 1,27,-1
 10 6 l 1,28,-1
 10 4 l 1,29,-1
 10 2 l 1,30,-1
 10 0 l 1,31,-1
 8 0 l 1,0,-1
6 16 m 1,32,-1
 6 18 l 1,33,-1
 8 18 l 1,34,-1
 8 16 l 1,35,-1
 6 16 l 1,32,-1
2 16 m 1,36,-1
 2 18 l 1,37,-1
 4 18 l 1,38,-1
 4 16 l 1,39,-1
 2 16 l 1,36,-1
8 12 m 1,40,-1
 6 12 l 1,41,-1
 4 12 l 1,42,-1
 2 12 l 1,43,-1
 2 14 l 1,44,-1
 4 14 l 1,45,-1
 6 14 l 1,46,-1
 8 14 l 1,47,-1
 8 12 l 1,40,-1
8 18 m 1,48,-1
 8 20 l 1,49,-1
 10 20 l 1,50,-1
 10 18 l 1,51,-1
 8 18 l 1,48,-1
6 18 m 1,52,-1
 4 18 l 1,53,-1
 4 20 l 1,54,-1
 6 20 l 1,55,-1
 6 18 l 1,52,-1
EndSplineSet
Validated: 5
EndChar

StartChar: Adieresis
Encoding: 131 196 131
Width: 12
VWidth: 16
GlyphClass: 2
Flags: W
LayerCount: 3
Fore
SplineSet
8 0 m 1,0,-1
 8 2 l 1,1,-1
 8 4 l 1,2,-1
 8 6 l 1,3,-1
 8 8 l 1,4,-1
 6 8 l 1,5,-1
 4 8 l 1,6,-1
 2 8 l 1,7,-1
 2 6 l 1,8,-1
 2 4 l 1,9,-1
 2 2 l 1,10,-1
 2 0 l 1,11,-1
 0 0 l 1,12,-1
 0 2 l 1,13,-1
 0 4 l 1,14,-1
 0 6 l 1,15,-1
 0 8 l 1,16,-1
 0 10 l 1,17,-1
 0 12 l 1,18,-1
 2 12 l 1,19,-1
 2 10 l 1,20,-1
 4 10 l 1,21,-1
 6 10 l 1,22,-1
 8 10 l 1,23,-1
 8 12 l 1,24,-1
 10 12 l 1,25,-1
 10 10 l 1,26,-1
 10 8 l 1,27,-1
 10 6 l 1,28,-1
 10 4 l 1,29,-1
 10 2 l 1,30,-1
 10 0 l 1,31,-1
 8 0 l 1,0,-1
6 16 m 1,32,-1
 6 18 l 1,33,-1
 8 18 l 1,34,-1
 8 16 l 1,35,-1
 6 16 l 1,32,-1
2 16 m 1,36,-1
 2 18 l 1,37,-1
 4 18 l 1,38,-1
 4 16 l 1,39,-1
 2 16 l 1,36,-1
8 12 m 1,40,-1
 6 12 l 1,41,-1
 4 12 l 1,42,-1
 2 12 l 1,43,-1
 2 14 l 1,44,-1
 4 14 l 1,45,-1
 6 14 l 1,46,-1
 8 14 l 1,47,-1
 8 12 l 1,40,-1
EndSplineSet
Validated: 5
EndChar

StartChar: Aring
Encoding: 132 197 132
Width: 12
VWidth: 16
GlyphClass: 2
Flags: W
LayerCount: 3
Fore
SplineSet
8 0 m 1,0,-1
 8 2 l 1,1,-1
 8 4 l 1,2,-1
 8 6 l 1,3,-1
 8 8 l 1,4,-1
 6 8 l 1,5,-1
 4 8 l 1,6,-1
 2 8 l 1,7,-1
 2 6 l 1,8,-1
 2 4 l 1,9,-1
 2 2 l 1,10,-1
 2 0 l 1,11,-1
 0 0 l 1,12,-1
 0 2 l 1,13,-1
 0 4 l 1,14,-1
 0 6 l 1,15,-1
 0 8 l 1,16,-1
 0 10 l 1,17,-1
 0 12 l 1,18,-1
 2 12 l 1,19,-1
 2 10 l 1,20,-1
 4 10 l 1,21,-1
 6 10 l 1,22,-1
 8 10 l 1,23,-1
 8 12 l 1,24,-1
 10 12 l 1,25,-1
 10 10 l 1,26,-1
 10 8 l 1,27,-1
 10 6 l 1,28,-1
 10 4 l 1,29,-1
 10 2 l 1,30,-1
 10 0 l 1,31,-1
 8 0 l 1,0,-1
8 12 m 1,32,-1
 6 12 l 1,33,-1
 4 12 l 1,34,-1
 2 12 l 1,35,-1
 2 14 l 1,36,-1
 4 14 l 1,37,-1
 4 16 l 1,38,-1
 6 16 l 1,39,-1
 6 14 l 1,40,-1
 8 14 l 1,41,-1
 8 12 l 1,32,-1
6 16 m 1,42,-1
 6 18 l 1,43,-1
 8 18 l 1,44,-1
 8 16 l 1,45,-1
 6 16 l 1,42,-1
4 16 m 1,46,-1
 2 16 l 1,47,-1
 2 18 l 1,48,-1
 4 18 l 1,49,-1
 4 16 l 1,46,-1
6 18 m 1,50,-1
 4 18 l 1,51,-1
 4 20 l 1,52,-1
 6 20 l 1,53,-1
 6 18 l 1,50,-1
EndSplineSet
Validated: 5
EndChar

StartChar: AE
Encoding: 133 198 133
Width: 12
VWidth: 16
GlyphClass: 2
Flags: W
LayerCount: 3
Fore
SplineSet
0 0 m 1,0,-1
 0 2 l 1,1,-1
 0 4 l 1,2,-1
 0 6 l 1,3,-1
 0 8 l 1,4,-1
 0 10 l 1,5,-1
 0 12 l 1,6,-1
 2 12 l 1,7,-1
 2 14 l 1,8,-1
 4 14 l 1,9,-1
 6 14 l 1,10,-1
 8 14 l 1,11,-1
 10 14 l 1,12,-1
 10 12 l 1,13,-1
 8 12 l 1,14,-1
 6 12 l 1,15,-1
 6 10 l 1,16,-1
 8 10 l 1,17,-1
 8 8 l 1,18,-1
 6 8 l 1,19,-1
 6 6 l 1,20,-1
 6 4 l 1,21,-1
 6 2 l 1,22,-1
 8 2 l 1,23,-1
 10 2 l 1,24,-1
 10 0 l 1,25,-1
 8 0 l 1,26,-1
 6 0 l 1,27,-1
 4 0 l 1,28,-1
 4 2 l 1,29,-1
 4 4 l 1,30,-1
 4 6 l 1,31,-1
 4 8 l 1,32,-1
 2 8 l 1,33,-1
 2 6 l 1,34,-1
 2 4 l 1,35,-1
 2 2 l 1,36,-1
 2 0 l 1,37,-1
 0 0 l 1,0,-1
4 10 m 1,38,-1
 4 12 l 1,39,-1
 2 12 l 1,40,-1
 2 10 l 1,41,-1
 4 10 l 1,38,-1
EndSplineSet
Validated: 5
EndChar

StartChar: Ccedilla
Encoding: 134 199 134
Width: 12
VWidth: 16
GlyphClass: 2
Flags: W
LayerCount: 3
Fore
SplineSet
4 -4 m 1,0,-1
 4 -2 l 1,1,-1
 6 -2 l 1,2,-1
 6 -4 l 1,3,-1
 4 -4 l 1,0,-1
8 10 m 1,4,-1
 8 12 l 1,5,-1
 10 12 l 1,6,-1
 10 10 l 1,7,-1
 8 10 l 1,4,-1
6 -2 m 1,8,-1
 6 0 l 1,9,-1
 4 0 l 1,10,-1
 2 0 l 1,11,-1
 2 2 l 1,12,-1
 4 2 l 1,13,-1
 6 2 l 1,14,-1
 8 2 l 1,15,-1
 8 0 l 1,16,-1
 8 -2 l 1,17,-1
 6 -2 l 1,8,-1
8 2 m 1,18,-1
 8 4 l 1,19,-1
 10 4 l 1,20,-1
 10 2 l 1,21,-1
 8 2 l 1,18,-1
2 2 m 1,22,-1
 0 2 l 1,23,-1
 0 4 l 1,24,-1
 0 6 l 1,25,-1
 0 8 l 1,26,-1
 0 10 l 1,27,-1
 0 12 l 1,28,-1
 2 12 l 1,29,-1
 2 10 l 1,30,-1
 2 8 l 1,31,-1
 2 6 l 1,32,-1
 2 4 l 1,33,-1
 2 2 l 1,22,-1
8 12 m 1,34,-1
 6 12 l 1,35,-1
 4 12 l 1,36,-1
 2 12 l 1,37,-1
 2 14 l 1,38,-1
 4 14 l 1,39,-1
 6 14 l 1,40,-1
 8 14 l 1,41,-1
 8 12 l 1,34,-1
EndSplineSet
Validated: 5
EndChar

StartChar: Egrave
Encoding: 135 200 135
Width: 12
VWidth: 16
GlyphClass: 2
Flags: W
LayerCount: 3
Fore
SplineSet
4 16 m 1,0,-1
 4 18 l 1,1,-1
 6 18 l 1,2,-1
 6 16 l 1,3,-1
 4 16 l 1,0,-1
8 2 m 1,4,-1
 10 2 l 1,5,-1
 10 0 l 1,6,-1
 8 0 l 1,7,-1
 6 0 l 1,8,-1
 4 0 l 1,9,-1
 2 0 l 1,10,-1
 0 0 l 1,11,-1
 0 2 l 1,12,-1
 0 4 l 1,13,-1
 0 6 l 1,14,-1
 0 8 l 1,15,-1
 0 10 l 1,16,-1
 0 12 l 1,17,-1
 0 14 l 1,18,-1
 2 14 l 1,19,-1
 4 14 l 1,20,-1
 6 14 l 1,21,-1
 8 14 l 1,22,-1
 10 14 l 1,23,-1
 10 12 l 1,24,-1
 8 12 l 1,25,-1
 6 12 l 1,26,-1
 4 12 l 1,27,-1
 2 12 l 1,28,-1
 2 10 l 1,29,-1
 4 10 l 1,30,-1
 6 10 l 1,31,-1
 6 8 l 1,32,-1
 4 8 l 1,33,-1
 2 8 l 1,34,-1
 2 6 l 1,35,-1
 2 4 l 1,36,-1
 2 2 l 1,37,-1
 4 2 l 1,38,-1
 6 2 l 1,39,-1
 8 2 l 1,4,-1
4 18 m 1,40,-1
 2 18 l 1,41,-1
 2 20 l 1,42,-1
 4 20 l 1,43,-1
 4 18 l 1,40,-1
EndSplineSet
Validated: 5
EndChar

StartChar: Eacute
Encoding: 136 201 136
Width: 12
VWidth: 16
GlyphClass: 2
Flags: W
LayerCount: 3
Fore
SplineSet
4 16 m 1,0,-1
 4 18 l 1,1,-1
 6 18 l 1,2,-1
 6 16 l 1,3,-1
 4 16 l 1,0,-1
8 2 m 1,4,-1
 10 2 l 1,5,-1
 10 0 l 1,6,-1
 8 0 l 1,7,-1
 6 0 l 1,8,-1
 4 0 l 1,9,-1
 2 0 l 1,10,-1
 0 0 l 1,11,-1
 0 2 l 1,12,-1
 0 4 l 1,13,-1
 0 6 l 1,14,-1
 0 8 l 1,15,-1
 0 10 l 1,16,-1
 0 12 l 1,17,-1
 0 14 l 1,18,-1
 2 14 l 1,19,-1
 4 14 l 1,20,-1
 6 14 l 1,21,-1
 8 14 l 1,22,-1
 10 14 l 1,23,-1
 10 12 l 1,24,-1
 8 12 l 1,25,-1
 6 12 l 1,26,-1
 4 12 l 1,27,-1
 2 12 l 1,28,-1
 2 10 l 1,29,-1
 4 10 l 1,30,-1
 6 10 l 1,31,-1
 6 8 l 1,32,-1
 4 8 l 1,33,-1
 2 8 l 1,34,-1
 2 6 l 1,35,-1
 2 4 l 1,36,-1
 2 2 l 1,37,-1
 4 2 l 1,38,-1
 6 2 l 1,39,-1
 8 2 l 1,4,-1
6 18 m 1,40,-1
 6 20 l 1,41,-1
 8 20 l 1,42,-1
 8 18 l 1,43,-1
 6 18 l 1,40,-1
EndSplineSet
Validated: 5
EndChar

StartChar: Ecircumflex
Encoding: 137 202 137
Width: 12
VWidth: 16
GlyphClass: 2
Flags: W
LayerCount: 3
Fore
SplineSet
6 16 m 1,0,-1
 6 18 l 1,1,-1
 8 18 l 1,2,-1
 8 16 l 1,3,-1
 6 16 l 1,0,-1
2 16 m 1,4,-1
 2 18 l 1,5,-1
 4 18 l 1,6,-1
 4 16 l 1,7,-1
 2 16 l 1,4,-1
8 2 m 1,8,-1
 10 2 l 1,9,-1
 10 0 l 1,10,-1
 8 0 l 1,11,-1
 6 0 l 1,12,-1
 4 0 l 1,13,-1
 2 0 l 1,14,-1
 0 0 l 1,15,-1
 0 2 l 1,16,-1
 0 4 l 1,17,-1
 0 6 l 1,18,-1
 0 8 l 1,19,-1
 0 10 l 1,20,-1
 0 12 l 1,21,-1
 0 14 l 1,22,-1
 2 14 l 1,23,-1
 4 14 l 1,24,-1
 6 14 l 1,25,-1
 8 14 l 1,26,-1
 10 14 l 1,27,-1
 10 12 l 1,28,-1
 8 12 l 1,29,-1
 6 12 l 1,30,-1
 4 12 l 1,31,-1
 2 12 l 1,32,-1
 2 10 l 1,33,-1
 4 10 l 1,34,-1
 6 10 l 1,35,-1
 6 8 l 1,36,-1
 4 8 l 1,37,-1
 2 8 l 1,38,-1
 2 6 l 1,39,-1
 2 4 l 1,40,-1
 2 2 l 1,41,-1
 4 2 l 1,42,-1
 6 2 l 1,43,-1
 8 2 l 1,8,-1
6 18 m 1,44,-1
 4 18 l 1,45,-1
 4 20 l 1,46,-1
 6 20 l 1,47,-1
 6 18 l 1,44,-1
EndSplineSet
Validated: 5
EndChar

StartChar: Edieresis
Encoding: 138 203 138
Width: 12
VWidth: 16
GlyphClass: 2
Flags: W
LayerCount: 3
Fore
SplineSet
6 16 m 1,0,-1
 6 18 l 1,1,-1
 8 18 l 1,2,-1
 8 16 l 1,3,-1
 6 16 l 1,0,-1
2 16 m 1,4,-1
 2 18 l 1,5,-1
 4 18 l 1,6,-1
 4 16 l 1,7,-1
 2 16 l 1,4,-1
8 2 m 1,8,-1
 10 2 l 1,9,-1
 10 0 l 1,10,-1
 8 0 l 1,11,-1
 6 0 l 1,12,-1
 4 0 l 1,13,-1
 2 0 l 1,14,-1
 0 0 l 1,15,-1
 0 2 l 1,16,-1
 0 4 l 1,17,-1
 0 6 l 1,18,-1
 0 8 l 1,19,-1
 0 10 l 1,20,-1
 0 12 l 1,21,-1
 0 14 l 1,22,-1
 2 14 l 1,23,-1
 4 14 l 1,24,-1
 6 14 l 1,25,-1
 8 14 l 1,26,-1
 10 14 l 1,27,-1
 10 12 l 1,28,-1
 8 12 l 1,29,-1
 6 12 l 1,30,-1
 4 12 l 1,31,-1
 2 12 l 1,32,-1
 2 10 l 1,33,-1
 4 10 l 1,34,-1
 6 10 l 1,35,-1
 6 8 l 1,36,-1
 4 8 l 1,37,-1
 2 8 l 1,38,-1
 2 6 l 1,39,-1
 2 4 l 1,40,-1
 2 2 l 1,41,-1
 4 2 l 1,42,-1
 6 2 l 1,43,-1
 8 2 l 1,8,-1
EndSplineSet
Validated: 1
EndChar

StartChar: Igrave
Encoding: 139 204 139
Width: 12
VWidth: 16
GlyphClass: 2
Flags: W
LayerCount: 3
Fore
SplineSet
4 16 m 1,0,-1
 4 18 l 1,1,-1
 6 18 l 1,2,-1
 6 16 l 1,3,-1
 4 16 l 1,0,-1
6 0 m 1,4,-1
 4 0 l 1,5,-1
 2 0 l 1,6,-1
 2 2 l 1,7,-1
 4 2 l 1,8,-1
 4 4 l 1,9,-1
 4 6 l 1,10,-1
 4 8 l 1,11,-1
 4 10 l 1,12,-1
 4 12 l 1,13,-1
 2 12 l 1,14,-1
 2 14 l 1,15,-1
 4 14 l 1,16,-1
 6 14 l 1,17,-1
 8 14 l 1,18,-1
 8 12 l 1,19,-1
 6 12 l 1,20,-1
 6 10 l 1,21,-1
 6 8 l 1,22,-1
 6 6 l 1,23,-1
 6 4 l 1,24,-1
 6 2 l 1,25,-1
 8 2 l 1,26,-1
 8 0 l 1,27,-1
 6 0 l 1,4,-1
4 18 m 1,28,-1
 2 18 l 1,29,-1
 2 20 l 1,30,-1
 4 20 l 1,31,-1
 4 18 l 1,28,-1
EndSplineSet
Validated: 5
EndChar

StartChar: Iacute
Encoding: 140 205 140
Width: 12
VWidth: 16
GlyphClass: 2
Flags: W
LayerCount: 3
Fore
SplineSet
4 16 m 1,0,-1
 4 18 l 1,1,-1
 6 18 l 1,2,-1
 6 16 l 1,3,-1
 4 16 l 1,0,-1
6 0 m 1,4,-1
 4 0 l 1,5,-1
 2 0 l 1,6,-1
 2 2 l 1,7,-1
 4 2 l 1,8,-1
 4 4 l 1,9,-1
 4 6 l 1,10,-1
 4 8 l 1,11,-1
 4 10 l 1,12,-1
 4 12 l 1,13,-1
 2 12 l 1,14,-1
 2 14 l 1,15,-1
 4 14 l 1,16,-1
 6 14 l 1,17,-1
 8 14 l 1,18,-1
 8 12 l 1,19,-1
 6 12 l 1,20,-1
 6 10 l 1,21,-1
 6 8 l 1,22,-1
 6 6 l 1,23,-1
 6 4 l 1,24,-1
 6 2 l 1,25,-1
 8 2 l 1,26,-1
 8 0 l 1,27,-1
 6 0 l 1,4,-1
6 18 m 1,28,-1
 6 20 l 1,29,-1
 8 20 l 1,30,-1
 8 18 l 1,31,-1
 6 18 l 1,28,-1
EndSplineSet
Validated: 5
EndChar

StartChar: Icircumflex
Encoding: 141 206 141
Width: 12
VWidth: 16
GlyphClass: 2
Flags: W
LayerCount: 3
Fore
SplineSet
6 16 m 1,0,-1
 6 18 l 1,1,-1
 8 18 l 1,2,-1
 8 16 l 1,3,-1
 6 16 l 1,0,-1
2 16 m 1,4,-1
 2 18 l 1,5,-1
 4 18 l 1,6,-1
 4 16 l 1,7,-1
 2 16 l 1,4,-1
6 0 m 1,8,-1
 4 0 l 1,9,-1
 2 0 l 1,10,-1
 2 2 l 1,11,-1
 4 2 l 1,12,-1
 4 4 l 1,13,-1
 4 6 l 1,14,-1
 4 8 l 1,15,-1
 4 10 l 1,16,-1
 4 12 l 1,17,-1
 2 12 l 1,18,-1
 2 14 l 1,19,-1
 4 14 l 1,20,-1
 6 14 l 1,21,-1
 8 14 l 1,22,-1
 8 12 l 1,23,-1
 6 12 l 1,24,-1
 6 10 l 1,25,-1
 6 8 l 1,26,-1
 6 6 l 1,27,-1
 6 4 l 1,28,-1
 6 2 l 1,29,-1
 8 2 l 1,30,-1
 8 0 l 1,31,-1
 6 0 l 1,8,-1
6 18 m 1,32,-1
 4 18 l 1,33,-1
 4 20 l 1,34,-1
 6 20 l 1,35,-1
 6 18 l 1,32,-1
EndSplineSet
Validated: 5
EndChar

StartChar: Idieresis
Encoding: 142 207 142
Width: 12
VWidth: 16
GlyphClass: 2
Flags: W
LayerCount: 3
Fore
SplineSet
6 16 m 1,0,-1
 6 18 l 1,1,-1
 8 18 l 1,2,-1
 8 16 l 1,3,-1
 6 16 l 1,0,-1
2 16 m 1,4,-1
 2 18 l 1,5,-1
 4 18 l 1,6,-1
 4 16 l 1,7,-1
 2 16 l 1,4,-1
6 0 m 1,8,-1
 4 0 l 1,9,-1
 2 0 l 1,10,-1
 2 2 l 1,11,-1
 4 2 l 1,12,-1
 4 4 l 1,13,-1
 4 6 l 1,14,-1
 4 8 l 1,15,-1
 4 10 l 1,16,-1
 4 12 l 1,17,-1
 2 12 l 1,18,-1
 2 14 l 1,19,-1
 4 14 l 1,20,-1
 6 14 l 1,21,-1
 8 14 l 1,22,-1
 8 12 l 1,23,-1
 6 12 l 1,24,-1
 6 10 l 1,25,-1
 6 8 l 1,26,-1
 6 6 l 1,27,-1
 6 4 l 1,28,-1
 6 2 l 1,29,-1
 8 2 l 1,30,-1
 8 0 l 1,31,-1
 6 0 l 1,8,-1
EndSplineSet
Validated: 1
EndChar

StartChar: Eth
Encoding: 143 208 143
Width: 12
VWidth: 16
GlyphClass: 2
Flags: W
LayerCount: 3
Fore
SplineSet
8 2 m 1,0,-1
 10 2 l 1,1,-1
 10 4 l 1,2,-1
 10 6 l 1,3,-1
 10 8 l 1,4,-1
 10 10 l 1,5,-1
 10 12 l 1,6,-1
 8 12 l 1,7,-1
 6 12 l 1,8,-1
 4 12 l 1,9,-1
 4 10 l 1,10,-1
 6 10 l 1,11,-1
 6 8 l 1,12,-1
 4 8 l 1,13,-1
 4 6 l 1,14,-1
 4 4 l 1,15,-1
 4 2 l 1,16,-1
 6 2 l 1,17,-1
 8 2 l 1,0,-1
8 0 m 1,18,-1
 6 0 l 1,19,-1
 4 0 l 1,20,-1
 2 0 l 1,21,-1
 2 2 l 1,22,-1
 2 4 l 1,23,-1
 2 6 l 1,24,-1
 2 8 l 1,25,-1
 0 8 l 1,26,-1
 0 10 l 1,27,-1
 2 10 l 1,28,-1
 2 12 l 1,29,-1
 2 14 l 1,30,-1
 4 14 l 1,31,-1
 6 14 l 1,32,-1
 8 14 l 1,33,-1
 10 14 l 1,34,-1
 10 12 l 1,35,-1
 12 12 l 1,36,-1
 12 10 l 1,37,-1
 12 8 l 1,38,-1
 12 6 l 1,39,-1
 12 4 l 1,40,-1
 12 2 l 1,41,-1
 10 2 l 1,42,-1
 10 0 l 1,43,-1
 8 0 l 1,18,-1
EndSplineSet
Validated: 5
EndChar

StartChar: Ntilde
Encoding: 144 209 144
Width: 12
VWidth: 16
GlyphClass: 2
Flags: W
LayerCount: 3
Fore
SplineSet
8 0 m 1,0,-1
 8 2 l 1,1,-1
 8 4 l 1,2,-1
 8 6 l 1,3,-1
 6 6 l 1,4,-1
 6 8 l 1,5,-1
 8 8 l 1,6,-1
 8 10 l 1,7,-1
 8 12 l 1,8,-1
 8 14 l 1,9,-1
 10 14 l 1,10,-1
 10 12 l 1,11,-1
 10 10 l 1,12,-1
 10 8 l 1,13,-1
 10 6 l 1,14,-1
 10 4 l 1,15,-1
 10 2 l 1,16,-1
 10 0 l 1,17,-1
 8 0 l 1,0,-1
0 0 m 1,18,-1
 0 2 l 1,19,-1
 0 4 l 1,20,-1
 0 6 l 1,21,-1
 0 8 l 1,22,-1
 0 10 l 1,23,-1
 0 12 l 1,24,-1
 0 14 l 1,25,-1
 2 14 l 1,26,-1
 2 12 l 1,27,-1
 4 12 l 1,28,-1
 4 10 l 1,29,-1
 6 10 l 1,30,-1
 6 8 l 1,31,-1
 4 8 l 1,32,-1
 4 10 l 1,33,-1
 2 10 l 1,34,-1
 2 8 l 1,35,-1
 2 6 l 1,36,-1
 2 4 l 1,37,-1
 2 2 l 1,38,-1
 2 0 l 1,39,-1
 0 0 l 1,18,-1
6 16 m 1,40,-1
 6 18 l 1,41,-1
 8 18 l 1,42,-1
 8 16 l 1,43,-1
 6 16 l 1,40,-1
2 16 m 1,44,-1
 2 18 l 1,45,-1
 4 18 l 1,46,-1
 4 16 l 1,47,-1
 2 16 l 1,44,-1
8 18 m 1,48,-1
 8 20 l 1,49,-1
 10 20 l 1,50,-1
 10 18 l 1,51,-1
 8 18 l 1,48,-1
6 18 m 1,52,-1
 4 18 l 1,53,-1
 4 20 l 1,54,-1
 6 20 l 1,55,-1
 6 18 l 1,52,-1
EndSplineSet
Validated: 5
EndChar

StartChar: Ograve
Encoding: 145 210 145
Width: 12
VWidth: 16
GlyphClass: 2
Flags: W
LayerCount: 3
Fore
SplineSet
4 16 m 1,0,-1
 4 18 l 1,1,-1
 6 18 l 1,2,-1
 6 16 l 1,3,-1
 4 16 l 1,0,-1
6 2 m 1,4,-1
 8 2 l 1,5,-1
 8 0 l 1,6,-1
 6 0 l 1,7,-1
 4 0 l 1,8,-1
 2 0 l 1,9,-1
 2 2 l 1,10,-1
 4 2 l 1,11,-1
 6 2 l 1,4,-1
8 2 m 1,12,-1
 8 4 l 1,13,-1
 8 6 l 1,14,-1
 8 8 l 1,15,-1
 8 10 l 1,16,-1
 8 12 l 1,17,-1
 10 12 l 1,18,-1
 10 10 l 1,19,-1
 10 8 l 1,20,-1
 10 6 l 1,21,-1
 10 4 l 1,22,-1
 10 2 l 1,23,-1
 8 2 l 1,12,-1
2 2 m 1,24,-1
 0 2 l 1,25,-1
 0 4 l 1,26,-1
 0 6 l 1,27,-1
 0 8 l 1,28,-1
 0 10 l 1,29,-1
 0 12 l 1,30,-1
 2 12 l 1,31,-1
 2 10 l 1,32,-1
 2 8 l 1,33,-1
 2 6 l 1,34,-1
 2 4 l 1,35,-1
 2 2 l 1,24,-1
8 12 m 1,36,-1
 6 12 l 1,37,-1
 4 12 l 1,38,-1
 2 12 l 1,39,-1
 2 14 l 1,40,-1
 4 14 l 1,41,-1
 6 14 l 1,42,-1
 8 14 l 1,43,-1
 8 12 l 1,36,-1
4 18 m 1,44,-1
 2 18 l 1,45,-1
 2 20 l 1,46,-1
 4 20 l 1,47,-1
 4 18 l 1,44,-1
EndSplineSet
Validated: 5
EndChar

StartChar: Oacute
Encoding: 146 211 146
Width: 12
VWidth: 16
GlyphClass: 2
Flags: W
LayerCount: 3
Fore
SplineSet
4 16 m 1,0,-1
 4 18 l 1,1,-1
 6 18 l 1,2,-1
 6 16 l 1,3,-1
 4 16 l 1,0,-1
6 2 m 1,4,-1
 8 2 l 1,5,-1
 8 0 l 1,6,-1
 6 0 l 1,7,-1
 4 0 l 1,8,-1
 2 0 l 1,9,-1
 2 2 l 1,10,-1
 4 2 l 1,11,-1
 6 2 l 1,4,-1
8 2 m 1,12,-1
 8 4 l 1,13,-1
 8 6 l 1,14,-1
 8 8 l 1,15,-1
 8 10 l 1,16,-1
 8 12 l 1,17,-1
 10 12 l 1,18,-1
 10 10 l 1,19,-1
 10 8 l 1,20,-1
 10 6 l 1,21,-1
 10 4 l 1,22,-1
 10 2 l 1,23,-1
 8 2 l 1,12,-1
2 2 m 1,24,-1
 0 2 l 1,25,-1
 0 4 l 1,26,-1
 0 6 l 1,27,-1
 0 8 l 1,28,-1
 0 10 l 1,29,-1
 0 12 l 1,30,-1
 2 12 l 1,31,-1
 2 10 l 1,32,-1
 2 8 l 1,33,-1
 2 6 l 1,34,-1
 2 4 l 1,35,-1
 2 2 l 1,24,-1
8 12 m 1,36,-1
 6 12 l 1,37,-1
 4 12 l 1,38,-1
 2 12 l 1,39,-1
 2 14 l 1,40,-1
 4 14 l 1,41,-1
 6 14 l 1,42,-1
 8 14 l 1,43,-1
 8 12 l 1,36,-1
6 18 m 1,44,-1
 6 20 l 1,45,-1
 8 20 l 1,46,-1
 8 18 l 1,47,-1
 6 18 l 1,44,-1
EndSplineSet
Validated: 5
EndChar

StartChar: Ocircumflex
Encoding: 147 212 147
Width: 12
VWidth: 16
GlyphClass: 2
Flags: W
LayerCount: 3
Fore
SplineSet
6 16 m 1,0,-1
 6 18 l 1,1,-1
 8 18 l 1,2,-1
 8 16 l 1,3,-1
 6 16 l 1,0,-1
2 16 m 1,4,-1
 2 18 l 1,5,-1
 4 18 l 1,6,-1
 4 16 l 1,7,-1
 2 16 l 1,4,-1
6 2 m 1,8,-1
 8 2 l 1,9,-1
 8 0 l 1,10,-1
 6 0 l 1,11,-1
 4 0 l 1,12,-1
 2 0 l 1,13,-1
 2 2 l 1,14,-1
 4 2 l 1,15,-1
 6 2 l 1,8,-1
8 2 m 1,16,-1
 8 4 l 1,17,-1
 8 6 l 1,18,-1
 8 8 l 1,19,-1
 8 10 l 1,20,-1
 8 12 l 1,21,-1
 10 12 l 1,22,-1
 10 10 l 1,23,-1
 10 8 l 1,24,-1
 10 6 l 1,25,-1
 10 4 l 1,26,-1
 10 2 l 1,27,-1
 8 2 l 1,16,-1
2 2 m 1,28,-1
 0 2 l 1,29,-1
 0 4 l 1,30,-1
 0 6 l 1,31,-1
 0 8 l 1,32,-1
 0 10 l 1,33,-1
 0 12 l 1,34,-1
 2 12 l 1,35,-1
 2 10 l 1,36,-1
 2 8 l 1,37,-1
 2 6 l 1,38,-1
 2 4 l 1,39,-1
 2 2 l 1,28,-1
8 12 m 1,40,-1
 6 12 l 1,41,-1
 4 12 l 1,42,-1
 2 12 l 1,43,-1
 2 14 l 1,44,-1
 4 14 l 1,45,-1
 6 14 l 1,46,-1
 8 14 l 1,47,-1
 8 12 l 1,40,-1
6 18 m 1,48,-1
 4 18 l 1,49,-1
 4 20 l 1,50,-1
 6 20 l 1,51,-1
 6 18 l 1,48,-1
EndSplineSet
Validated: 5
EndChar

StartChar: Otilde
Encoding: 148 213 148
Width: 12
VWidth: 16
GlyphClass: 2
Flags: W
LayerCount: 3
Fore
SplineSet
6 16 m 1,0,-1
 6 18 l 1,1,-1
 8 18 l 1,2,-1
 8 16 l 1,3,-1
 6 16 l 1,0,-1
2 16 m 1,4,-1
 2 18 l 1,5,-1
 4 18 l 1,6,-1
 4 16 l 1,7,-1
 2 16 l 1,4,-1
6 2 m 1,8,-1
 8 2 l 1,9,-1
 8 0 l 1,10,-1
 6 0 l 1,11,-1
 4 0 l 1,12,-1
 2 0 l 1,13,-1
 2 2 l 1,14,-1
 4 2 l 1,15,-1
 6 2 l 1,8,-1
8 2 m 1,16,-1
 8 4 l 1,17,-1
 8 6 l 1,18,-1
 8 8 l 1,19,-1
 8 10 l 1,20,-1
 8 12 l 1,21,-1
 10 12 l 1,22,-1
 10 10 l 1,23,-1
 10 8 l 1,24,-1
 10 6 l 1,25,-1
 10 4 l 1,26,-1
 10 2 l 1,27,-1
 8 2 l 1,16,-1
2 2 m 1,28,-1
 0 2 l 1,29,-1
 0 4 l 1,30,-1
 0 6 l 1,31,-1
 0 8 l 1,32,-1
 0 10 l 1,33,-1
 0 12 l 1,34,-1
 2 12 l 1,35,-1
 2 10 l 1,36,-1
 2 8 l 1,37,-1
 2 6 l 1,38,-1
 2 4 l 1,39,-1
 2 2 l 1,28,-1
8 12 m 1,40,-1
 6 12 l 1,41,-1
 4 12 l 1,42,-1
 2 12 l 1,43,-1
 2 14 l 1,44,-1
 4 14 l 1,45,-1
 6 14 l 1,46,-1
 8 14 l 1,47,-1
 8 12 l 1,40,-1
8 18 m 1,48,-1
 8 20 l 1,49,-1
 10 20 l 1,50,-1
 10 18 l 1,51,-1
 8 18 l 1,48,-1
6 18 m 1,52,-1
 4 18 l 1,53,-1
 4 20 l 1,54,-1
 6 20 l 1,55,-1
 6 18 l 1,52,-1
EndSplineSet
Validated: 5
EndChar

StartChar: Odieresis
Encoding: 149 214 149
Width: 12
VWidth: 16
GlyphClass: 2
Flags: W
LayerCount: 3
Fore
SplineSet
6 16 m 1,0,-1
 6 18 l 1,1,-1
 8 18 l 1,2,-1
 8 16 l 1,3,-1
 6 16 l 1,0,-1
2 16 m 1,4,-1
 2 18 l 1,5,-1
 4 18 l 1,6,-1
 4 16 l 1,7,-1
 2 16 l 1,4,-1
6 2 m 1,8,-1
 8 2 l 1,9,-1
 8 0 l 1,10,-1
 6 0 l 1,11,-1
 4 0 l 1,12,-1
 2 0 l 1,13,-1
 2 2 l 1,14,-1
 4 2 l 1,15,-1
 6 2 l 1,8,-1
8 2 m 1,16,-1
 8 4 l 1,17,-1
 8 6 l 1,18,-1
 8 8 l 1,19,-1
 8 10 l 1,20,-1
 8 12 l 1,21,-1
 10 12 l 1,22,-1
 10 10 l 1,23,-1
 10 8 l 1,24,-1
 10 6 l 1,25,-1
 10 4 l 1,26,-1
 10 2 l 1,27,-1
 8 2 l 1,16,-1
2 2 m 1,28,-1
 0 2 l 1,29,-1
 0 4 l 1,30,-1
 0 6 l 1,31,-1
 0 8 l 1,32,-1
 0 10 l 1,33,-1
 0 12 l 1,34,-1
 2 12 l 1,35,-1
 2 10 l 1,36,-1
 2 8 l 1,37,-1
 2 6 l 1,38,-1
 2 4 l 1,39,-1
 2 2 l 1,28,-1
8 12 m 1,40,-1
 6 12 l 1,41,-1
 4 12 l 1,42,-1
 2 12 l 1,43,-1
 2 14 l 1,44,-1
 4 14 l 1,45,-1
 6 14 l 1,46,-1
 8 14 l 1,47,-1
 8 12 l 1,40,-1
EndSplineSet
Validated: 5
EndChar

StartChar: multiply
Encoding: 150 215 150
Width: 12
VWidth: 16
GlyphClass: 2
Flags: W
LayerCount: 3
Fore
SplineSet
8 2 m 1,0,-1
 8 4 l 1,1,-1
 10 4 l 1,2,-1
 10 2 l 1,3,-1
 8 2 l 1,0,-1
0 2 m 1,4,-1
 0 4 l 1,5,-1
 2 4 l 1,6,-1
 2 2 l 1,7,-1
 0 2 l 1,4,-1
8 4 m 1,8,-1
 6 4 l 1,9,-1
 6 6 l 1,10,-1
 8 6 l 1,11,-1
 8 4 l 1,8,-1
2 4 m 1,12,-1
 2 6 l 1,13,-1
 4 6 l 1,14,-1
 4 4 l 1,15,-1
 2 4 l 1,12,-1
6 6 m 1,16,-1
 4 6 l 1,17,-1
 4 8 l 1,18,-1
 6 8 l 1,19,-1
 6 6 l 1,16,-1
6 8 m 1,20,-1
 6 10 l 1,21,-1
 8 10 l 1,22,-1
 8 8 l 1,23,-1
 6 8 l 1,20,-1
4 8 m 1,24,-1
 2 8 l 1,25,-1
 2 10 l 1,26,-1
 4 10 l 1,27,-1
 4 8 l 1,24,-1
8 10 m 1,28,-1
 8 12 l 1,29,-1
 10 12 l 1,30,-1
 10 10 l 1,31,-1
 8 10 l 1,28,-1
2 10 m 1,32,-1
 0 10 l 1,33,-1
 0 12 l 1,34,-1
 2 12 l 1,35,-1
 2 10 l 1,32,-1
EndSplineSet
Validated: 5
EndChar

StartChar: Oslash
Encoding: 151 216 151
Width: 12
VWidth: 16
GlyphClass: 2
Flags: W
LayerCount: 3
Fore
SplineSet
6 2 m 1,0,-1
 8 2 l 1,1,-1
 8 0 l 1,2,-1
 6 0 l 1,3,-1
 4 0 l 1,4,-1
 2 0 l 1,5,-1
 2 2 l 1,6,-1
 0 2 l 1,7,-1
 0 4 l 1,8,-1
 0 6 l 1,9,-1
 0 8 l 1,10,-1
 0 10 l 1,11,-1
 0 12 l 1,12,-1
 2 12 l 1,13,-1
 2 10 l 1,14,-1
 2 8 l 1,15,-1
 2 6 l 1,16,-1
 4 6 l 1,17,-1
 4 4 l 1,18,-1
 4 2 l 1,19,-1
 6 2 l 1,0,-1
8 2 m 1,20,-1
 8 4 l 1,21,-1
 8 6 l 1,22,-1
 8 8 l 1,23,-1
 6 8 l 1,24,-1
 6 6 l 1,25,-1
 4 6 l 1,26,-1
 4 8 l 1,27,-1
 6 8 l 1,28,-1
 6 10 l 1,29,-1
 6 12 l 1,30,-1
 4 12 l 1,31,-1
 2 12 l 1,32,-1
 2 14 l 1,33,-1
 4 14 l 1,34,-1
 6 14 l 1,35,-1
 8 14 l 1,36,-1
 8 12 l 1,37,-1
 10 12 l 1,38,-1
 10 10 l 1,39,-1
 10 8 l 1,40,-1
 10 6 l 1,41,-1
 10 4 l 1,42,-1
 10 2 l 1,43,-1
 8 2 l 1,20,-1
EndSplineSet
Validated: 5
EndChar

StartChar: Ugrave
Encoding: 152 217 152
Width: 12
VWidth: 16
GlyphClass: 2
Flags: W
LayerCount: 3
Fore
SplineSet
4 16 m 1,0,-1
 4 18 l 1,1,-1
 6 18 l 1,2,-1
 6 16 l 1,3,-1
 4 16 l 1,0,-1
6 2 m 1,4,-1
 8 2 l 1,5,-1
 8 0 l 1,6,-1
 6 0 l 1,7,-1
 4 0 l 1,8,-1
 2 0 l 1,9,-1
 2 2 l 1,10,-1
 4 2 l 1,11,-1
 6 2 l 1,4,-1
8 2 m 1,12,-1
 8 4 l 1,13,-1
 8 6 l 1,14,-1
 8 8 l 1,15,-1
 8 10 l 1,16,-1
 8 12 l 1,17,-1
 8 14 l 1,18,-1
 10 14 l 1,19,-1
 10 12 l 1,20,-1
 10 10 l 1,21,-1
 10 8 l 1,22,-1
 10 6 l 1,23,-1
 10 4 l 1,24,-1
 10 2 l 1,25,-1
 8 2 l 1,12,-1
2 2 m 1,26,-1
 0 2 l 1,27,-1
 0 4 l 1,28,-1
 0 6 l 1,29,-1
 0 8 l 1,30,-1
 0 10 l 1,31,-1
 0 12 l 1,32,-1
 0 14 l 1,33,-1
 2 14 l 1,34,-1
 2 12 l 1,35,-1
 2 10 l 1,36,-1
 2 8 l 1,37,-1
 2 6 l 1,38,-1
 2 4 l 1,39,-1
 2 2 l 1,26,-1
4 18 m 1,40,-1
 2 18 l 1,41,-1
 2 20 l 1,42,-1
 4 20 l 1,43,-1
 4 18 l 1,40,-1
EndSplineSet
Validated: 5
EndChar

StartChar: Uacute
Encoding: 153 218 153
Width: 12
VWidth: 16
GlyphClass: 2
Flags: W
LayerCount: 3
Fore
SplineSet
4 16 m 1,0,-1
 4 18 l 1,1,-1
 6 18 l 1,2,-1
 6 16 l 1,3,-1
 4 16 l 1,0,-1
6 2 m 1,4,-1
 8 2 l 1,5,-1
 8 0 l 1,6,-1
 6 0 l 1,7,-1
 4 0 l 1,8,-1
 2 0 l 1,9,-1
 2 2 l 1,10,-1
 4 2 l 1,11,-1
 6 2 l 1,4,-1
8 2 m 1,12,-1
 8 4 l 1,13,-1
 8 6 l 1,14,-1
 8 8 l 1,15,-1
 8 10 l 1,16,-1
 8 12 l 1,17,-1
 8 14 l 1,18,-1
 10 14 l 1,19,-1
 10 12 l 1,20,-1
 10 10 l 1,21,-1
 10 8 l 1,22,-1
 10 6 l 1,23,-1
 10 4 l 1,24,-1
 10 2 l 1,25,-1
 8 2 l 1,12,-1
2 2 m 1,26,-1
 0 2 l 1,27,-1
 0 4 l 1,28,-1
 0 6 l 1,29,-1
 0 8 l 1,30,-1
 0 10 l 1,31,-1
 0 12 l 1,32,-1
 0 14 l 1,33,-1
 2 14 l 1,34,-1
 2 12 l 1,35,-1
 2 10 l 1,36,-1
 2 8 l 1,37,-1
 2 6 l 1,38,-1
 2 4 l 1,39,-1
 2 2 l 1,26,-1
6 18 m 1,40,-1
 6 20 l 1,41,-1
 8 20 l 1,42,-1
 8 18 l 1,43,-1
 6 18 l 1,40,-1
EndSplineSet
Validated: 5
EndChar

StartChar: Ucircumflex
Encoding: 154 219 154
Width: 12
VWidth: 16
GlyphClass: 2
Flags: W
LayerCount: 3
Fore
SplineSet
6 16 m 1,0,-1
 6 18 l 1,1,-1
 8 18 l 1,2,-1
 8 16 l 1,3,-1
 6 16 l 1,0,-1
2 16 m 1,4,-1
 2 18 l 1,5,-1
 4 18 l 1,6,-1
 4 16 l 1,7,-1
 2 16 l 1,4,-1
6 2 m 1,8,-1
 8 2 l 1,9,-1
 8 0 l 1,10,-1
 6 0 l 1,11,-1
 4 0 l 1,12,-1
 2 0 l 1,13,-1
 2 2 l 1,14,-1
 4 2 l 1,15,-1
 6 2 l 1,8,-1
8 2 m 1,16,-1
 8 4 l 1,17,-1
 8 6 l 1,18,-1
 8 8 l 1,19,-1
 8 10 l 1,20,-1
 8 12 l 1,21,-1
 8 14 l 1,22,-1
 10 14 l 1,23,-1
 10 12 l 1,24,-1
 10 10 l 1,25,-1
 10 8 l 1,26,-1
 10 6 l 1,27,-1
 10 4 l 1,28,-1
 10 2 l 1,29,-1
 8 2 l 1,16,-1
2 2 m 1,30,-1
 0 2 l 1,31,-1
 0 4 l 1,32,-1
 0 6 l 1,33,-1
 0 8 l 1,34,-1
 0 10 l 1,35,-1
 0 12 l 1,36,-1
 0 14 l 1,37,-1
 2 14 l 1,38,-1
 2 12 l 1,39,-1
 2 10 l 1,40,-1
 2 8 l 1,41,-1
 2 6 l 1,42,-1
 2 4 l 1,43,-1
 2 2 l 1,30,-1
6 18 m 1,44,-1
 4 18 l 1,45,-1
 4 20 l 1,46,-1
 6 20 l 1,47,-1
 6 18 l 1,44,-1
EndSplineSet
Validated: 5
EndChar

StartChar: Udieresis
Encoding: 155 220 155
Width: 12
VWidth: 16
GlyphClass: 2
Flags: W
LayerCount: 3
Fore
SplineSet
6 16 m 1,0,-1
 6 18 l 1,1,-1
 8 18 l 1,2,-1
 8 16 l 1,3,-1
 6 16 l 1,0,-1
2 16 m 1,4,-1
 2 18 l 1,5,-1
 4 18 l 1,6,-1
 4 16 l 1,7,-1
 2 16 l 1,4,-1
6 2 m 1,8,-1
 8 2 l 1,9,-1
 8 0 l 1,10,-1
 6 0 l 1,11,-1
 4 0 l 1,12,-1
 2 0 l 1,13,-1
 2 2 l 1,14,-1
 4 2 l 1,15,-1
 6 2 l 1,8,-1
8 2 m 1,16,-1
 8 4 l 1,17,-1
 8 6 l 1,18,-1
 8 8 l 1,19,-1
 8 10 l 1,20,-1
 8 12 l 1,21,-1
 8 14 l 1,22,-1
 10 14 l 1,23,-1
 10 12 l 1,24,-1
 10 10 l 1,25,-1
 10 8 l 1,26,-1
 10 6 l 1,27,-1
 10 4 l 1,28,-1
 10 2 l 1,29,-1
 8 2 l 1,16,-1
2 2 m 1,30,-1
 0 2 l 1,31,-1
 0 4 l 1,32,-1
 0 6 l 1,33,-1
 0 8 l 1,34,-1
 0 10 l 1,35,-1
 0 12 l 1,36,-1
 0 14 l 1,37,-1
 2 14 l 1,38,-1
 2 12 l 1,39,-1
 2 10 l 1,40,-1
 2 8 l 1,41,-1
 2 6 l 1,42,-1
 2 4 l 1,43,-1
 2 2 l 1,30,-1
EndSplineSet
Validated: 5
EndChar

StartChar: Yacute
Encoding: 156 221 156
Width: 12
VWidth: 16
GlyphClass: 2
Flags: W
LayerCount: 3
Fore
SplineSet
4 0 m 1,0,-1
 4 2 l 1,1,-1
 4 4 l 1,2,-1
 4 6 l 1,3,-1
 4 8 l 1,4,-1
 4 10 l 1,5,-1
 6 10 l 1,6,-1
 6 8 l 1,7,-1
 6 6 l 1,8,-1
 6 4 l 1,9,-1
 6 2 l 1,10,-1
 6 0 l 1,11,-1
 4 0 l 1,0,-1
4 16 m 1,12,-1
 4 18 l 1,13,-1
 6 18 l 1,14,-1
 6 16 l 1,15,-1
 4 16 l 1,12,-1
6 10 m 1,16,-1
 6 12 l 1,17,-1
 8 12 l 1,18,-1
 8 10 l 1,19,-1
 6 10 l 1,16,-1
4 10 m 1,20,-1
 2 10 l 1,21,-1
 2 12 l 1,22,-1
 4 12 l 1,23,-1
 4 10 l 1,20,-1
8 12 m 1,24,-1
 8 14 l 1,25,-1
 10 14 l 1,26,-1
 10 12 l 1,27,-1
 8 12 l 1,24,-1
2 12 m 1,28,-1
 0 12 l 1,29,-1
 0 14 l 1,30,-1
 2 14 l 1,31,-1
 2 12 l 1,28,-1
6 18 m 1,32,-1
 6 20 l 1,33,-1
 8 20 l 1,34,-1
 8 18 l 1,35,-1
 6 18 l 1,32,-1
EndSplineSet
Validated: 5
EndChar

StartChar: Thorn
Encoding: 157 222 157
Width: 12
VWidth: 16
GlyphClass: 2
Flags: W
LayerCount: 3
Fore
SplineSet
0 0 m 1,0,-1
 0 2 l 1,1,-1
 0 4 l 1,2,-1
 0 6 l 1,3,-1
 0 8 l 1,4,-1
 0 10 l 1,5,-1
 0 12 l 1,6,-1
 0 14 l 1,7,-1
 2 14 l 1,8,-1
 2 12 l 1,9,-1
 2 10 l 1,10,-1
 4 10 l 1,11,-1
 6 10 l 1,12,-1
 8 10 l 1,13,-1
 8 8 l 1,14,-1
 10 8 l 1,15,-1
 10 6 l 1,16,-1
 8 6 l 1,17,-1
 8 8 l 1,18,-1
 6 8 l 1,19,-1
 4 8 l 1,20,-1
 2 8 l 1,21,-1
 2 6 l 1,22,-1
 4 6 l 1,23,-1
 6 6 l 1,24,-1
 8 6 l 1,25,-1
 8 4 l 1,26,-1
 6 4 l 1,27,-1
 4 4 l 1,28,-1
 2 4 l 1,29,-1
 2 2 l 1,30,-1
 2 0 l 1,31,-1
 0 0 l 1,0,-1
EndSplineSet
Validated: 5
EndChar

StartChar: germandbls
Encoding: 158 223 158
Width: 12
VWidth: 16
GlyphClass: 2
Flags: W
LayerCount: 3
Fore
SplineSet
0 -2 m 1,0,-1
 0 0 l 1,1,-1
 0 2 l 1,2,-1
 0 4 l 1,3,-1
 0 6 l 1,4,-1
 0 8 l 1,5,-1
 0 10 l 1,6,-1
 0 12 l 1,7,-1
 2 12 l 1,8,-1
 2 10 l 1,9,-1
 2 8 l 1,10,-1
 2 6 l 1,11,-1
 2 4 l 1,12,-1
 2 2 l 1,13,-1
 2 0 l 1,14,-1
 2 -2 l 1,15,-1
 0 -2 l 1,0,-1
6 2 m 1,16,-1
 8 2 l 1,17,-1
 8 0 l 1,18,-1
 6 0 l 1,19,-1
 4 0 l 1,20,-1
 4 2 l 1,21,-1
 6 2 l 1,16,-1
8 2 m 1,22,-1
 8 4 l 1,23,-1
 8 6 l 1,24,-1
 8 8 l 1,25,-1
 10 8 l 1,26,-1
 10 6 l 1,27,-1
 10 4 l 1,28,-1
 10 2 l 1,29,-1
 8 2 l 1,22,-1
8 8 m 1,30,-1
 6 8 l 1,31,-1
 4 8 l 1,32,-1
 4 10 l 1,33,-1
 6 10 l 1,34,-1
 8 10 l 1,35,-1
 8 8 l 1,30,-1
8 10 m 1,36,-1
 8 12 l 1,37,-1
 10 12 l 1,38,-1
 10 10 l 1,39,-1
 8 10 l 1,36,-1
8 12 m 1,40,-1
 6 12 l 1,41,-1
 4 12 l 1,42,-1
 2 12 l 1,43,-1
 2 14 l 1,44,-1
 4 14 l 1,45,-1
 6 14 l 1,46,-1
 8 14 l 1,47,-1
 8 12 l 1,40,-1
EndSplineSet
Validated: 5
EndChar

StartChar: agrave
Encoding: 159 224 159
Width: 12
VWidth: 16
GlyphClass: 2
Flags: W
LayerCount: 3
Fore
SplineSet
4 12 m 1,0,-1
 4 14 l 1,1,-1
 6 14 l 1,2,-1
 6 12 l 1,3,-1
 4 12 l 1,0,-1
8 0 m 1,4,-1
 6 0 l 1,5,-1
 4 0 l 1,6,-1
 2 0 l 1,7,-1
 2 2 l 1,8,-1
 0 2 l 1,9,-1
 0 4 l 1,10,-1
 2 4 l 1,11,-1
 2 6 l 1,12,-1
 4 6 l 1,13,-1
 6 6 l 1,14,-1
 8 6 l 1,15,-1
 8 8 l 1,16,-1
 10 8 l 1,17,-1
 10 6 l 1,18,-1
 10 4 l 1,19,-1
 10 2 l 1,20,-1
 10 0 l 1,21,-1
 8 0 l 1,4,-1
6 2 m 1,22,-1
 8 2 l 1,23,-1
 8 4 l 1,24,-1
 6 4 l 1,25,-1
 4 4 l 1,26,-1
 2 4 l 1,27,-1
 2 2 l 1,28,-1
 4 2 l 1,29,-1
 6 2 l 1,22,-1
8 8 m 1,30,-1
 6 8 l 1,31,-1
 4 8 l 1,32,-1
 2 8 l 1,33,-1
 2 10 l 1,34,-1
 4 10 l 1,35,-1
 6 10 l 1,36,-1
 8 10 l 1,37,-1
 8 8 l 1,30,-1
4 14 m 1,38,-1
 2 14 l 1,39,-1
 2 16 l 1,40,-1
 4 16 l 1,41,-1
 4 14 l 1,38,-1
EndSplineSet
Validated: 5
EndChar

StartChar: aacute
Encoding: 160 225 160
Width: 12
VWidth: 16
GlyphClass: 2
Flags: W
LayerCount: 3
Fore
SplineSet
4 12 m 1,0,-1
 4 14 l 1,1,-1
 6 14 l 1,2,-1
 6 12 l 1,3,-1
 4 12 l 1,0,-1
8 0 m 1,4,-1
 6 0 l 1,5,-1
 4 0 l 1,6,-1
 2 0 l 1,7,-1
 2 2 l 1,8,-1
 0 2 l 1,9,-1
 0 4 l 1,10,-1
 2 4 l 1,11,-1
 2 6 l 1,12,-1
 4 6 l 1,13,-1
 6 6 l 1,14,-1
 8 6 l 1,15,-1
 8 8 l 1,16,-1
 10 8 l 1,17,-1
 10 6 l 1,18,-1
 10 4 l 1,19,-1
 10 2 l 1,20,-1
 10 0 l 1,21,-1
 8 0 l 1,4,-1
6 2 m 1,22,-1
 8 2 l 1,23,-1
 8 4 l 1,24,-1
 6 4 l 1,25,-1
 4 4 l 1,26,-1
 2 4 l 1,27,-1
 2 2 l 1,28,-1
 4 2 l 1,29,-1
 6 2 l 1,22,-1
8 8 m 1,30,-1
 6 8 l 1,31,-1
 4 8 l 1,32,-1
 2 8 l 1,33,-1
 2 10 l 1,34,-1
 4 10 l 1,35,-1
 6 10 l 1,36,-1
 8 10 l 1,37,-1
 8 8 l 1,30,-1
6 14 m 1,38,-1
 6 16 l 1,39,-1
 8 16 l 1,40,-1
 8 14 l 1,41,-1
 6 14 l 1,38,-1
EndSplineSet
Validated: 5
EndChar

StartChar: acircumflex
Encoding: 161 226 161
Width: 12
VWidth: 16
GlyphClass: 2
Flags: W
LayerCount: 3
Fore
SplineSet
6 12 m 1,0,-1
 6 14 l 1,1,-1
 8 14 l 1,2,-1
 8 12 l 1,3,-1
 6 12 l 1,0,-1
2 12 m 1,4,-1
 2 14 l 1,5,-1
 4 14 l 1,6,-1
 4 12 l 1,7,-1
 2 12 l 1,4,-1
8 0 m 1,8,-1
 6 0 l 1,9,-1
 4 0 l 1,10,-1
 2 0 l 1,11,-1
 2 2 l 1,12,-1
 0 2 l 1,13,-1
 0 4 l 1,14,-1
 2 4 l 1,15,-1
 2 6 l 1,16,-1
 4 6 l 1,17,-1
 6 6 l 1,18,-1
 8 6 l 1,19,-1
 8 8 l 1,20,-1
 10 8 l 1,21,-1
 10 6 l 1,22,-1
 10 4 l 1,23,-1
 10 2 l 1,24,-1
 10 0 l 1,25,-1
 8 0 l 1,8,-1
6 2 m 1,26,-1
 8 2 l 1,27,-1
 8 4 l 1,28,-1
 6 4 l 1,29,-1
 4 4 l 1,30,-1
 2 4 l 1,31,-1
 2 2 l 1,32,-1
 4 2 l 1,33,-1
 6 2 l 1,26,-1
8 8 m 1,34,-1
 6 8 l 1,35,-1
 4 8 l 1,36,-1
 2 8 l 1,37,-1
 2 10 l 1,38,-1
 4 10 l 1,39,-1
 6 10 l 1,40,-1
 8 10 l 1,41,-1
 8 8 l 1,34,-1
6 14 m 1,42,-1
 4 14 l 1,43,-1
 4 16 l 1,44,-1
 6 16 l 1,45,-1
 6 14 l 1,42,-1
EndSplineSet
Validated: 5
EndChar

StartChar: atilde
Encoding: 162 227 162
Width: 12
VWidth: 16
GlyphClass: 2
Flags: W
LayerCount: 3
Fore
SplineSet
6 12 m 1,0,-1
 6 14 l 1,1,-1
 8 14 l 1,2,-1
 8 12 l 1,3,-1
 6 12 l 1,0,-1
2 12 m 1,4,-1
 2 14 l 1,5,-1
 4 14 l 1,6,-1
 4 12 l 1,7,-1
 2 12 l 1,4,-1
8 0 m 1,8,-1
 6 0 l 1,9,-1
 4 0 l 1,10,-1
 2 0 l 1,11,-1
 2 2 l 1,12,-1
 0 2 l 1,13,-1
 0 4 l 1,14,-1
 2 4 l 1,15,-1
 2 6 l 1,16,-1
 4 6 l 1,17,-1
 6 6 l 1,18,-1
 8 6 l 1,19,-1
 8 8 l 1,20,-1
 10 8 l 1,21,-1
 10 6 l 1,22,-1
 10 4 l 1,23,-1
 10 2 l 1,24,-1
 10 0 l 1,25,-1
 8 0 l 1,8,-1
6 2 m 1,26,-1
 8 2 l 1,27,-1
 8 4 l 1,28,-1
 6 4 l 1,29,-1
 4 4 l 1,30,-1
 2 4 l 1,31,-1
 2 2 l 1,32,-1
 4 2 l 1,33,-1
 6 2 l 1,26,-1
8 8 m 1,34,-1
 6 8 l 1,35,-1
 4 8 l 1,36,-1
 2 8 l 1,37,-1
 2 10 l 1,38,-1
 4 10 l 1,39,-1
 6 10 l 1,40,-1
 8 10 l 1,41,-1
 8 8 l 1,34,-1
8 14 m 1,42,-1
 8 16 l 1,43,-1
 10 16 l 1,44,-1
 10 14 l 1,45,-1
 8 14 l 1,42,-1
6 14 m 1,46,-1
 4 14 l 1,47,-1
 4 16 l 1,48,-1
 6 16 l 1,49,-1
 6 14 l 1,46,-1
EndSplineSet
Validated: 5
EndChar

StartChar: adieresis
Encoding: 163 228 163
Width: 12
VWidth: 16
GlyphClass: 2
Flags: W
LayerCount: 3
Fore
SplineSet
6 12 m 1,0,-1
 6 14 l 1,1,-1
 8 14 l 1,2,-1
 8 12 l 1,3,-1
 6 12 l 1,0,-1
2 12 m 1,4,-1
 2 14 l 1,5,-1
 4 14 l 1,6,-1
 4 12 l 1,7,-1
 2 12 l 1,4,-1
8 0 m 1,8,-1
 6 0 l 1,9,-1
 4 0 l 1,10,-1
 2 0 l 1,11,-1
 2 2 l 1,12,-1
 0 2 l 1,13,-1
 0 4 l 1,14,-1
 2 4 l 1,15,-1
 2 6 l 1,16,-1
 4 6 l 1,17,-1
 6 6 l 1,18,-1
 8 6 l 1,19,-1
 8 8 l 1,20,-1
 10 8 l 1,21,-1
 10 6 l 1,22,-1
 10 4 l 1,23,-1
 10 2 l 1,24,-1
 10 0 l 1,25,-1
 8 0 l 1,8,-1
6 2 m 1,26,-1
 8 2 l 1,27,-1
 8 4 l 1,28,-1
 6 4 l 1,29,-1
 4 4 l 1,30,-1
 2 4 l 1,31,-1
 2 2 l 1,32,-1
 4 2 l 1,33,-1
 6 2 l 1,26,-1
8 8 m 1,34,-1
 6 8 l 1,35,-1
 4 8 l 1,36,-1
 2 8 l 1,37,-1
 2 10 l 1,38,-1
 4 10 l 1,39,-1
 6 10 l 1,40,-1
 8 10 l 1,41,-1
 8 8 l 1,34,-1
EndSplineSet
Validated: 5
EndChar

StartChar: aring
Encoding: 164 229 164
Width: 12
VWidth: 16
GlyphClass: 2
Flags: W
LayerCount: 3
Fore
SplineSet
4 12 m 1,0,-1
 4 14 l 1,1,-1
 6 14 l 1,2,-1
 6 12 l 1,3,-1
 4 12 l 1,0,-1
8 0 m 1,4,-1
 6 0 l 1,5,-1
 4 0 l 1,6,-1
 2 0 l 1,7,-1
 2 2 l 1,8,-1
 0 2 l 1,9,-1
 0 4 l 1,10,-1
 2 4 l 1,11,-1
 2 6 l 1,12,-1
 4 6 l 1,13,-1
 6 6 l 1,14,-1
 8 6 l 1,15,-1
 8 8 l 1,16,-1
 10 8 l 1,17,-1
 10 6 l 1,18,-1
 10 4 l 1,19,-1
 10 2 l 1,20,-1
 10 0 l 1,21,-1
 8 0 l 1,4,-1
6 2 m 1,22,-1
 8 2 l 1,23,-1
 8 4 l 1,24,-1
 6 4 l 1,25,-1
 4 4 l 1,26,-1
 2 4 l 1,27,-1
 2 2 l 1,28,-1
 4 2 l 1,29,-1
 6 2 l 1,22,-1
8 8 m 1,30,-1
 6 8 l 1,31,-1
 4 8 l 1,32,-1
 2 8 l 1,33,-1
 2 10 l 1,34,-1
 4 10 l 1,35,-1
 6 10 l 1,36,-1
 8 10 l 1,37,-1
 8 8 l 1,30,-1
6 14 m 1,38,-1
 6 16 l 1,39,-1
 8 16 l 1,40,-1
 8 14 l 1,41,-1
 6 14 l 1,38,-1
4 14 m 1,42,-1
 2 14 l 1,43,-1
 2 16 l 1,44,-1
 4 16 l 1,45,-1
 4 14 l 1,42,-1
6 16 m 1,46,-1
 4 16 l 1,47,-1
 4 18 l 1,48,-1
 6 18 l 1,49,-1
 6 16 l 1,46,-1
EndSplineSet
Validated: 5
EndChar

StartChar: ae
Encoding: 165 230 165
Width: 12
VWidth: 16
GlyphClass: 2
Flags: W
LayerCount: 3
Fore
SplineSet
10 2 m 1,0,-1
 12 2 l 1,1,-1
 12 0 l 1,2,-1
 10 0 l 1,3,-1
 8 0 l 1,4,-1
 6 0 l 1,5,-1
 4 0 l 1,6,-1
 2 0 l 1,7,-1
 2 2 l 1,8,-1
 0 2 l 1,9,-1
 0 4 l 1,10,-1
 2 4 l 1,11,-1
 2 6 l 1,12,-1
 4 6 l 1,13,-1
 6 6 l 1,14,-1
 6 8 l 1,15,-1
 8 8 l 1,16,-1
 8 6 l 1,17,-1
 10 6 l 1,18,-1
 10 8 l 1,19,-1
 12 8 l 1,20,-1
 12 6 l 1,21,-1
 12 4 l 1,22,-1
 10 4 l 1,23,-1
 8 4 l 1,24,-1
 8 2 l 1,25,-1
 10 2 l 1,0,-1
4 2 m 1,26,-1
 6 2 l 1,27,-1
 6 4 l 1,28,-1
 4 4 l 1,29,-1
 2 4 l 1,30,-1
 2 2 l 1,31,-1
 4 2 l 1,26,-1
10 8 m 1,32,-1
 8 8 l 1,33,-1
 8 10 l 1,34,-1
 10 10 l 1,35,-1
 10 8 l 1,32,-1
6 8 m 1,36,-1
 4 8 l 1,37,-1
 2 8 l 1,38,-1
 2 10 l 1,39,-1
 4 10 l 1,40,-1
 6 10 l 1,41,-1
 6 8 l 1,36,-1
EndSplineSet
Validated: 5
EndChar

StartChar: ccedilla
Encoding: 166 231 166
Width: 12
VWidth: 16
GlyphClass: 2
Flags: W
LayerCount: 3
Fore
SplineSet
4 -4 m 1,0,-1
 4 -2 l 1,1,-1
 6 -2 l 1,2,-1
 6 -4 l 1,3,-1
 4 -4 l 1,0,-1
8 6 m 1,4,-1
 8 8 l 1,5,-1
 10 8 l 1,6,-1
 10 6 l 1,7,-1
 8 6 l 1,4,-1
6 -2 m 1,8,-1
 6 0 l 1,9,-1
 4 0 l 1,10,-1
 2 0 l 1,11,-1
 2 2 l 1,12,-1
 4 2 l 1,13,-1
 6 2 l 1,14,-1
 8 2 l 1,15,-1
 8 0 l 1,16,-1
 8 -2 l 1,17,-1
 6 -2 l 1,8,-1
8 2 m 1,18,-1
 8 4 l 1,19,-1
 10 4 l 1,20,-1
 10 2 l 1,21,-1
 8 2 l 1,18,-1
2 2 m 1,22,-1
 0 2 l 1,23,-1
 0 4 l 1,24,-1
 0 6 l 1,25,-1
 0 8 l 1,26,-1
 2 8 l 1,27,-1
 2 6 l 1,28,-1
 2 4 l 1,29,-1
 2 2 l 1,22,-1
8 8 m 1,30,-1
 6 8 l 1,31,-1
 4 8 l 1,32,-1
 2 8 l 1,33,-1
 2 10 l 1,34,-1
 4 10 l 1,35,-1
 6 10 l 1,36,-1
 8 10 l 1,37,-1
 8 8 l 1,30,-1
EndSplineSet
Validated: 5
EndChar

StartChar: egrave
Encoding: 167 232 167
Width: 12
VWidth: 16
GlyphClass: 2
Flags: W
LayerCount: 3
Fore
SplineSet
4 12 m 1,0,-1
 4 14 l 1,1,-1
 6 14 l 1,2,-1
 6 12 l 1,3,-1
 4 12 l 1,0,-1
8 2 m 1,4,-1
 10 2 l 1,5,-1
 10 0 l 1,6,-1
 8 0 l 1,7,-1
 6 0 l 1,8,-1
 4 0 l 1,9,-1
 2 0 l 1,10,-1
 2 2 l 1,11,-1
 4 2 l 1,12,-1
 6 2 l 1,13,-1
 8 2 l 1,4,-1
2 2 m 1,14,-1
 0 2 l 1,15,-1
 0 4 l 1,16,-1
 0 6 l 1,17,-1
 0 8 l 1,18,-1
 2 8 l 1,19,-1
 2 6 l 1,20,-1
 4 6 l 1,21,-1
 6 6 l 1,22,-1
 8 6 l 1,23,-1
 8 8 l 1,24,-1
 10 8 l 1,25,-1
 10 6 l 1,26,-1
 10 4 l 1,27,-1
 8 4 l 1,28,-1
 6 4 l 1,29,-1
 4 4 l 1,30,-1
 2 4 l 1,31,-1
 2 2 l 1,14,-1
8 8 m 1,32,-1
 6 8 l 1,33,-1
 4 8 l 1,34,-1
 2 8 l 1,35,-1
 2 10 l 1,36,-1
 4 10 l 1,37,-1
 6 10 l 1,38,-1
 8 10 l 1,39,-1
 8 8 l 1,32,-1
4 14 m 1,40,-1
 2 14 l 1,41,-1
 2 16 l 1,42,-1
 4 16 l 1,43,-1
 4 14 l 1,40,-1
EndSplineSet
Validated: 5
EndChar

StartChar: eacute
Encoding: 168 233 168
Width: 12
VWidth: 16
GlyphClass: 2
Flags: W
LayerCount: 3
Fore
SplineSet
4 12 m 1,0,-1
 4 14 l 1,1,-1
 6 14 l 1,2,-1
 6 12 l 1,3,-1
 4 12 l 1,0,-1
8 2 m 1,4,-1
 10 2 l 1,5,-1
 10 0 l 1,6,-1
 8 0 l 1,7,-1
 6 0 l 1,8,-1
 4 0 l 1,9,-1
 2 0 l 1,10,-1
 2 2 l 1,11,-1
 4 2 l 1,12,-1
 6 2 l 1,13,-1
 8 2 l 1,4,-1
2 2 m 1,14,-1
 0 2 l 1,15,-1
 0 4 l 1,16,-1
 0 6 l 1,17,-1
 0 8 l 1,18,-1
 2 8 l 1,19,-1
 2 6 l 1,20,-1
 4 6 l 1,21,-1
 6 6 l 1,22,-1
 8 6 l 1,23,-1
 8 8 l 1,24,-1
 10 8 l 1,25,-1
 10 6 l 1,26,-1
 10 4 l 1,27,-1
 8 4 l 1,28,-1
 6 4 l 1,29,-1
 4 4 l 1,30,-1
 2 4 l 1,31,-1
 2 2 l 1,14,-1
8 8 m 1,32,-1
 6 8 l 1,33,-1
 4 8 l 1,34,-1
 2 8 l 1,35,-1
 2 10 l 1,36,-1
 4 10 l 1,37,-1
 6 10 l 1,38,-1
 8 10 l 1,39,-1
 8 8 l 1,32,-1
6 14 m 1,40,-1
 6 16 l 1,41,-1
 8 16 l 1,42,-1
 8 14 l 1,43,-1
 6 14 l 1,40,-1
EndSplineSet
Validated: 5
EndChar

StartChar: ecircumflex
Encoding: 169 234 169
Width: 12
VWidth: 16
GlyphClass: 2
Flags: W
LayerCount: 3
Fore
SplineSet
6 12 m 1,0,-1
 6 14 l 1,1,-1
 8 14 l 1,2,-1
 8 12 l 1,3,-1
 6 12 l 1,0,-1
2 12 m 1,4,-1
 2 14 l 1,5,-1
 4 14 l 1,6,-1
 4 12 l 1,7,-1
 2 12 l 1,4,-1
8 2 m 1,8,-1
 10 2 l 1,9,-1
 10 0 l 1,10,-1
 8 0 l 1,11,-1
 6 0 l 1,12,-1
 4 0 l 1,13,-1
 2 0 l 1,14,-1
 2 2 l 1,15,-1
 4 2 l 1,16,-1
 6 2 l 1,17,-1
 8 2 l 1,8,-1
2 2 m 1,18,-1
 0 2 l 1,19,-1
 0 4 l 1,20,-1
 0 6 l 1,21,-1
 0 8 l 1,22,-1
 2 8 l 1,23,-1
 2 6 l 1,24,-1
 4 6 l 1,25,-1
 6 6 l 1,26,-1
 8 6 l 1,27,-1
 8 8 l 1,28,-1
 10 8 l 1,29,-1
 10 6 l 1,30,-1
 10 4 l 1,31,-1
 8 4 l 1,32,-1
 6 4 l 1,33,-1
 4 4 l 1,34,-1
 2 4 l 1,35,-1
 2 2 l 1,18,-1
8 8 m 1,36,-1
 6 8 l 1,37,-1
 4 8 l 1,38,-1
 2 8 l 1,39,-1
 2 10 l 1,40,-1
 4 10 l 1,41,-1
 6 10 l 1,42,-1
 8 10 l 1,43,-1
 8 8 l 1,36,-1
6 14 m 1,44,-1
 4 14 l 1,45,-1
 4 16 l 1,46,-1
 6 16 l 1,47,-1
 6 14 l 1,44,-1
EndSplineSet
Validated: 5
EndChar

StartChar: edieresis
Encoding: 170 235 170
Width: 12
VWidth: 16
GlyphClass: 2
Flags: W
LayerCount: 3
Fore
SplineSet
6 12 m 1,0,-1
 6 14 l 1,1,-1
 8 14 l 1,2,-1
 8 12 l 1,3,-1
 6 12 l 1,0,-1
2 12 m 1,4,-1
 2 14 l 1,5,-1
 4 14 l 1,6,-1
 4 12 l 1,7,-1
 2 12 l 1,4,-1
8 2 m 1,8,-1
 10 2 l 1,9,-1
 10 0 l 1,10,-1
 8 0 l 1,11,-1
 6 0 l 1,12,-1
 4 0 l 1,13,-1
 2 0 l 1,14,-1
 2 2 l 1,15,-1
 4 2 l 1,16,-1
 6 2 l 1,17,-1
 8 2 l 1,8,-1
2 2 m 1,18,-1
 0 2 l 1,19,-1
 0 4 l 1,20,-1
 0 6 l 1,21,-1
 0 8 l 1,22,-1
 2 8 l 1,23,-1
 2 6 l 1,24,-1
 4 6 l 1,25,-1
 6 6 l 1,26,-1
 8 6 l 1,27,-1
 8 8 l 1,28,-1
 10 8 l 1,29,-1
 10 6 l 1,30,-1
 10 4 l 1,31,-1
 8 4 l 1,32,-1
 6 4 l 1,33,-1
 4 4 l 1,34,-1
 2 4 l 1,35,-1
 2 2 l 1,18,-1
8 8 m 1,36,-1
 6 8 l 1,37,-1
 4 8 l 1,38,-1
 2 8 l 1,39,-1
 2 10 l 1,40,-1
 4 10 l 1,41,-1
 6 10 l 1,42,-1
 8 10 l 1,43,-1
 8 8 l 1,36,-1
EndSplineSet
Validated: 5
EndChar

StartChar: igrave
Encoding: 171 236 171
Width: 12
VWidth: 16
GlyphClass: 2
Flags: W
LayerCount: 3
Fore
SplineSet
4 12 m 1,0,-1
 4 14 l 1,1,-1
 6 14 l 1,2,-1
 6 12 l 1,3,-1
 4 12 l 1,0,-1
8 2 m 1,4,-1
 10 2 l 1,5,-1
 10 0 l 1,6,-1
 8 0 l 1,7,-1
 6 0 l 1,8,-1
 6 2 l 1,9,-1
 8 2 l 1,4,-1
6 2 m 1,10,-1
 4 2 l 1,11,-1
 4 4 l 1,12,-1
 4 6 l 1,13,-1
 4 8 l 1,14,-1
 2 8 l 1,15,-1
 2 10 l 1,16,-1
 4 10 l 1,17,-1
 6 10 l 1,18,-1
 6 8 l 1,19,-1
 6 6 l 1,20,-1
 6 4 l 1,21,-1
 6 2 l 1,10,-1
4 14 m 1,22,-1
 2 14 l 1,23,-1
 2 16 l 1,24,-1
 4 16 l 1,25,-1
 4 14 l 1,22,-1
EndSplineSet
Validated: 5
EndChar

StartChar: iacute
Encoding: 172 237 172
Width: 12
VWidth: 16
GlyphClass: 2
Flags: W
LayerCount: 3
Fore
SplineSet
4 12 m 1,0,-1
 4 14 l 1,1,-1
 6 14 l 1,2,-1
 6 12 l 1,3,-1
 4 12 l 1,0,-1
8 2 m 1,4,-1
 10 2 l 1,5,-1
 10 0 l 1,6,-1
 8 0 l 1,7,-1
 6 0 l 1,8,-1
 6 2 l 1,9,-1
 8 2 l 1,4,-1
6 2 m 1,10,-1
 4 2 l 1,11,-1
 4 4 l 1,12,-1
 4 6 l 1,13,-1
 4 8 l 1,14,-1
 2 8 l 1,15,-1
 2 10 l 1,16,-1
 4 10 l 1,17,-1
 6 10 l 1,18,-1
 6 8 l 1,19,-1
 6 6 l 1,20,-1
 6 4 l 1,21,-1
 6 2 l 1,10,-1
6 14 m 1,22,-1
 6 16 l 1,23,-1
 8 16 l 1,24,-1
 8 14 l 1,25,-1
 6 14 l 1,22,-1
EndSplineSet
Validated: 5
EndChar

StartChar: icircumflex
Encoding: 173 238 173
Width: 12
VWidth: 16
GlyphClass: 2
Flags: W
LayerCount: 3
Fore
SplineSet
6 12 m 1,0,-1
 6 14 l 1,1,-1
 8 14 l 1,2,-1
 8 12 l 1,3,-1
 6 12 l 1,0,-1
2 12 m 1,4,-1
 2 14 l 1,5,-1
 4 14 l 1,6,-1
 4 12 l 1,7,-1
 2 12 l 1,4,-1
8 2 m 1,8,-1
 10 2 l 1,9,-1
 10 0 l 1,10,-1
 8 0 l 1,11,-1
 6 0 l 1,12,-1
 6 2 l 1,13,-1
 8 2 l 1,8,-1
6 2 m 1,14,-1
 4 2 l 1,15,-1
 4 4 l 1,16,-1
 4 6 l 1,17,-1
 4 8 l 1,18,-1
 2 8 l 1,19,-1
 2 10 l 1,20,-1
 4 10 l 1,21,-1
 6 10 l 1,22,-1
 6 8 l 1,23,-1
 6 6 l 1,24,-1
 6 4 l 1,25,-1
 6 2 l 1,14,-1
6 14 m 1,26,-1
 4 14 l 1,27,-1
 4 16 l 1,28,-1
 6 16 l 1,29,-1
 6 14 l 1,26,-1
EndSplineSet
Validated: 5
EndChar

StartChar: idieresis
Encoding: 174 239 174
Width: 12
VWidth: 16
GlyphClass: 2
Flags: W
LayerCount: 3
Fore
SplineSet
6 12 m 1,0,-1
 6 14 l 1,1,-1
 8 14 l 1,2,-1
 8 12 l 1,3,-1
 6 12 l 1,0,-1
2 12 m 1,4,-1
 2 14 l 1,5,-1
 4 14 l 1,6,-1
 4 12 l 1,7,-1
 2 12 l 1,4,-1
8 2 m 1,8,-1
 10 2 l 1,9,-1
 10 0 l 1,10,-1
 8 0 l 1,11,-1
 6 0 l 1,12,-1
 6 2 l 1,13,-1
 8 2 l 1,8,-1
6 2 m 1,14,-1
 4 2 l 1,15,-1
 4 4 l 1,16,-1
 4 6 l 1,17,-1
 4 8 l 1,18,-1
 2 8 l 1,19,-1
 2 10 l 1,20,-1
 4 10 l 1,21,-1
 6 10 l 1,22,-1
 6 8 l 1,23,-1
 6 6 l 1,24,-1
 6 4 l 1,25,-1
 6 2 l 1,14,-1
EndSplineSet
Validated: 5
EndChar

StartChar: eth
Encoding: 175 240 175
Width: 12
VWidth: 16
GlyphClass: 2
Flags: W
LayerCount: 3
Fore
SplineSet
4 8 m 1,0,-1
 4 10 l 1,1,-1
 6 10 l 1,2,-1
 6 8 l 1,3,-1
 4 8 l 1,0,-1
6 2 m 1,4,-1
 8 2 l 1,5,-1
 8 0 l 1,6,-1
 6 0 l 1,7,-1
 4 0 l 1,8,-1
 2 0 l 1,9,-1
 2 2 l 1,10,-1
 4 2 l 1,11,-1
 6 2 l 1,4,-1
8 2 m 1,12,-1
 8 4 l 1,13,-1
 6 4 l 1,14,-1
 4 4 l 1,15,-1
 2 4 l 1,16,-1
 2 2 l 1,17,-1
 0 2 l 1,18,-1
 0 4 l 1,19,-1
 2 4 l 1,20,-1
 2 6 l 1,21,-1
 4 6 l 1,22,-1
 6 6 l 1,23,-1
 8 6 l 1,24,-1
 8 8 l 1,25,-1
 8 10 l 1,26,-1
 10 10 l 1,27,-1
 10 8 l 1,28,-1
 10 6 l 1,29,-1
 10 4 l 1,30,-1
 10 2 l 1,31,-1
 8 2 l 1,12,-1
8 10 m 1,32,-1
 6 10 l 1,33,-1
 6 12 l 1,34,-1
 8 12 l 1,35,-1
 8 10 l 1,32,-1
8 12 m 1,36,-1
 8 14 l 1,37,-1
 10 14 l 1,38,-1
 10 12 l 1,39,-1
 8 12 l 1,36,-1
6 12 m 1,40,-1
 4 12 l 1,41,-1
 2 12 l 1,42,-1
 2 14 l 1,43,-1
 4 14 l 1,44,-1
 6 14 l 1,45,-1
 6 12 l 1,40,-1
EndSplineSet
Validated: 5
EndChar

StartChar: ntilde
Encoding: 176 241 176
Width: 12
VWidth: 16
GlyphClass: 2
Flags: W
LayerCount: 3
Fore
SplineSet
8 0 m 1,0,-1
 8 2 l 1,1,-1
 8 4 l 1,2,-1
 8 6 l 1,3,-1
 8 8 l 1,4,-1
 10 8 l 1,5,-1
 10 6 l 1,6,-1
 10 4 l 1,7,-1
 10 2 l 1,8,-1
 10 0 l 1,9,-1
 8 0 l 1,0,-1
0 0 m 1,10,-1
 0 2 l 1,11,-1
 0 4 l 1,12,-1
 0 6 l 1,13,-1
 0 8 l 1,14,-1
 0 10 l 1,15,-1
 2 10 l 1,16,-1
 4 10 l 1,17,-1
 6 10 l 1,18,-1
 8 10 l 1,19,-1
 8 8 l 1,20,-1
 6 8 l 1,21,-1
 4 8 l 1,22,-1
 2 8 l 1,23,-1
 2 6 l 1,24,-1
 2 4 l 1,25,-1
 2 2 l 1,26,-1
 2 0 l 1,27,-1
 0 0 l 1,10,-1
6 12 m 1,28,-1
 6 14 l 1,29,-1
 8 14 l 1,30,-1
 8 12 l 1,31,-1
 6 12 l 1,28,-1
2 12 m 1,32,-1
 2 14 l 1,33,-1
 4 14 l 1,34,-1
 4 12 l 1,35,-1
 2 12 l 1,32,-1
8 14 m 1,36,-1
 8 16 l 1,37,-1
 10 16 l 1,38,-1
 10 14 l 1,39,-1
 8 14 l 1,36,-1
6 14 m 1,40,-1
 4 14 l 1,41,-1
 4 16 l 1,42,-1
 6 16 l 1,43,-1
 6 14 l 1,40,-1
EndSplineSet
Validated: 5
EndChar

StartChar: ograve
Encoding: 177 242 177
Width: 12
VWidth: 16
GlyphClass: 2
Flags: W
LayerCount: 3
Fore
SplineSet
4 12 m 1,0,-1
 4 14 l 1,1,-1
 6 14 l 1,2,-1
 6 12 l 1,3,-1
 4 12 l 1,0,-1
6 2 m 1,4,-1
 8 2 l 1,5,-1
 8 0 l 1,6,-1
 6 0 l 1,7,-1
 4 0 l 1,8,-1
 2 0 l 1,9,-1
 2 2 l 1,10,-1
 4 2 l 1,11,-1
 6 2 l 1,4,-1
8 2 m 1,12,-1
 8 4 l 1,13,-1
 8 6 l 1,14,-1
 8 8 l 1,15,-1
 10 8 l 1,16,-1
 10 6 l 1,17,-1
 10 4 l 1,18,-1
 10 2 l 1,19,-1
 8 2 l 1,12,-1
2 2 m 1,20,-1
 0 2 l 1,21,-1
 0 4 l 1,22,-1
 0 6 l 1,23,-1
 0 8 l 1,24,-1
 2 8 l 1,25,-1
 2 6 l 1,26,-1
 2 4 l 1,27,-1
 2 2 l 1,20,-1
8 8 m 1,28,-1
 6 8 l 1,29,-1
 4 8 l 1,30,-1
 2 8 l 1,31,-1
 2 10 l 1,32,-1
 4 10 l 1,33,-1
 6 10 l 1,34,-1
 8 10 l 1,35,-1
 8 8 l 1,28,-1
4 14 m 1,36,-1
 2 14 l 1,37,-1
 2 16 l 1,38,-1
 4 16 l 1,39,-1
 4 14 l 1,36,-1
EndSplineSet
Validated: 5
EndChar

StartChar: oacute
Encoding: 178 243 178
Width: 12
VWidth: 16
GlyphClass: 2
Flags: W
LayerCount: 3
Fore
SplineSet
4 12 m 1,0,-1
 4 14 l 1,1,-1
 6 14 l 1,2,-1
 6 12 l 1,3,-1
 4 12 l 1,0,-1
6 2 m 1,4,-1
 8 2 l 1,5,-1
 8 0 l 1,6,-1
 6 0 l 1,7,-1
 4 0 l 1,8,-1
 2 0 l 1,9,-1
 2 2 l 1,10,-1
 4 2 l 1,11,-1
 6 2 l 1,4,-1
8 2 m 1,12,-1
 8 4 l 1,13,-1
 8 6 l 1,14,-1
 8 8 l 1,15,-1
 10 8 l 1,16,-1
 10 6 l 1,17,-1
 10 4 l 1,18,-1
 10 2 l 1,19,-1
 8 2 l 1,12,-1
2 2 m 1,20,-1
 0 2 l 1,21,-1
 0 4 l 1,22,-1
 0 6 l 1,23,-1
 0 8 l 1,24,-1
 2 8 l 1,25,-1
 2 6 l 1,26,-1
 2 4 l 1,27,-1
 2 2 l 1,20,-1
8 8 m 1,28,-1
 6 8 l 1,29,-1
 4 8 l 1,30,-1
 2 8 l 1,31,-1
 2 10 l 1,32,-1
 4 10 l 1,33,-1
 6 10 l 1,34,-1
 8 10 l 1,35,-1
 8 8 l 1,28,-1
6 14 m 1,36,-1
 6 16 l 1,37,-1
 8 16 l 1,38,-1
 8 14 l 1,39,-1
 6 14 l 1,36,-1
EndSplineSet
Validated: 5
EndChar

StartChar: ocircumflex
Encoding: 179 244 179
Width: 12
VWidth: 16
GlyphClass: 2
Flags: W
LayerCount: 3
Fore
SplineSet
6 12 m 1,0,-1
 6 14 l 1,1,-1
 8 14 l 1,2,-1
 8 12 l 1,3,-1
 6 12 l 1,0,-1
2 12 m 1,4,-1
 2 14 l 1,5,-1
 4 14 l 1,6,-1
 4 12 l 1,7,-1
 2 12 l 1,4,-1
6 2 m 1,8,-1
 8 2 l 1,9,-1
 8 0 l 1,10,-1
 6 0 l 1,11,-1
 4 0 l 1,12,-1
 2 0 l 1,13,-1
 2 2 l 1,14,-1
 4 2 l 1,15,-1
 6 2 l 1,8,-1
8 2 m 1,16,-1
 8 4 l 1,17,-1
 8 6 l 1,18,-1
 8 8 l 1,19,-1
 10 8 l 1,20,-1
 10 6 l 1,21,-1
 10 4 l 1,22,-1
 10 2 l 1,23,-1
 8 2 l 1,16,-1
2 2 m 1,24,-1
 0 2 l 1,25,-1
 0 4 l 1,26,-1
 0 6 l 1,27,-1
 0 8 l 1,28,-1
 2 8 l 1,29,-1
 2 6 l 1,30,-1
 2 4 l 1,31,-1
 2 2 l 1,24,-1
8 8 m 1,32,-1
 6 8 l 1,33,-1
 4 8 l 1,34,-1
 2 8 l 1,35,-1
 2 10 l 1,36,-1
 4 10 l 1,37,-1
 6 10 l 1,38,-1
 8 10 l 1,39,-1
 8 8 l 1,32,-1
6 14 m 1,40,-1
 4 14 l 1,41,-1
 4 16 l 1,42,-1
 6 16 l 1,43,-1
 6 14 l 1,40,-1
EndSplineSet
Validated: 5
EndChar

StartChar: otilde
Encoding: 180 245 180
Width: 12
VWidth: 16
GlyphClass: 2
Flags: W
LayerCount: 3
Fore
SplineSet
6 12 m 1,0,-1
 6 14 l 1,1,-1
 8 14 l 1,2,-1
 8 12 l 1,3,-1
 6 12 l 1,0,-1
2 12 m 1,4,-1
 2 14 l 1,5,-1
 4 14 l 1,6,-1
 4 12 l 1,7,-1
 2 12 l 1,4,-1
6 2 m 1,8,-1
 8 2 l 1,9,-1
 8 0 l 1,10,-1
 6 0 l 1,11,-1
 4 0 l 1,12,-1
 2 0 l 1,13,-1
 2 2 l 1,14,-1
 4 2 l 1,15,-1
 6 2 l 1,8,-1
8 2 m 1,16,-1
 8 4 l 1,17,-1
 8 6 l 1,18,-1
 8 8 l 1,19,-1
 10 8 l 1,20,-1
 10 6 l 1,21,-1
 10 4 l 1,22,-1
 10 2 l 1,23,-1
 8 2 l 1,16,-1
2 2 m 1,24,-1
 0 2 l 1,25,-1
 0 4 l 1,26,-1
 0 6 l 1,27,-1
 0 8 l 1,28,-1
 2 8 l 1,29,-1
 2 6 l 1,30,-1
 2 4 l 1,31,-1
 2 2 l 1,24,-1
8 8 m 1,32,-1
 6 8 l 1,33,-1
 4 8 l 1,34,-1
 2 8 l 1,35,-1
 2 10 l 1,36,-1
 4 10 l 1,37,-1
 6 10 l 1,38,-1
 8 10 l 1,39,-1
 8 8 l 1,32,-1
8 14 m 1,40,-1
 8 16 l 1,41,-1
 10 16 l 1,42,-1
 10 14 l 1,43,-1
 8 14 l 1,40,-1
6 14 m 1,44,-1
 4 14 l 1,45,-1
 4 16 l 1,46,-1
 6 16 l 1,47,-1
 6 14 l 1,44,-1
EndSplineSet
Validated: 5
EndChar

StartChar: odieresis
Encoding: 181 246 181
Width: 12
VWidth: 16
GlyphClass: 2
Flags: W
LayerCount: 3
Fore
SplineSet
6 12 m 1,0,-1
 6 14 l 1,1,-1
 8 14 l 1,2,-1
 8 12 l 1,3,-1
 6 12 l 1,0,-1
2 12 m 1,4,-1
 2 14 l 1,5,-1
 4 14 l 1,6,-1
 4 12 l 1,7,-1
 2 12 l 1,4,-1
6 2 m 1,8,-1
 8 2 l 1,9,-1
 8 0 l 1,10,-1
 6 0 l 1,11,-1
 4 0 l 1,12,-1
 2 0 l 1,13,-1
 2 2 l 1,14,-1
 4 2 l 1,15,-1
 6 2 l 1,8,-1
8 2 m 1,16,-1
 8 4 l 1,17,-1
 8 6 l 1,18,-1
 8 8 l 1,19,-1
 10 8 l 1,20,-1
 10 6 l 1,21,-1
 10 4 l 1,22,-1
 10 2 l 1,23,-1
 8 2 l 1,16,-1
2 2 m 1,24,-1
 0 2 l 1,25,-1
 0 4 l 1,26,-1
 0 6 l 1,27,-1
 0 8 l 1,28,-1
 2 8 l 1,29,-1
 2 6 l 1,30,-1
 2 4 l 1,31,-1
 2 2 l 1,24,-1
8 8 m 1,32,-1
 6 8 l 1,33,-1
 4 8 l 1,34,-1
 2 8 l 1,35,-1
 2 10 l 1,36,-1
 4 10 l 1,37,-1
 6 10 l 1,38,-1
 8 10 l 1,39,-1
 8 8 l 1,32,-1
EndSplineSet
Validated: 5
EndChar

StartChar: divide
Encoding: 182 247 182
Width: 12
VWidth: 16
GlyphClass: 2
Flags: W
LayerCount: 3
Fore
SplineSet
4 2 m 1,0,-1
 4 4 l 1,1,-1
 6 4 l 1,2,-1
 6 2 l 1,3,-1
 4 2 l 1,0,-1
4 10 m 1,4,-1
 4 12 l 1,5,-1
 6 12 l 1,6,-1
 6 10 l 1,7,-1
 4 10 l 1,4,-1
8 8 m 1,8,-1
 10 8 l 1,9,-1
 10 6 l 1,10,-1
 8 6 l 1,11,-1
 6 6 l 1,12,-1
 4 6 l 1,13,-1
 2 6 l 1,14,-1
 0 6 l 1,15,-1
 0 8 l 1,16,-1
 2 8 l 1,17,-1
 4 8 l 1,18,-1
 6 8 l 1,19,-1
 8 8 l 1,8,-1
EndSplineSet
Validated: 1
EndChar

StartChar: oslash
Encoding: 183 248 183
Width: 12
VWidth: 16
GlyphClass: 2
Flags: W
LayerCount: 3
Fore
SplineSet
6 2 m 1,0,-1
 8 2 l 1,1,-1
 8 0 l 1,2,-1
 6 0 l 1,3,-1
 4 0 l 1,4,-1
 2 0 l 1,5,-1
 2 2 l 1,6,-1
 0 2 l 1,7,-1
 0 4 l 1,8,-1
 0 6 l 1,9,-1
 0 8 l 1,10,-1
 2 8 l 1,11,-1
 2 6 l 1,12,-1
 2 4 l 1,13,-1
 4 4 l 1,14,-1
 4 2 l 1,15,-1
 6 2 l 1,0,-1
8 2 m 1,16,-1
 8 4 l 1,17,-1
 8 6 l 1,18,-1
 6 6 l 1,19,-1
 6 4 l 1,20,-1
 4 4 l 1,21,-1
 4 6 l 1,22,-1
 6 6 l 1,23,-1
 6 8 l 1,24,-1
 4 8 l 1,25,-1
 2 8 l 1,26,-1
 2 10 l 1,27,-1
 4 10 l 1,28,-1
 6 10 l 1,29,-1
 8 10 l 1,30,-1
 8 8 l 1,31,-1
 10 8 l 1,32,-1
 10 6 l 1,33,-1
 10 4 l 1,34,-1
 10 2 l 1,35,-1
 8 2 l 1,16,-1
EndSplineSet
Validated: 5
EndChar

StartChar: ugrave
Encoding: 184 249 184
Width: 12
VWidth: 16
GlyphClass: 2
Flags: W
LayerCount: 3
Fore
SplineSet
4 12 m 1,0,-1
 4 14 l 1,1,-1
 6 14 l 1,2,-1
 6 12 l 1,3,-1
 4 12 l 1,0,-1
8 0 m 1,4,-1
 6 0 l 1,5,-1
 4 0 l 1,6,-1
 2 0 l 1,7,-1
 2 2 l 1,8,-1
 4 2 l 1,9,-1
 6 2 l 1,10,-1
 8 2 l 1,11,-1
 8 4 l 1,12,-1
 8 6 l 1,13,-1
 8 8 l 1,14,-1
 8 10 l 1,15,-1
 10 10 l 1,16,-1
 10 8 l 1,17,-1
 10 6 l 1,18,-1
 10 4 l 1,19,-1
 10 2 l 1,20,-1
 10 0 l 1,21,-1
 8 0 l 1,4,-1
2 2 m 1,22,-1
 0 2 l 1,23,-1
 0 4 l 1,24,-1
 0 6 l 1,25,-1
 0 8 l 1,26,-1
 0 10 l 1,27,-1
 2 10 l 1,28,-1
 2 8 l 1,29,-1
 2 6 l 1,30,-1
 2 4 l 1,31,-1
 2 2 l 1,22,-1
4 14 m 1,32,-1
 2 14 l 1,33,-1
 2 16 l 1,34,-1
 4 16 l 1,35,-1
 4 14 l 1,32,-1
EndSplineSet
Validated: 5
EndChar

StartChar: uacute
Encoding: 185 250 185
Width: 12
VWidth: 16
GlyphClass: 2
Flags: W
LayerCount: 3
Fore
SplineSet
4 12 m 1,0,-1
 4 14 l 1,1,-1
 6 14 l 1,2,-1
 6 12 l 1,3,-1
 4 12 l 1,0,-1
8 0 m 1,4,-1
 6 0 l 1,5,-1
 4 0 l 1,6,-1
 2 0 l 1,7,-1
 2 2 l 1,8,-1
 4 2 l 1,9,-1
 6 2 l 1,10,-1
 8 2 l 1,11,-1
 8 4 l 1,12,-1
 8 6 l 1,13,-1
 8 8 l 1,14,-1
 8 10 l 1,15,-1
 10 10 l 1,16,-1
 10 8 l 1,17,-1
 10 6 l 1,18,-1
 10 4 l 1,19,-1
 10 2 l 1,20,-1
 10 0 l 1,21,-1
 8 0 l 1,4,-1
2 2 m 1,22,-1
 0 2 l 1,23,-1
 0 4 l 1,24,-1
 0 6 l 1,25,-1
 0 8 l 1,26,-1
 0 10 l 1,27,-1
 2 10 l 1,28,-1
 2 8 l 1,29,-1
 2 6 l 1,30,-1
 2 4 l 1,31,-1
 2 2 l 1,22,-1
6 14 m 1,32,-1
 6 16 l 1,33,-1
 8 16 l 1,34,-1
 8 14 l 1,35,-1
 6 14 l 1,32,-1
EndSplineSet
Validated: 5
EndChar

StartChar: ucircumflex
Encoding: 186 251 186
Width: 12
VWidth: 16
GlyphClass: 2
Flags: W
LayerCount: 3
Fore
SplineSet
6 12 m 1,0,-1
 6 14 l 1,1,-1
 8 14 l 1,2,-1
 8 12 l 1,3,-1
 6 12 l 1,0,-1
2 12 m 1,4,-1
 2 14 l 1,5,-1
 4 14 l 1,6,-1
 4 12 l 1,7,-1
 2 12 l 1,4,-1
8 0 m 1,8,-1
 6 0 l 1,9,-1
 4 0 l 1,10,-1
 2 0 l 1,11,-1
 2 2 l 1,12,-1
 4 2 l 1,13,-1
 6 2 l 1,14,-1
 8 2 l 1,15,-1
 8 4 l 1,16,-1
 8 6 l 1,17,-1
 8 8 l 1,18,-1
 8 10 l 1,19,-1
 10 10 l 1,20,-1
 10 8 l 1,21,-1
 10 6 l 1,22,-1
 10 4 l 1,23,-1
 10 2 l 1,24,-1
 10 0 l 1,25,-1
 8 0 l 1,8,-1
2 2 m 1,26,-1
 0 2 l 1,27,-1
 0 4 l 1,28,-1
 0 6 l 1,29,-1
 0 8 l 1,30,-1
 0 10 l 1,31,-1
 2 10 l 1,32,-1
 2 8 l 1,33,-1
 2 6 l 1,34,-1
 2 4 l 1,35,-1
 2 2 l 1,26,-1
6 14 m 1,36,-1
 4 14 l 1,37,-1
 4 16 l 1,38,-1
 6 16 l 1,39,-1
 6 14 l 1,36,-1
EndSplineSet
Validated: 5
EndChar

StartChar: udieresis
Encoding: 187 252 187
Width: 12
VWidth: 16
GlyphClass: 2
Flags: W
LayerCount: 3
Fore
SplineSet
6 12 m 1,0,-1
 6 14 l 1,1,-1
 8 14 l 1,2,-1
 8 12 l 1,3,-1
 6 12 l 1,0,-1
2 12 m 1,4,-1
 2 14 l 1,5,-1
 4 14 l 1,6,-1
 4 12 l 1,7,-1
 2 12 l 1,4,-1
8 0 m 1,8,-1
 6 0 l 1,9,-1
 4 0 l 1,10,-1
 2 0 l 1,11,-1
 2 2 l 1,12,-1
 4 2 l 1,13,-1
 6 2 l 1,14,-1
 8 2 l 1,15,-1
 8 4 l 1,16,-1
 8 6 l 1,17,-1
 8 8 l 1,18,-1
 8 10 l 1,19,-1
 10 10 l 1,20,-1
 10 8 l 1,21,-1
 10 6 l 1,22,-1
 10 4 l 1,23,-1
 10 2 l 1,24,-1
 10 0 l 1,25,-1
 8 0 l 1,8,-1
2 2 m 1,26,-1
 0 2 l 1,27,-1
 0 4 l 1,28,-1
 0 6 l 1,29,-1
 0 8 l 1,30,-1
 0 10 l 1,31,-1
 2 10 l 1,32,-1
 2 8 l 1,33,-1
 2 6 l 1,34,-1
 2 4 l 1,35,-1
 2 2 l 1,26,-1
EndSplineSet
Validated: 5
EndChar

StartChar: yacute
Encoding: 188 253 188
Width: 12
VWidth: 16
GlyphClass: 2
Flags: W
LayerCount: 3
Fore
SplineSet
4 12 m 1,0,-1
 4 14 l 1,1,-1
 6 14 l 1,2,-1
 6 12 l 1,3,-1
 4 12 l 1,0,-1
6 0 m 1,4,-1
 8 0 l 1,5,-1
 8 -2 l 1,6,-1
 6 -2 l 1,7,-1
 4 -2 l 1,8,-1
 2 -2 l 1,9,-1
 0 -2 l 1,10,-1
 0 0 l 1,11,-1
 2 0 l 1,12,-1
 4 0 l 1,13,-1
 6 0 l 1,4,-1
8 0 m 1,14,-1
 8 2 l 1,15,-1
 6 2 l 1,16,-1
 4 2 l 1,17,-1
 2 2 l 1,18,-1
 2 4 l 1,19,-1
 4 4 l 1,20,-1
 6 4 l 1,21,-1
 8 4 l 1,22,-1
 8 6 l 1,23,-1
 8 8 l 1,24,-1
 8 10 l 1,25,-1
 10 10 l 1,26,-1
 10 8 l 1,27,-1
 10 6 l 1,28,-1
 10 4 l 1,29,-1
 10 2 l 1,30,-1
 10 0 l 1,31,-1
 8 0 l 1,14,-1
2 4 m 1,32,-1
 0 4 l 1,33,-1
 0 6 l 1,34,-1
 0 8 l 1,35,-1
 0 10 l 1,36,-1
 2 10 l 1,37,-1
 2 8 l 1,38,-1
 2 6 l 1,39,-1
 2 4 l 1,32,-1
6 14 m 1,40,-1
 6 16 l 1,41,-1
 8 16 l 1,42,-1
 8 14 l 1,43,-1
 6 14 l 1,40,-1
EndSplineSet
Validated: 5
EndChar

StartChar: Euro
Encoding: 189 8364 189
Width: 12
VWidth: 16
GlyphClass: 2
Flags: W
LayerCount: 3
Fore
SplineSet
8 10 m 1,0,-1
 8 12 l 1,1,-1
 10 12 l 1,2,-1
 10 10 l 1,3,-1
 8 10 l 1,0,-1
6 2 m 1,4,-1
 8 2 l 1,5,-1
 8 0 l 1,6,-1
 6 0 l 1,7,-1
 4 0 l 1,8,-1
 4 2 l 1,9,-1
 6 2 l 1,4,-1
8 2 m 1,10,-1
 8 4 l 1,11,-1
 10 4 l 1,12,-1
 10 2 l 1,13,-1
 8 2 l 1,10,-1
4 2 m 1,14,-1
 2 2 l 1,15,-1
 2 4 l 1,16,-1
 0 4 l 1,17,-1
 0 6 l 1,18,-1
 2 6 l 1,19,-1
 2 8 l 1,20,-1
 0 8 l 1,21,-1
 0 10 l 1,22,-1
 2 10 l 1,23,-1
 2 12 l 1,24,-1
 4 12 l 1,25,-1
 4 10 l 1,26,-1
 6 10 l 1,27,-1
 6 8 l 1,28,-1
 4 8 l 1,29,-1
 4 6 l 1,30,-1
 6 6 l 1,31,-1
 6 4 l 1,32,-1
 4 4 l 1,33,-1
 4 2 l 1,14,-1
8 12 m 1,34,-1
 6 12 l 1,35,-1
 4 12 l 1,36,-1
 4 14 l 1,37,-1
 6 14 l 1,38,-1
 8 14 l 1,39,-1
 8 12 l 1,34,-1
EndSplineSet
Validated: 5
EndChar

StartChar: smileface
Encoding: 190 9786 190
Width: 12
VWidth: 16
GlyphClass: 2
Flags: W
LayerCount: 3
Fore
SplineSet
6 8 m 1,0,-1
 6 10 l 1,1,-1
 6 12 l 1,2,-1
 8 12 l 1,3,-1
 8 10 l 1,4,-1
 8 8 l 1,5,-1
 6 8 l 1,0,-1
2 8 m 1,6,-1
 2 10 l 1,7,-1
 2 12 l 1,8,-1
 4 12 l 1,9,-1
 4 10 l 1,10,-1
 4 8 l 1,11,-1
 2 8 l 1,6,-1
6 4 m 1,12,-1
 8 4 l 1,13,-1
 8 2 l 1,14,-1
 6 2 l 1,15,-1
 4 2 l 1,16,-1
 2 2 l 1,17,-1
 2 4 l 1,18,-1
 4 4 l 1,19,-1
 6 4 l 1,12,-1
8 4 m 1,20,-1
 8 6 l 1,21,-1
 10 6 l 1,22,-1
 10 4 l 1,23,-1
 8 4 l 1,20,-1
2 4 m 1,24,-1
 0 4 l 1,25,-1
 0 6 l 1,26,-1
 2 6 l 1,27,-1
 2 4 l 1,24,-1
EndSplineSet
Validated: 5
EndChar

StartChar: invsmileface
Encoding: 191 9787 191
Width: 12
VWidth: 16
GlyphClass: 2
Flags: W
LayerCount: 3
Fore
SplineSet
8 0 m 1,0,-1
 6 0 l 1,1,-1
 4 0 l 1,2,-1
 2 0 l 1,3,-1
 2 2 l 1,4,-1
 0 2 l 1,5,-1
 0 4 l 1,6,-1
 0 6 l 1,7,-1
 0 8 l 1,8,-1
 0 10 l 1,9,-1
 0 12 l 1,10,-1
 2 12 l 1,11,-1
 2 14 l 1,12,-1
 4 14 l 1,13,-1
 6 14 l 1,14,-1
 8 14 l 1,15,-1
 10 14 l 1,16,-1
 10 12 l 1,17,-1
 12 12 l 1,18,-1
 12 10 l 1,19,-1
 12 8 l 1,20,-1
 12 6 l 1,21,-1
 12 4 l 1,22,-1
 12 2 l 1,23,-1
 10 2 l 1,24,-1
 10 0 l 1,25,-1
 8 0 l 1,0,-1
6 2 m 1,26,-1
 8 2 l 1,27,-1
 8 4 l 1,28,-1
 6 4 l 1,29,-1
 4 4 l 1,30,-1
 4 6 l 1,31,-1
 2 6 l 1,32,-1
 2 4 l 1,33,-1
 4 4 l 1,34,-1
 4 2 l 1,35,-1
 6 2 l 1,26,-1
10 4 m 1,36,-1
 10 6 l 1,37,-1
 8 6 l 1,38,-1
 8 4 l 1,39,-1
 10 4 l 1,36,-1
10 8 m 1,40,-1
 10 10 l 1,41,-1
 8 10 l 1,42,-1
 8 8 l 1,43,-1
 10 8 l 1,40,-1
6 10 m 1,44,-1
 6 12 l 1,45,-1
 4 12 l 1,46,-1
 4 10 l 1,47,-1
 6 10 l 1,44,-1
EndSplineSet
Validated: 5
EndChar

StartChar: heart
Encoding: 192 9829 192
Width: 12
VWidth: 16
GlyphClass: 2
Flags: W
LayerCount: 3
Fore
SplineSet
4 0 m 1,0,-1
 4 2 l 1,1,-1
 2 2 l 1,2,-1
 2 4 l 1,3,-1
 0 4 l 1,4,-1
 0 6 l 1,5,-1
 0 8 l 1,6,-1
 0 10 l 1,7,-1
 2 10 l 1,8,-1
 2 12 l 1,9,-1
 4 12 l 1,10,-1
 4 10 l 1,11,-1
 6 10 l 1,12,-1
 6 12 l 1,13,-1
 8 12 l 1,14,-1
 8 10 l 1,15,-1
 10 10 l 1,16,-1
 10 8 l 1,17,-1
 10 6 l 1,18,-1
 10 4 l 1,19,-1
 8 4 l 1,20,-1
 8 2 l 1,21,-1
 6 2 l 1,22,-1
 6 0 l 1,23,-1
 4 0 l 1,0,-1
EndSplineSet
Validated: 1
EndChar

StartChar: doubleequal
Encoding: 194 -1 194
Width: 24
VWidth: 16
Flags: W
LayerCount: 3
Fore
SplineSet
8 4 m 1,0,-1
 22 4 l 1,1,-1
 22 2 l 1,2,-1
 8 2 l 1,3,-1
 6 2 l 1,4,-1
 4 2 l 1,5,-1
 2 2 l 1,6,-1
 0 2 l 1,7,-1
 0 4 l 1,8,-1
 2 4 l 1,9,-1
 4 4 l 1,10,-1
 6 4 l 1,11,-1
 8 4 l 1,0,-1
8 10 m 1,12,-1
 22 10 l 1,13,-1
 22 8 l 1,14,-1
 8 8 l 1,15,-1
 6 8 l 1,16,-1
 4 8 l 1,17,-1
 2 8 l 1,18,-1
 0 8 l 1,19,-1
 0 10 l 1,20,-1
 2 10 l 1,21,-1
 4 10 l 1,22,-1
 6 10 l 1,23,-1
 8 10 l 1,12,-1
EndSplineSet
Validated: 1
Ligature2: "liga-subtable" equal equal
LCarets2: 1 0
EndChar

StartChar: tripleequal
Encoding: 195 -1 195
Width: 36
VWidth: 16
Flags: W
LayerCount: 3
Fore
SplineSet
8 8 m 1,0,-1
 34 8 l 5,1,-1
 34 6 l 5,2,-1
 8 6 l 1,3,-1
 6 6 l 1,4,-1
 4 6 l 1,5,-1
 2 6 l 1,6,-1
 0 6 l 1,7,-1
 0 8 l 1,8,-1
 2 8 l 1,9,-1
 4 8 l 1,10,-1
 6 8 l 1,11,-1
 8 8 l 1,0,-1
8 4 m 1,12,-1
 34 4 l 5,13,-1
 34 2 l 5,14,-1
 8 2 l 1,15,-1
 6 2 l 1,16,-1
 4 2 l 1,17,-1
 2 2 l 1,18,-1
 0 2 l 1,19,-1
 0 4 l 1,20,-1
 2 4 l 1,21,-1
 4 4 l 1,22,-1
 6 4 l 1,23,-1
 8 4 l 1,12,-1
8 12 m 1,24,-1
 34 12 l 5,25,-1
 34 10 l 5,26,-1
 8 10 l 1,27,-1
 6 10 l 1,28,-1
 4 10 l 1,29,-1
 2 10 l 1,30,-1
 0 10 l 1,31,-1
 0 12 l 1,32,-1
 2 12 l 1,33,-1
 4 12 l 1,34,-1
 6 12 l 1,35,-1
 8 12 l 1,24,-1
EndSplineSet
Validated: 1
LCarets2: 2 0 0
Ligature2: "liga-subtable" equal equal equal
EndChar

StartChar: notdoubleequal
Encoding: 196 -1 196
Width: 24
VWidth: 16
Flags: W
LayerCount: 3
Fore
SplineSet
8 -2 m 25,0,-1
 8 2 l 25,1,-1
 10 2 l 25,2,-1
 10 -2 l 25,3,-1
 8 -2 l 25,0,-1
10 -2 m 25,4,-1
 8 -2 l 25,5,-1
 10 -2 l 25,4,-1
12 14 m 25,6,-1
 14 14 l 25,7,-1
 14 10 l 29,8,-1
 12 10 l 29,9,-1
 12 14 l 25,6,-1
10 8 m 25,10,-1
 12 8 l 25,11,-1
 12 4 l 25,12,-1
 10 4 l 25,13,-1
 10 8 l 25,10,-1
8 4 m 1,14,-1
 10 4 l 1,15,16
 10 4 10 4 12 4 c 1,17,18
 12 4 12 4 22 4 c 1,19,-1
 22 2 l 1,20,-1
 10 2 l 1,21,22
 10 2 10 2 8 2 c 1,23,-1
 6 2 l 1,24,-1
 4 2 l 1,25,-1
 2 2 l 1,26,-1
 0 2 l 1,27,-1
 0 4 l 1,28,-1
 2 4 l 1,29,-1
 4 4 l 1,30,-1
 6 4 l 1,31,-1
 8 4 l 1,14,-1
8 10 m 1,32,-1
 12 10 l 5,33,34
 12 10 12 10 14 10 c 5,35,36
 14 10 14 10 22 10 c 1,37,-1
 22 8 l 1,38,-1
 12 8 l 1,39,40
 12 8 12 8 10 8 c 1,41,42
 10 8 10 8 8 8 c 1,43,-1
 6 8 l 1,44,-1
 4 8 l 1,45,-1
 2 8 l 1,46,-1
 0 8 l 1,47,-1
 0 10 l 1,48,-1
 2 10 l 1,49,-1
 4 10 l 1,50,-1
 6 10 l 1,51,-1
 8 10 l 1,32,-1
EndSplineSet
Validated: 5
LCarets2: 2 0 0
Ligature2: "liga-subtable" exclam equal
EndChar

StartChar: nottripleequal
Encoding: 197 -1 197
Width: 36
VWidth: 16
Flags: W
LayerCount: 3
Fore
SplineSet
18 16 m 25,0,-1
 20 16 l 25,1,-1
 20 12 l 25,2,-1
 18 12 l 25,3,-1
 18 16 l 25,0,-1
16 -2 m 25,4,-1
 14 -2 l 25,5,-1
 14 2 l 25,6,-1
 16 2 l 25,7,-1
 16 -2 l 25,4,-1
16 10 m 25,8,-1
 18 10 l 25,9,-1
 18 4 l 25,10,-1
 16 4 l 25,11,-1
 16 10 l 25,8,-1
14 8 m 1,12,-1
 34 8 l 1,13,-1
 34 6 l 1,14,-1
 14 6 l 1,15,-1
 6 6 l 1,16,-1
 4 6 l 1,17,-1
 2 6 l 1,18,-1
 0 6 l 1,19,-1
 0 8 l 1,20,-1
 2 8 l 1,21,-1
 4 8 l 1,22,-1
 6 8 l 1,23,-1
 14 8 l 1,12,-1
14 4 m 1,24,-1
 16 4 l 1,25,26
 16 4 16 4 18 4 c 1,27,28
 18 4 18 4 34 4 c 1,29,-1
 34 2 l 1,30,-1
 16 2 l 1,31,32
 16 2 16 2 14 2 c 1,33,-1
 6 2 l 1,34,-1
 4 2 l 1,35,-1
 2 2 l 1,36,-1
 0 2 l 1,37,-1
 0 4 l 1,38,-1
 2 4 l 1,39,-1
 4 4 l 1,40,-1
 6 4 l 1,41,-1
 14 4 l 1,24,-1
14 12 m 1,42,-1
 18 12 l 1,43,44
 18 12 18 12 20 12 c 1,45,46
 20 12 20 12 34 12 c 1,47,-1
 34 10 l 1,48,-1
 18 10 l 1,49,50
 18 10 18 10 16 10 c 1,51,52
 16 10 16 10 14 10 c 1,53,-1
 6 10 l 1,54,-1
 4 10 l 1,55,-1
 2 10 l 1,56,-1
 0 10 l 1,57,-1
 0 12 l 1,58,-1
 2 12 l 1,59,-1
 4 12 l 1,60,-1
 6 12 l 1,61,-1
 14 12 l 1,42,-1
EndSplineSet
Validated: 5
LCarets2: 2 0 0
Ligature2: "liga-subtable" exclam equal equal
EndChar

StartChar: leftarrow
Encoding: 198 -1 198
Width: 24
VWidth: 16
Flags: W
LayerCount: 3
Fore
SplineSet
8 14 m 1,0,-1
 8 12 l 1,1,-1
 6 12 l 1,2,-1
 6 14 l 1,3,-1
 8 14 l 1,0,-1
6 12 m 1,4,-1
 6 10 l 1,5,-1
 4 10 l 1,6,-1
 4 12 l 1,7,-1
 6 12 l 1,4,-1
4 10 m 1,8,-1
 4 8 l 1,9,-1
 2 8 l 1,10,-1
 2 10 l 1,11,-1
 4 10 l 1,8,-1
22 8 m 1,12,-1
 22 6 l 1,13,-1
 0 6 l 1,14,-1
 0 8 l 1,15,-1
 22 8 l 1,12,-1
2 6 m 1,16,-1
 4 6 l 1,17,-1
 4 4 l 1,18,-1
 2 4 l 1,19,-1
 2 6 l 1,16,-1
4 4 m 1,20,-1
 6 4 l 1,21,-1
 6 2 l 1,22,-1
 4 2 l 1,23,-1
 4 4 l 1,20,-1
6 2 m 1,24,-1
 8 2 l 1,25,-1
 8 0 l 1,26,-1
 6 0 l 1,27,-1
 6 2 l 1,24,-1
EndSplineSet
Validated: 5
Ligature2: "liga-subtable" less hyphen
EndChar

StartChar: rightarrow
Encoding: 199 -1 199
Width: 24
VWidth: 16
Flags: W
LayerCount: 3
Fore
SplineSet
14 0 m 1,0,-1
 14 2 l 1,1,-1
 16 2 l 1,2,-1
 16 0 l 1,3,-1
 14 0 l 1,0,-1
16 2 m 1,4,-1
 16 4 l 1,5,-1
 18 4 l 1,6,-1
 18 2 l 1,7,-1
 16 2 l 1,4,-1
18 4 m 1,8,-1
 18 6 l 1,9,-1
 20 6 l 1,10,-1
 20 4 l 1,11,-1
 18 4 l 1,8,-1
0 6 m 1,12,-1
 0 8 l 1,13,-1
 22 8 l 1,14,-1
 22 6 l 1,15,-1
 0 6 l 1,12,-1
20 8 m 1,16,-1
 18 8 l 1,17,-1
 18 10 l 1,18,-1
 20 10 l 1,19,-1
 20 8 l 1,16,-1
18 10 m 1,20,-1
 16 10 l 1,21,-1
 16 12 l 1,22,-1
 18 12 l 1,23,-1
 18 10 l 1,20,-1
16 12 m 1,24,-1
 14 12 l 1,25,-1
 14 14 l 1,26,-1
 16 14 l 1,27,-1
 16 12 l 1,24,-1
EndSplineSet
Validated: 5
LCarets2: 1 0
Ligature2: "liga-subtable" hyphen greater
EndChar

StartChar: rightthickarrow
Encoding: 200 -1 200
Width: 24
VWidth: 16
Flags: W
LayerCount: 3
Fore
SplineSet
16 14 m 5,0,-1
 16 12 l 5,1,-1
 14 12 l 5,2,-1
 14 14 l 5,3,-1
 16 14 l 5,0,-1
16 12 m 5,4,-1
 18 12 l 5,5,-1
 18 10 l 5,6,-1
 16 10 l 5,7,-1
 16 12 l 5,4,-1
0 10 m 5,8,-1
 20 10 l 5,9,-1
 20 8 l 5,10,-1
 0 8 l 5,11,-1
 0 10 l 5,8,-1
20 8 m 5,12,-1
 22 8 l 5,13,-1
 22 6 l 5,14,-1
 20 6 l 5,15,-1
 20 8 l 5,12,-1
20 6 m 5,16,-1
 20 4 l 5,17,-1
 0 4 l 5,18,-1
 0 6 l 5,19,-1
 20 6 l 5,16,-1
18 4 m 5,20,-1
 18 2 l 5,21,-1
 16 2 l 5,22,-1
 16 4 l 5,23,-1
 18 4 l 5,20,-1
16 2 m 5,24,-1
 16 0 l 5,25,-1
 14 0 l 5,26,-1
 14 2 l 5,27,-1
 16 2 l 5,24,-1
EndSplineSet
Validated: 5
Ligature2: "liga-subtable" equal greater
LCarets2: 1 0
EndChar

StartChar: lessthanequalto
Encoding: 201 -1 201
Width: 24
VWidth: 16
Flags: W
LayerCount: 3
Fore
SplineSet
5 0 m 25,0,-1
 17 0 l 25,1,-1
 17 -2 l 25,2,-1
 5 -2 l 25,3,-1
 5 0 l 25,0,-1
17 2 m 1,4,-1
 13 2 l 1,5,-1
 13 4 l 1,6,-1
 17 4 l 1,7,-1
 17 2 l 1,4,-1
13 4 m 1,8,-1
 9 4 l 1,9,-1
 9 6 l 1,10,-1
 13 6 l 1,11,-1
 13 4 l 1,8,-1
9 6 m 1,12,-1
 5 6 l 1,13,-1
 5 8 l 1,14,-1
 9 8 l 1,15,-1
 9 6 l 1,12,-1
9 8 m 1,16,-1
 9 10 l 1,17,-1
 13 10 l 1,18,-1
 13 8 l 1,19,-1
 9 8 l 1,16,-1
13 10 m 1,20,-1
 13 12 l 1,21,-1
 17 12 l 1,22,-1
 17 10 l 1,23,-1
 13 10 l 1,20,-1
EndSplineSet
Validated: 5
Ligature2: "liga-subtable" less equal
EndChar

StartChar: greaterthanequalto
Encoding: 202 -1 202
Width: 24
VWidth: 16
Flags: W
LayerCount: 3
Fore
SplineSet
17 0 m 25,0,-1
 5 0 l 25,1,-1
 5 -2 l 25,2,-1
 17 -2 l 25,3,-1
 17 0 l 25,0,-1
5 2 m 1,4,-1
 9 2 l 1,5,-1
 9 4 l 1,6,-1
 5 4 l 1,7,-1
 5 2 l 1,4,-1
9 4 m 1,8,-1
 13 4 l 1,9,-1
 13 6 l 1,10,-1
 9 6 l 1,11,-1
 9 4 l 1,8,-1
13 6 m 1,12,-1
 17 6 l 1,13,-1
 17 8 l 1,14,-1
 13 8 l 1,15,-1
 13 6 l 1,12,-1
13 8 m 1,16,-1
 13 10 l 1,17,-1
 9 10 l 1,18,-1
 9 8 l 1,19,-1
 13 8 l 1,16,-1
9 10 m 1,20,-1
 9 12 l 1,21,-1
 5 12 l 1,22,-1
 5 10 l 1,23,-1
 9 10 l 1,20,-1
EndSplineSet
Validated: 5
LCarets2: 1 0
Ligature2: "liga-subtable" greater equal
EndChar

StartChar: dotlessi
Encoding: 203 305 203
Width: 12
VWidth: 16
GlyphClass: 2
Flags: W
LayerCount: 3
Fore
SplineSet
4 -2 m 1,0,-1
 4 0 l 1,1,-1
 4 2 l 1,2,-1
 4 4 l 1,3,-1
 4 6 l 1,4,-1
 4 8 l 1,5,-1
 6 8 l 1,6,-1
 6 6 l 1,7,-1
 6 4 l 1,8,-1
 6 2 l 1,9,-1
 6 0 l 1,10,-1
 6 -2 l 1,11,-1
 4 -2 l 1,0,-1
EndSplineSet
Validated: 1
EndChar

StartChar: gbreve
Encoding: 204 287 204
Width: 12
VWidth: 16
Flags: W
LayerCount: 3
Fore
SplineSet
2 16 m 5
 4 16 l 1
 4 14 l 1
 2 14 l 1
 2 16 l 5
8 16 m 1,0,-1
 10 16 l 1,1,-1
 10 14 l 1,2,-1
 8 14 l 1,3,-1
 8 16 l 1,0,-1
4 14 m 1,4,-1
 8 14 l 1,5,-1
 8 12 l 1,6,-1
 4 12 l 1,7,-1
 4 14 l 1,4,-1
6 0 m 1,8,-1
 8 0 l 1,9,-1
 8 -2 l 1,10,-1
 6 -2 l 1,11,-1
 4 -2 l 1,12,-1
 2 -2 l 1,13,-1
 0 -2 l 1,14,-1
 0 0 l 1,15,-1
 2 0 l 1,16,-1
 4 0 l 1,17,-1
 6 0 l 1,8,-1
8 0 m 1,18,-1
 8 2 l 1,19,-1
 6 2 l 1,20,-1
 4 2 l 1,21,-1
 2 2 l 1,22,-1
 2 4 l 1,23,-1
 0 4 l 1,24,-1
 0 6 l 1,25,-1
 0 8 l 1,26,-1
 2 8 l 1,27,-1
 2 10 l 1,28,-1
 4 10 l 1,29,-1
 6 10 l 1,30,-1
 8 10 l 1,31,-1
 10 10 l 1,32,-1
 10 8 l 1,33,-1
 10 6 l 1,34,-1
 10 4 l 1,35,-1
 10 2 l 1,36,-1
 10 0 l 1,37,-1
 8 0 l 1,18,-1
6 4 m 1,38,-1
 8 4 l 1,39,-1
 8 6 l 1,40,-1
 8 8 l 1,41,-1
 6 8 l 1,42,-1
 4 8 l 1,43,-1
 2 8 l 1,44,-1
 2 6 l 1,45,-1
 2 4 l 1,46,-1
 4 4 l 1,47,-1
 6 4 l 1,38,-1
EndSplineSet
Validated: 5
EndChar

StartChar: Gbreve
Encoding: 205 286 205
Width: 12
VWidth: 16
Flags: W
LayerCount: 3
Fore
SplineSet
2 20 m 5
 4 20 l 1
 4 18 l 1
 2 18 l 1
 2 20 l 5
8 20 m 1,0,-1
 10 20 l 1,1,-1
 10 18 l 1,2,-1
 8 18 l 1,3,-1
 8 20 l 1,0,-1
4 18 m 1,4,-1
 8 18 l 1,5,-1
 8 16 l 1,6,-1
 4 16 l 1,7,-1
 4 18 l 1,4,-1
6 2 m 1,8,-1
 8 2 l 1,9,-1
 8 0 l 1,10,-1
 6 0 l 1,11,-1
 4 0 l 1,12,-1
 2 0 l 1,13,-1
 2 2 l 1,14,-1
 4 2 l 1,15,-1
 6 2 l 1,8,-1
8 2 m 1,16,-1
 8 4 l 1,17,-1
 8 6 l 1,18,-1
 8 8 l 1,19,-1
 6 8 l 1,20,-1
 6 10 l 1,21,-1
 8 10 l 1,22,-1
 10 10 l 1,23,-1
 10 8 l 1,24,-1
 10 6 l 1,25,-1
 10 4 l 1,26,-1
 10 2 l 1,27,-1
 8 2 l 1,16,-1
2 2 m 1,28,-1
 0 2 l 1,29,-1
 0 4 l 1,30,-1
 0 6 l 1,31,-1
 0 8 l 1,32,-1
 0 10 l 1,33,-1
 0 12 l 1,34,-1
 2 12 l 1,35,-1
 2 10 l 1,36,-1
 2 8 l 1,37,-1
 2 6 l 1,38,-1
 2 4 l 1,39,-1
 2 2 l 1,28,-1
8 14 m 1,40,-1
 10 14 l 1,41,-1
 10 12 l 1,42,-1
 8 12 l 1,43,-1
 6 12 l 1,44,-1
 4 12 l 1,45,-1
 2 12 l 1,46,-1
 2 14 l 1,47,-1
 4 14 l 1,48,-1
 6 14 l 1,49,-1
 8 14 l 1,40,-1
EndSplineSet
Validated: 5
EndChar

StartChar: Idotaccent
Encoding: 206 304 206
Width: 12
VWidth: 16
Flags: W
LayerCount: 3
Fore
SplineSet
4 18 m 5
 6 18 l 1
 6 16 l 1
 4 16 l 1
 4 18 l 5
6 0 m 1,0,-1
 4 0 l 1,1,-1
 2 0 l 1,2,-1
 2 2 l 1,3,-1
 4 2 l 1,4,-1
 4 4 l 1,5,-1
 4 6 l 1,6,-1
 4 8 l 1,7,-1
 4 10 l 1,8,-1
 4 12 l 1,9,-1
 2 12 l 1,10,-1
 2 14 l 1,11,-1
 4 14 l 1,12,-1
 6 14 l 1,13,-1
 8 14 l 1,14,-1
 8 12 l 1,15,-1
 6 12 l 1,16,-1
 6 10 l 1,17,-1
 6 8 l 1,18,-1
 6 6 l 1,19,-1
 6 4 l 1,20,-1
 6 2 l 1,21,-1
 8 2 l 1,22,-1
 8 0 l 1,23,-1
 6 0 l 1,0,-1
EndSplineSet
Validated: 1
EndChar

StartChar: scedilla
Encoding: 207 351 207
Width: 12
VWidth: 16
Flags: W
LayerCount: 3
Fore
SplineSet
6 -2 m 5
 6 -4 l 1
 4 -4 l 1
 4 -2 l 1
 6 -2 l 5
8 0 m 1,0,-1
 8 -2 l 1,1,-1
 6 -2 l 1,2,-1
 6 0 l 1,3,-1
 8 0 l 1,0,-1
6 2 m 1,4,-1
 8 2 l 1,5,-1
 8 0 l 1,6,-1
 6 0 l 1,7,-1
 4 0 l 1,8,-1
 2 0 l 1,9,-1
 0 0 l 1,10,-1
 0 2 l 1,11,-1
 2 2 l 1,12,-1
 4 2 l 1,13,-1
 6 2 l 1,4,-1
8 2 m 1,14,-1
 8 4 l 1,15,-1
 10 4 l 1,16,-1
 10 2 l 1,17,-1
 8 2 l 1,14,-1
8 4 m 1,18,-1
 6 4 l 1,19,-1
 4 4 l 1,20,-1
 2 4 l 1,21,-1
 2 6 l 1,22,-1
 4 6 l 1,23,-1
 6 6 l 1,24,-1
 8 6 l 1,25,-1
 8 4 l 1,18,-1
2 6 m 1,26,-1
 0 6 l 1,27,-1
 0 8 l 1,28,-1
 2 8 l 1,29,-1
 2 6 l 1,26,-1
8 10 m 1,30,-1
 10 10 l 1,31,-1
 10 8 l 1,32,-1
 8 8 l 1,33,-1
 6 8 l 1,34,-1
 4 8 l 1,35,-1
 2 8 l 1,36,-1
 2 10 l 1,37,-1
 4 10 l 1,38,-1
 6 10 l 1,39,-1
 8 10 l 1,30,-1
EndSplineSet
Validated: 5
EndChar

StartChar: Scedilla
Encoding: 208 350 208
Width: 12
VWidth: 16
Flags: WO
LayerCount: 3
Fore
SplineSet
6 -2 m 5
 6 -4 l 1
 4 -4 l 1
 4 -2 l 1
 6 -2 l 5
8 0 m 1,0,-1
 8 -2 l 1,1,-1
 6 -2 l 1,2,-1
 6 0 l 1,3,-1
 8 0 l 1,0,-1
6 2 m 1,4,-1
 8 2 l 1,5,-1
 8 0 l 1,6,-1
 6 0 l 1,7,-1
 4 0 l 1,8,-1
 2 0 l 1,9,-1
 2 2 l 1,10,-1
 4 2 l 1,11,-1
 6 2 l 1,4,-1
8 2 m 1,12,-1
 8 4 l 1,13,-1
 8 6 l 1,14,-1
 8 8 l 1,15,-1
 10 8 l 1,16,-1
 10 6 l 1,17,-1
 10 4 l 1,18,-1
 10 2 l 1,19,-1
 8 2 l 1,12,-1
2 2 m 1,20,-1
 0 2 l 1,21,-1
 0 4 l 1,22,-1
 2 4 l 1,23,-1
 2 2 l 1,20,-1
8 8 m 1,24,-1
 6 8 l 1,25,-1
 4 8 l 1,26,-1
 2 8 l 1,27,-1
 2 10 l 1,28,-1
 4 10 l 1,29,-1
 6 10 l 1,30,-1
 8 10 l 1,31,-1
 8 8 l 1,24,-1
2 10 m 1,32,-1
 0 10 l 1,33,-1
 0 12 l 1,34,-1
 2 12 l 1,35,-1
 2 10 l 1,32,-1
8 14 m 1,36,-1
 10 14 l 1,37,-1
 10 12 l 1,38,-1
 8 12 l 1,39,-1
 6 12 l 1,40,-1
 4 12 l 1,41,-1
 2 12 l 1,42,-1
 2 14 l 1,43,-1
 4 14 l 1,44,-1
 6 14 l 1,45,-1
 8 14 l 1,36,-1
EndSplineSet
EndChar
